<?xml version="1.0" standalone="no"?>
<!DOCTYPE svg PUBLIC "-//W3C//DTD SVG 1.1//EN" "http://www.w3.org/Graphics/SVG/1.1/DTD/svg11.dtd" >
<svg xmlns="http://www.w3.org/2000/svg" xmlns:xlink="http://www.w3.org/1999/xlink" version="1.1">
<metadata>
Created by FontForge 20170910 at Sat Mar  6 20:34:37 2010
 By Jimmy Wärting
(C)2010 House Industries/Brand Design Co., Inc. All Rights Reserved.
</metadata>
<defs>
<font id="EamesCenturyModern-RegularItalic" horiz-adv-x="600" >
  <font-face 
    font-family="Eames Century Modern Regular"
    font-weight="400"
    font-style="italic"
    font-stretch="normal"
    units-per-em="1000"
    panose-1="2 0 5 3 7 7 5 2 2 3"
    ascent="820"
    descent="-180"
    x-height="469"
    cap-height="689"
    bbox="-219 -267 1152 1097.72"
    underline-thickness="50"
    underline-position="-100"
    slope="-9.7"
    stemh="44"
    stemv="103"
    unicode-range="U+0020-FB04"
  />
<missing-glyph horiz-adv-x="500" 
 />
    <glyph glyph-name="f_f" unicode="ff" horiz-adv-x="611" 
d="M626 678c-65 0 -109 -62 -138 -220l116 2l-4 -38l-118 2l-9 -65c-56 -455 -147 -562 -269 -562c-75 0 -101 42 -89 88c7 30 30 43 56 43c28 0 45 -19 39 -48s-36 -40 -64 -30c7 -16 23 -25 54 -25c97 0 123 99 153 344c13 103 29 187 48 256h-198l-9 -66
c-56 -455 -147 -562 -269 -562c-75 0 -101 42 -89 88c7 30 30 43 56 43c28 0 45 -19 39 -48s-36 -40 -64 -30c7 -16 23 -25 54 -25c97 0 123 99 153 344c12 103 29 186 47 254l-71 -1l4 39l78 -2c64 205 151 248 220 248c58 0 90 -45 84 -99c-6 -52 -31 -76 -67 -76
c-29 0 -53 16 -47 50c6 35 44 52 79 38c1 35 -15 58 -54 58c-65 0 -110 -62 -139 -220h203c64 206 150 249 220 249c58 0 90 -45 84 -99c-6 -52 -31 -76 -67 -76c-29 0 -53 16 -47 50c6 35 44 52 79 38c1 35 -15 58 -54 58z" />
    <glyph glyph-name="f_f_i" unicode="ffi" horiz-adv-x="830" 
d="M642 678c-76 0 -123 -62 -153 -220c103 1 206 0 272 2c-19 -79 -52 -227 -67 -303c-19 -99 -20 -132 13 -132c41 0 64 58 78 140l30 -4c-8 -80 -48 -178 -128 -178c-88 0 -96 60 -74 167l57 272l-187 2c-4 -20 -6 -42 -9 -65c-56 -455 -147 -562 -269 -562
c-75 0 -101 42 -89 88c7 30 31 43 56 43c28 0 46 -19 39 -48c-5 -29 -37 -40 -63 -32c6 -14 23 -23 53 -23c97 0 123 99 153 344c13 103 29 187 48 256l-199 -1l-9 -65c-56 -455 -147 -562 -269 -562c-75 0 -101 42 -89 88c7 30 30 43 56 43c28 0 45 -19 39 -48
s-36 -40 -64 -30c7 -16 23 -25 54 -25c97 0 123 99 153 344c12 102 29 186 47 254l-71 -1l4 39l78 -3c64 206 151 249 220 249c58 0 90 -45 84 -99c-6 -52 -31 -76 -67 -76c-29 0 -53 16 -47 50c6 35 44 52 79 38c1 35 -15 58 -54 58c-65 0 -110 -62 -139 -221l204 1
c64 206 155 249 236 249c67 0 100 -45 94 -99c-6 -52 -32 -76 -68 -76c-29 0 -52 16 -46 50c5 35 42 52 78 38c0 35 -21 58 -64 58z" />
    <glyph glyph-name="f_f_l" unicode="ffl" horiz-adv-x="832" 
d="M347 678c-65 0 -109 -62 -138 -219h202c64 205 155 248 236 248c31 0 55 -10 71 -26v9h71c1 -27 -2 -57 -10 -95c-28 -125 -78 -392 -89 -472c-12 -83 -8 -95 20 -95c42 0 61 54 74 137l30 -4c-8 -80 -44 -177 -131 -177c-70 0 -92 40 -75 133c13 70 52 262 82 417
c-6 -2 -11 -2 -17 -2c-29 0 -52 16 -46 50c5 35 42 52 78 38c0 35 -21 58 -64 58c-76 0 -123 -62 -153 -219l96 1l-4 -38l-98 2l-9 -65c-56 -455 -147 -562 -269 -562c-75 0 -101 42 -89 88c7 30 31 43 56 43c28 0 46 -19 39 -48c-5 -29 -37 -40 -63 -32
c6 -14 23 -23 53 -23c97 0 123 99 153 344c13 103 29 187 48 256h-198l-9 -66c-56 -455 -147 -562 -269 -562c-75 0 -101 42 -89 88c7 30 30 43 56 43c28 0 45 -19 39 -48s-36 -40 -64 -30c7 -16 23 -25 54 -25c97 0 123 99 153 344c12 103 29 186 47 254l-71 -1l4 39l78 -1
c64 204 151 247 220 247c58 0 90 -45 84 -99c-6 -52 -31 -76 -67 -76c-29 0 -53 16 -47 50c6 35 44 52 79 38c1 35 -15 58 -54 58z" />
    <glyph glyph-name="f_i" unicode="fi" horiz-adv-x="544" 
d="M362 678c-76 0 -123 -62 -153 -220c136 1 196 0 265 2c-17 -72 -52 -227 -66 -298c-21 -110 -19 -137 12 -137c41 0 64 58 78 140l30 -4c-8 -80 -48 -178 -128 -178c-84 0 -98 51 -73 167l56 272l-180 2c-4 -20 -6 -42 -9 -65c-56 -455 -147 -562 -269 -562
c-75 0 -101 42 -89 88c7 30 31 43 56 43c28 0 46 -19 39 -48c-5 -29 -37 -40 -63 -32c6 -14 23 -23 53 -23c97 0 123 99 153 344c12 103 29 186 47 254l-71 -1l4 39l78 -2c65 205 155 248 236 248c67 0 100 -45 94 -99c-6 -52 -32 -76 -68 -76c-29 0 -52 16 -46 50
c5 35 42 52 78 38c0 35 -21 58 -64 58z" />
    <glyph glyph-name="f_j" unicode="fj" horiz-adv-x="527" 
d="M362 678c-76 0 -123 -62 -153 -220c137 1 207 0 277 2c-5 -21 -32 -203 -84 -447c-31 -149 -91 -219 -188 -219c-72 0 -107 40 -92 91c7 25 25 44 58 44c28 0 45 -20 37 -48c-7 -30 -39 -37 -66 -31c5 -16 19 -30 51 -30c71 0 93 66 119 202l75 400l-193 2
c-4 -20 -6 -42 -9 -65c-56 -455 -147 -562 -269 -562c-75 0 -101 42 -89 88c7 30 31 43 56 43c28 0 46 -19 39 -48c-5 -29 -37 -40 -63 -32c6 -14 23 -23 53 -23c97 0 123 99 153 344c12 103 29 186 47 254l-71 -1l4 39l78 -2c65 205 155 248 236 248c67 0 100 -45 94 -99
c-6 -52 -32 -76 -68 -76c-29 0 -52 16 -46 50c5 35 42 52 78 38c0 35 -21 58 -64 58z" />
    <glyph glyph-name="f_l" unicode="fl" horiz-adv-x="554" 
d="M362 678c-76 0 -123 -62 -153 -220l109 3l-4 -39l-111 2c-4 -20 -6 -42 -9 -65c-56 -455 -147 -562 -269 -562c-75 0 -101 42 -89 88c7 30 31 43 56 43c28 0 46 -19 39 -48c-5 -29 -37 -40 -63 -32c6 -14 23 -23 53 -23c97 0 123 99 153 344c12 103 29 186 47 254l-71 -1
l4 39l78 -2c65 205 155 248 236 248c32 0 56 -10 72 -27v10h72c0 -27 -2 -57 -11 -95c-28 -125 -77 -392 -89 -472c-11 -83 -7 -95 20 -95c43 0 61 54 75 137l30 -4c-9 -80 -44 -177 -132 -177c-69 0 -91 40 -74 133c13 70 51 262 81 417c-6 -2 -12 -2 -18 -2
c-29 0 -52 16 -46 50c5 35 42 52 78 38c0 35 -21 58 -64 58z" />
    <glyph glyph-name="f_t" unicode="ft" horiz-adv-x="610" 
d="M50 422l4 39l78 -2c64 205 151 248 220 248c58 0 90 -45 84 -99c-6 -52 -31 -76 -67 -76c-29 0 -53 16 -47 50c6 35 44 52 79 38c1 35 -15 58 -54 58c-65 0 -110 -62 -139 -220h105c130 0 164 53 183 145h29c-12 -47 -29 -103 -37 -146l106 3l-5 -38l-108 1l-55 -279
c-18 -93 -8 -119 25 -119c38 0 65 49 74 140l30 -4c-10 -107 -47 -178 -132 -178c-83 0 -105 57 -86 158c12 62 44 200 60 281l-194 2l-8 -65c-56 -455 -148 -562 -270 -562c-75 0 -101 42 -89 88c7 30 30 43 56 43c28 0 45 -19 39 -48s-36 -40 -64 -30c7 -16 23 -25 54 -25
c97 0 123 99 153 344c12 103 29 186 47 254z" />
    <glyph glyph-name="t_t" unicode="tt" horiz-adv-x="623" 
d="M537 165l30 -4c-9 -107 -47 -178 -132 -178c-83 0 -105 57 -85 158c12 62 44 201 59 282h-218l-55 -279c-18 -93 -10 -119 23 -119c39 0 67 49 76 140l30 -4c-10 -107 -49 -178 -133 -178s-105 57 -85 158c12 62 44 200 60 281h-65l4 36c109 1 131 51 169 173h28
c-13 -51 -35 -126 -44 -171l-1 -4h114c153 1 163 50 205 175h28c-13 -51 -36 -129 -43 -171l-1 -2l105 2l-5 -38l-107 1l-55 -279c-18 -93 -9 -119 24 -119c38 0 65 49 74 140z" />
    <glyph glyph-name=".notdef" horiz-adv-x="500" 
 />
    <glyph glyph-name="Eth" unicode="&#xd0;" horiz-adv-x="785" 
d="M442 688c237 0 340 -106 301 -358c-37 -244 -203 -331 -415 -331c-13 0 -127 1 -170 1c-42 0 -152 -1 -164 -2l6 50h59c46 0 56 6 65 40c4 18 24 129 43 242c-37 0 -68 -1 -86 -1c3 10 6 40 6 50c18 -1 50 -2 88 -2c17 103 32 198 34 216c3 39 -6 49 -45 49h-68l7 47
c10 0 111 -2 170 -2c55 0 129 1 169 1zM221 92c-4 -38 8 -50 44 -50h58c172 0 280 60 319 290c40 239 -22 315 -217 315h-65c-32 0 -46 -15 -55 -46c-4 -14 -22 -115 -40 -224c61 0 121 1 149 2c-3 -10 -6 -39 -6 -50c-29 1 -89 1 -150 1c-18 -109 -35 -215 -37 -238z" />
    <glyph glyph-name="Lslash" unicode="&#x141;" horiz-adv-x="661" 
d="M438 689l-5 -47h-67c-37 0 -51 -11 -61 -50c-4 -16 -19 -99 -36 -192c33 17 63 32 82 43l18 -37c-25 -12 -66 -32 -108 -54c-21 -122 -42 -248 -43 -264c-2 -32 11 -40 46 -40h109c114 0 159 41 186 158l10 46h50c-10 -44 -44 -212 -51 -256c-47 4 -149 4 -192 4h-218
c-51 0 -163 -2 -163 -2l6 50h60c46 0 56 6 65 40c3 15 21 111 39 215c-16 -9 -31 -16 -41 -22l-19 37c17 8 41 19 68 33c19 112 37 222 39 241c3 39 -7 50 -43 50h-67l5 47s109 -2 166 -2c60 0 151 2 165 2z" />
    <glyph glyph-name="lslash" unicode="&#x142;" horiz-adv-x="279" 
d="M226 594c-13 -59 -25 -122 -38 -185l57 35l21 -37l-88 -50c-15 -77 -28 -150 -39 -209c-17 -92 -15 -124 21 -125c39 0 63 57 75 142l30 -4c-8 -85 -47 -178 -131 -178c-77 0 -101 53 -75 161c10 43 22 101 34 163l-32 -20l-21 36l64 36c19 96 36 192 43 239
c5 33 1 50 -38 50h-35l5 41c37 -2 121 -2 159 0c0 -27 -4 -56 -12 -95z" />
    <glyph glyph-name="Scaron" unicode="&#x160;" horiz-adv-x="637" 
d="M280 904l9 8c34 -24 89 -74 116 -105c35 32 93 83 130 106l7 -9c-31 -48 -90 -110 -129 -141h-42c-28 29 -70 93 -91 141zM358 664c-107 0 -168 -42 -180 -110c-14 -83 37 -118 182 -144c159 -28 233 -107 207 -249c-19 -107 -102 -180 -261 -180c-81 0 -155 23 -188 43
c-29 17 -55 25 -67 -25c-10 1 -41 1 -51 0c29 72 47 147 52 240c6 -1 42 -1 48 0c-20 -143 53 -212 209 -212c118 0 172 47 184 121c13 89 -51 130 -192 155c-148 27 -215 103 -192 230c20 115 118 180 258 176c74 -2 120 -24 153 -43c23 -13 47 -20 56 23c9 -1 41 -1 50 0
c-33 -79 -44 -132 -48 -220c-7 1 -41 1 -47 0c20 129 -39 195 -173 195z" />
    <glyph glyph-name="scaron" unicode="&#x161;" horiz-adv-x="415" 
d="M155 670l9 8c34 -24 89 -74 116 -105c35 32 93 83 130 106l7 -9c-31 -48 -90 -110 -129 -141h-42c-28 29 -70 93 -91 141zM257 440c-65 0 -108 -27 -120 -62c-17 -51 6 -85 94 -109c120 -33 146 -92 128 -166c-19 -72 -87 -120 -190 -120c-95 0 -167 39 -152 117
c5 27 28 47 58 47s46 -21 40 -48c-6 -30 -38 -41 -64 -32c13 -32 58 -51 119 -51c65 0 116 22 129 66c12 49 -4 83 -105 111c-105 30 -139 82 -119 161c18 69 87 115 184 115c86 0 142 -38 134 -105c-5 -35 -29 -51 -58 -51c-28 0 -44 19 -40 45c4 32 36 42 64 36
c-14 29 -51 46 -102 46z" />
    <glyph glyph-name="Yacute" unicode="&#xdd;" horiz-adv-x="789" 
d="M659 572c-58 -79 -169 -237 -234 -332l-22 -142c-6 -39 -6 -51 50 -51h70l-7 -49s-110 2 -173 2c-62 0 -174 -2 -174 -2l7 49h67c52 0 60 12 66 51l23 139c-33 97 -91 255 -121 339c-18 51 -45 66 -106 66h-24l6 47s111 -2 174 -2c62 0 173 2 173 2l-6 -47h-48
c-63 0 -77 -20 -63 -68c19 -67 70 -205 99 -278c59 83 148 212 188 278c25 42 31 68 -38 68h-38l6 47s97 -2 152 -2c54 0 150 2 150 2l-6 -47h-28c-78 0 -102 -13 -143 -70zM506 756l-7 9c42 48 94 106 128 135c35 26 70 -20 35 -45c-34 -25 -102 -66 -156 -99z" />
    <glyph glyph-name="yacute" unicode="&#xfd;" horiz-adv-x="545" 
d="M43 283l-31 3c8 77 45 183 132 183c81 0 104 -55 75 -162l-31 -119c-32 -123 -15 -165 30 -165c54 0 134 57 178 281l31 157s26 -2 41 -2c14 0 41 2 41 2c-8 -34 -77 -369 -83 -403c-32 -175 -128 -261 -258 -261c-99 0 -135 56 -118 109c9 28 31 46 63 46
c31 0 51 -21 45 -52c-6 -35 -45 -50 -78 -34c8 -25 35 -41 89 -41c101 0 146 76 172 208l18 93c-42 -100 -106 -143 -173 -143c-91 0 -117 54 -80 206l29 117c22 91 18 123 -11 123c-44 0 -68 -64 -81 -146zM281 526l-7 9c42 48 94 106 128 135c35 26 70 -20 35 -45
c-34 -25 -102 -66 -156 -99z" />
    <glyph glyph-name="Thorn" unicode="&#xde;" horiz-adv-x="648" 
d="M-5 -2l5 50h59c46 0 57 5 66 40c10 34 84 465 87 504s-8 50 -44 50h-67l6 47s106 -2 165 -2c60 0 149 2 165 2l-5 -47h-67c-36 0 -50 -11 -60 -50c-2 -7 -6 -28 -12 -57c35 7 84 13 136 13c164 0 252 -69 226 -220c-24 -137 -128 -186 -322 -186c-37 0 -75 5 -105 13
c-6 -35 -10 -60 -10 -67c-3 -34 5 -40 51 -40h61l-5 -50s-106 2 -165 2s-165 -2 -165 -2zM395 497c-46 0 -83 -4 -110 -8c-16 -84 -35 -201 -50 -288c24 -5 55 -8 94 -8c144 0 203 36 223 139c22 117 -38 165 -157 165z" />
    <glyph glyph-name="thorn" unicode="&#xfe;" horiz-adv-x="507" 
d="M227 595l-53 -262c38 88 97 136 164 136c78 0 134 -52 113 -202c-26 -186 -113 -284 -219 -284c-60 0 -97 31 -109 85c-9 -43 -22 -110 -28 -145c-6 -44 3 -57 51 -57h33l-7 -42c-5 0 -85 2 -133 2s-129 -2 -133 -2l8 42h32c44 0 57 15 68 58c12 44 109 531 134 674
c6 34 2 51 -37 51h-36l3 41c39 -2 124 -2 163 0c-1 -33 -7 -58 -14 -95zM312 429c-68 0 -135 -78 -166 -242c-19 -110 4 -164 69 -164c66 0 120 61 151 243c20 118 5 163 -54 163z" />
    <glyph glyph-name="Zcaron" unicode="&#x17d;" horiz-adv-x="668" 
d="M290 904l9 8c34 -24 89 -74 116 -105c35 32 93 83 130 106l7 -9c-31 -48 -90 -110 -129 -141h-42c-28 29 -70 93 -91 141zM4 0l6 47c135 138 398 435 536 593l-222 -1c-121 0 -147 -13 -173 -131l-11 -51c-10 1 -37 1 -47 0c13 53 35 180 42 233c54 -2 116 -3 181 -3h357
l-7 -47c-135 -140 -393 -432 -533 -592h266c101 0 135 24 154 136l10 59c11 -1 40 -1 51 0c-14 -59 -36 -187 -45 -246c-56 2 -121 3 -172 3h-393z" />
    <glyph glyph-name="zcaron" unicode="&#x17e;" horiz-adv-x="468" 
d="M166 670l9 8c34 -24 89 -74 116 -105c35 32 93 83 130 106l7 -9c-31 -48 -90 -110 -129 -141h-42c-28 29 -70 93 -91 141zM98 283l-28 3c-9 139 53 194 121 194c42 0 74 -16 110 -57c40 -47 80 -69 108 -43c-17 8 -25 25 -25 45c-1 30 13 44 31 44c20 0 32 -14 32 -43
c0 -42 -20 -72 -125 -149c-39 -28 -147 -97 -217 -159c43 22 88 17 118 -7c44 -34 63 -49 100 -48c55 1 84 31 85 102l27 -4c-4 -125 -52 -177 -126 -178c-55 -1 -88 17 -126 65c-39 50 -86 54 -116 32l-7 -9c15 -10 20 -28 20 -45c0 -27 -12 -42 -32 -42
c-17 0 -32 13 -32 43c0 48 34 85 128 158c56 44 160 108 221 154c-44 -16 -84 -1 -124 32c-33 27 -52 38 -75 38c-50 0 -72 -37 -68 -126z" />
    <glyph glyph-name="onehalf" unicode="&#xbd;" horiz-adv-x="378" 
d="M14 343c0 10 7 18 17 18s18 -8 18 -18s-8 -17 -18 -17s-17 7 -17 17zM79 343c0 9 6 16 15 16s16 -7 16 -16s-7 -15 -16 -15s-15 6 -15 15zM143 343c0 8 6 15 14 15s15 -7 15 -15s-7 -14 -15 -14s-14 6 -14 14zM206 343c0 8 6 15 14 15s15 -7 15 -15s-7 -14 -15 -14
s-14 6 -14 14zM268 343c0 9 6 16 15 16s16 -7 16 -16s-7 -15 -16 -15s-15 6 -15 15zM329 343c0 10 7 18 17 18s18 -8 18 -18s-8 -17 -18 -17s-17 7 -17 17zM284 67c9 -47 -16 -97 -76 -97c-33 0 -52 12 -79 32c-12 10 -24 19 -43 19s-25 -10 -15 -20c13 -15 7 -31 -8 -31
c-11 0 -20 10 -19 27c3 28 20 60 83 92c80 40 111 64 119 109c7 38 -7 68 -55 68c-34 0 -69 -12 -83 -40c6 2 14 4 21 4c24 0 32 -15 29 -31c-3 -18 -19 -28 -40 -28c-24 0 -37 15 -33 41c7 40 55 78 125 78c73 0 104 -36 94 -91c-9 -52 -61 -90 -169 -128
c-23 -8 -40 -18 -51 -30c38 21 80 -1 120 -7c32 -5 62 -3 62 32zM204 454c7 40 22 123 29 174c-21 -1 -54 -3 -64 -3l4 29h18c55 0 76 26 87 60h31s-14 -55 -23 -110l-25 -150c-3 -15 3 -24 26 -24h36l-4 -27s-61 1 -95 1c-35 0 -96 -1 -96 -1l5 27h37c23 0 31 9 34 24z" />
    <glyph glyph-name="onequarter" unicode="&#xbc;" horiz-adv-x="378" 
d="M14 343c0 10 7 18 17 18s18 -8 18 -18s-8 -17 -18 -17s-17 7 -17 17zM79 343c0 9 6 16 15 16s16 -7 16 -16s-7 -15 -16 -15s-15 6 -15 15zM143 343c0 8 6 15 14 15s15 -7 15 -15s-7 -14 -15 -14s-14 6 -14 14zM206 343c0 8 6 15 14 15s15 -7 15 -15s-7 -14 -15 -14
s-14 6 -14 14zM268 343c0 9 6 16 15 16s16 -7 16 -16s-7 -15 -16 -15s-15 6 -15 15zM329 343c0 10 7 18 17 18s18 -8 18 -18s-8 -17 -18 -17s-17 7 -17 17zM204 454c9 40 22 123 29 174c-21 -1 -54 -3 -64 -3l4 29h18c55 0 76 26 87 60h31s-14 -55 -23 -110l-25 -150
c-3 -15 3 -24 26 -24h36l-4 -27s-61 1 -95 1c-35 0 -96 -1 -96 -1l5 27h37c23 0 32 9 34 24zM150 24c1 8 4 20 6 31c-45 1 -102 0 -135 -1l3 21l204 211h34c-11 -50 -29 -142 -40 -211l60 1l-4 -23h-60l-4 -29c-2 -14 4 -17 25 -17h30l-3 -28s-65 1 -96 1
c-30 0 -83 -1 -83 -1l4 28h26c23 0 29 2 33 17zM160 74c8 45 19 101 25 140l-133 -140c29 -1 72 -1 108 0z" />
    <glyph glyph-name="threequarters" unicode="&#xbe;" horiz-adv-x="378" 
d="M150 24l6 31c-45 1 -102 0 -135 -1l3 21l204 211h34c-11 -50 -29 -142 -40 -211l60 1l-4 -23h-60l-4 -29c-2 -14 4 -17 25 -17h30l-3 -28s-65 1 -96 1c-30 0 -83 -1 -83 -1l4 28h26c23 0 29 2 33 17zM368 636c-7 -37 -37 -61 -76 -71c51 -7 73 -39 65 -80
c-11 -62 -71 -89 -153 -89c-69 0 -109 33 -100 75c5 26 24 40 48 40s33 -14 32 -29c-2 -19 -15 -30 -37 -30c-9 0 -17 2 -24 6c7 -27 39 -41 76 -41c57 0 87 24 95 69c8 42 -10 65 -71 65h-18l4 21h17c52 1 74 20 83 62c7 35 -11 57 -52 57c-30 0 -66 -12 -82 -36
c6 2 13 4 21 4c22 0 30 -14 28 -30c-3 -18 -15 -29 -39 -29c-21 0 -38 13 -33 40c7 40 56 75 122 75c74 0 103 -33 94 -79zM160 74c8 45 19 101 25 140l-133 -140c29 -1 72 -1 108 0zM329 343c0 10 7 18 17 18s18 -8 18 -18s-8 -17 -18 -17s-17 7 -17 17zM14 343
c0 10 7 18 17 18s18 -8 18 -18s-8 -17 -18 -17s-17 7 -17 17zM268 343c0 9 6 16 15 16s16 -7 16 -16s-7 -15 -16 -15s-15 6 -15 15zM79 343c0 9 6 16 15 16s16 -7 16 -16s-7 -15 -16 -15s-15 6 -15 15zM143 343c0 8 6 15 14 15s15 -7 15 -15s-7 -14 -15 -14s-14 6 -14 14z
M206 343c0 8 6 15 14 15s15 -7 15 -15s-7 -14 -15 -14s-14 6 -14 14z" />
    <glyph glyph-name="brokenbar" unicode="&#xa6;" horiz-adv-x="300" 
d="M61 -133c0 5 5 10 10 10s9 -5 9 -10c0 -4 -4 -9 -9 -9s-10 5 -10 9zM70 -47c0 8 7 14 15 14s15 -6 15 -14s-7 -15 -15 -15s-15 7 -15 15zM80 38c0 10 9 19 19 19c11 0 19 -9 19 -19c0 -11 -8 -19 -19 -19c-10 0 -19 8 -19 19zM90 123c0 13 11 23 24 23
c12 0 23 -10 23 -23s-11 -23 -23 -23c-13 0 -24 10 -24 23zM102 208c0 14 12 27 26 27s26 -13 26 -27s-12 -26 -26 -26s-26 12 -26 26zM145 464c0 14 12 26 26 26s26 -12 26 -26s-12 -26 -26 -26s-26 12 -26 26zM162 549c0 13 11 24 23 24c13 0 24 -11 24 -24
s-11 -23 -24 -23c-12 0 -23 10 -23 23zM181 634c0 11 8 19 19 19c10 0 19 -8 19 -19c0 -10 -9 -18 -19 -18c-11 0 -19 8 -19 18zM199 719c0 9 7 15 15 15s15 -6 15 -15c0 -7 -7 -14 -15 -14s-15 7 -15 14zM219 805c0 5 4 9 9 9s10 -4 10 -9s-5 -9 -10 -9s-9 4 -9 9z" />
    <glyph glyph-name="minus" unicode="&#x2212;" 
d="M74 224c3 10 9 44 11 55c109 -2 331 -2 440 0c-3 -11 -9 -45 -11 -55c-108 2 -330 2 -440 0z" />
    <glyph glyph-name="multiply" unicode="&#xd7;" 
d="M448 109l-43 -36c-16 21 -85 110 -110 157c-43 -45 -127 -117 -156 -143l-29 37c30 24 118 93 169 126c-41 35 -107 114 -129 139l43 36c20 -25 83 -109 109 -156c42 46 126 121 157 147l28 -36c-30 -25 -119 -98 -169 -131c40 -36 112 -120 130 -140z" />
    <glyph glyph-name="space" unicode=" " horiz-adv-x="195" 
 />
    <glyph glyph-name="exclam" unicode="!" horiz-adv-x="290" 
d="M171 52c-1 -41 -29 -63 -67 -63c-36 0 -63 21 -63 63c0 40 29 64 65 64c38 0 65 -25 65 -64zM142 205c-1 -7 -7 -11 -14 -10c-9 1 -13 7 -11 14c33 168 35 240 25 363c-9 111 26 137 72 137c51 0 84 -55 32 -155c-54 -107 -76 -179 -104 -349z" />
    <glyph glyph-name="quotedbl" unicode="&#x22;" horiz-adv-x="372" 
d="M113 443c-4 -9 -7 -13 -15 -13c-6 0 -10 5 -7 15c21 69 41 129 35 176c-4 52 18 82 51 82c35 0 42 -44 1 -97c-31 -42 -46 -94 -65 -163zM263 443c-4 -9 -7 -13 -15 -13c-6 0 -10 5 -7 15c21 69 41 129 35 176c-4 52 18 82 51 82c35 0 42 -44 1 -97
c-31 -42 -46 -94 -65 -163z" />
    <glyph glyph-name="numbersign" unicode="#" horiz-adv-x="596" 
d="M121 0h-27c18 58 42 140 68 229c-49 0 -93 -1 -125 -1c1 2 9 28 9 30c32 -1 75 -2 123 -2c16 57 33 115 48 172c-52 0 -99 -1 -133 -1c0 2 8 29 9 31c34 -1 81 -2 132 -2c24 90 46 173 60 232h29c-19 -59 -44 -142 -70 -232h175c23 90 44 173 57 232h30
c-18 -59 -42 -142 -67 -232c47 0 89 1 121 2c0 -2 -8 -29 -8 -31c-32 0 -74 1 -120 1c-16 -57 -31 -115 -46 -172c46 0 87 1 118 2c0 -2 -8 -28 -9 -30c-31 0 -71 1 -116 1c-23 -89 -44 -171 -57 -229h-27c17 58 41 140 65 229c-58 1 -121 0 -179 0
c-25 -89 -46 -171 -60 -229zM236 428l-48 -172h179c15 57 31 115 45 172h-176z" />
    <glyph glyph-name="dollar" unicode="$" 
d="M198 -99h-35l22 116c-108 16 -161 73 -148 144c8 39 34 54 66 54c33 0 52 -22 46 -53c-5 -28 -27 -44 -60 -44h-9c15 -34 48 -57 112 -66l51 266c-104 35 -148 109 -113 218c22 68 85 117 168 135l18 116h34l-20 -111c17 2 37 2 55 1l17 110h34l-21 -113
c98 -14 139 -71 129 -138c-5 -37 -27 -57 -66 -57c-33 0 -51 22 -47 50c4 32 28 47 60 47c5 0 10 0 15 -1c-14 33 -43 56 -97 64l-45 -243c138 -34 186 -98 166 -208c-17 -91 -104 -158 -228 -172l-18 -115h-35l21 112c-16 0 -43 0 -54 1zM458 168c8 65 -23 101 -111 125
l-39 -241c91 13 142 56 150 116zM222 49c21 -2 42 -1 55 1l48 248s-47 10 -61 14zM282 418c17 -5 36 -11 59 -16c1 0 1 -1 2 -1l37 241c-19 0 -38 0 -57 -3zM194 545c-14 -55 0 -92 67 -120l31 208c-54 -16 -88 -50 -98 -88z" />
    <glyph glyph-name="percent" unicode="%" 
d="M103 86c0 5 3 8 8 8s8 -3 8 -8s-3 -8 -8 -8s-8 3 -8 8zM140 139c0 7 6 13 13 13c6 0 12 -6 12 -13s-6 -12 -12 -12c-7 0 -13 5 -13 12zM177 192c0 10 8 17 17 17c10 0 17 -7 17 -17c0 -9 -7 -17 -17 -17c-9 0 -17 8 -17 17zM215 246c0 10 10 19 21 19s20 -9 20 -19
c0 -12 -9 -21 -20 -21s-21 9 -21 21zM255 298c0 13 10 23 22 23c13 0 23 -10 23 -23c0 -12 -10 -22 -23 -22c-12 0 -22 10 -22 22zM296 352c0 12 10 22 23 22s23 -10 23 -22c0 -13 -10 -23 -23 -23s-23 10 -23 23zM338 405c0 12 10 22 23 22c12 0 22 -10 22 -22
c0 -13 -10 -23 -22 -23c-13 0 -23 10 -23 23zM382 458c0 11 9 20 20 20s21 -9 21 -20s-10 -20 -21 -20s-20 9 -20 20zM427 511c0 9 7 17 17 17c9 0 17 -8 17 -17c0 -10 -8 -17 -17 -17c-10 0 -17 7 -17 17zM473 564c0 7 6 12 12 12c7 0 13 -5 13 -12s-6 -13 -13 -13
c-6 0 -12 6 -12 13zM519 617c0 5 3 8 8 8s8 -3 8 -8s-3 -8 -8 -8s-8 3 -8 8zM372 -10c42 0 77 28 98 137c20 100 6 138 -38 138c-39 0 -75 -28 -97 -138c-21 -104 -5 -137 37 -137zM372 -32c-78 0 -120 51 -100 159c22 115 91 160 162 160c82 0 119 -54 99 -160
c-21 -115 -91 -159 -161 -159zM190 418c43 0 77 28 99 137c20 100 5 139 -38 139c-40 0 -76 -29 -97 -139c-21 -104 -5 -137 36 -137zM190 396c-78 0 -120 51 -100 159c23 115 92 160 162 160c83 0 120 -54 100 -160c-22 -115 -91 -159 -162 -159z" />
    <glyph glyph-name="ampersand" unicode="&#x26;" horiz-adv-x="734" 
d="M676 106c-17 -73 -64 -117 -151 -117c-55 0 -97 13 -139 52c-49 -37 -112 -60 -190 -60c-150 0 -191 94 -179 178c13 98 87 158 191 187c-24 66 -33 128 -25 189c15 108 89 165 193 165c96 0 141 -63 131 -144c-14 -100 -92 -173 -195 -212c9 -21 20 -44 32 -68
c30 -62 60 -113 92 -152c42 41 70 93 83 145c6 24 3 49 -25 49h-45l5 40s74 -2 117 -2c42 0 117 2 117 2l-5 -40h-51c-27 0 -38 -15 -48 -43c-26 -77 -73 -139 -125 -178c32 -31 66 -48 105 -48c48 0 72 23 89 63zM235 30c50 0 93 13 129 35c-34 39 -69 97 -111 179l-33 69
c-59 -27 -99 -67 -111 -133c-14 -82 28 -151 126 -150zM270 549c-7 -51 3 -105 31 -178c81 37 122 89 134 181c10 73 -13 109 -64 109c-58 0 -92 -42 -101 -112z" />
    <glyph glyph-name="quotesingle" unicode="'" horiz-adv-x="222" 
d="M113 443c-4 -9 -7 -13 -15 -13c-6 0 -10 5 -7 15c21 69 41 129 35 176c-4 52 18 82 51 82c35 0 42 -44 1 -97c-31 -42 -46 -94 -65 -163z" />
    <glyph glyph-name="parenleft" unicode="(" horiz-adv-x="270" 
d="M135 331c-38 -266 -27 -398 38 -514l-22 -16c-87 110 -133 302 -100 530c36 259 135 410 254 520l17 -16c-97 -115 -150 -238 -187 -504z" />
    <glyph glyph-name="parenright" unicode=")" horiz-adv-x="270" 
d="M140 331c34 244 28 385 -39 504l21 16c88 -110 133 -295 102 -520c-36 -259 -137 -423 -254 -533l-17 15c117 142 149 251 187 518z" />
    <glyph glyph-name="asterisk" unicode="*" horiz-adv-x="500" 
d="M344 594c-8 -14 -11 -28 -17 -56l14 -13c26 11 38 18 52 29c19 18 28 39 55 50s50 -2 58 -23c7 -20 1 -46 -29 -57c-26 -8 -50 2 -73 0c-16 0 -32 -3 -59 -13l-3 -18c22 -17 35 -24 53 -31c24 -7 47 -5 70 -22c24 -19 23 -45 9 -63c-14 -16 -40 -23 -63 -3
c-21 19 -24 45 -37 64c-9 13 -19 24 -41 43l-17 -8c-3 -26 -3 -41 0 -58c5 -25 19 -44 15 -72c-4 -30 -27 -43 -49 -39c-22 3 -40 22 -35 52c6 28 27 44 37 64c7 14 13 28 17 56l-15 12c-25 -10 -37 -17 -51 -28c-19 -18 -28 -39 -55 -50s-50 2 -58 23c-7 20 -1 46 29 57
c26 8 50 -2 73 0c16 0 31 3 58 12l3 19c-21 16 -35 24 -52 31c-24 7 -47 5 -70 23c-24 18 -23 44 -9 62c14 16 40 23 63 3c21 -19 24 -45 37 -64c9 -13 19 -25 41 -44l17 8c3 27 3 41 0 59c-5 25 -19 44 -15 72c4 30 27 42 49 39s40 -22 35 -52c-6 -28 -27 -44 -37 -64z" />
    <glyph glyph-name="plus" unicode="+" 
d="M281 26h-51c7 29 33 152 53 210c-60 -8 -176 -10 -211 -11l10 51c35 -1 150 -4 206 -12c3 58 22 173 29 209h51c-8 -36 -33 -151 -52 -209c59 8 176 11 212 12l-10 -51c-35 1 -152 3 -208 12c-4 -58 -25 -182 -29 -211z" />
    <glyph glyph-name="comma" unicode="," horiz-adv-x="240" 
d="M75 14c-27 0 -43 16 -40 48c3 30 27 54 61 54c44 0 60 -34 56 -79c-7 -79 -72 -152 -182 -178l-6 21c84 23 153 73 158 157c-10 -15 -27 -23 -47 -23z" />
    <glyph glyph-name="hyphen" unicode="-" horiz-adv-x="319" 
d="M32 211c2 14 4 43 4 60c62 -2 197 -2 259 0l-4 -60c-62 2 -197 2 -259 0z" />
    <glyph glyph-name="period" unicode="." horiz-adv-x="236" 
d="M157 52c-3 -41 -33 -63 -71 -63c-36 0 -62 21 -58 63c4 40 34 64 70 64c38 0 62 -25 59 -64z" />
    <glyph glyph-name="slash" unicode="/" horiz-adv-x="382" 
d="M380 690c-88 -208 -255 -659 -323 -868c-14 2 -50 2 -63 0c87 209 254 660 321 868c14 -2 51 -2 65 0z" />
    <glyph glyph-name="zero" unicode="0" horiz-adv-x="529" 
d="M221 18c103 0 159 91 184 286c20 168 -15 225 -91 225c-92 0 -160 -90 -186 -292c-20 -172 19 -219 93 -219zM220 -17c-135 0 -210 82 -185 271c19 161 104 312 276 312c132 0 206 -92 187 -270c-18 -176 -103 -313 -278 -313z" />
    <glyph glyph-name="one" unicode="1" horiz-adv-x="428" 
d="M146 96c17 74 44 226 59 319c-38 -2 -96 -5 -119 -5c3 9 8 36 9 45h25c106 0 144 41 170 128c10 -1 37 -1 47 0c0 0 -30 -97 -51 -222l-46 -265c-6 -34 5 -51 51 -51h63c-4 -8 -8 -38 -8 -47c0 0 -107 2 -168 2s-169 -2 -169 -2l8 47h62c46 0 60 17 67 51z" />
    <glyph glyph-name="two" unicode="2" horiz-adv-x="515" 
d="M474 183c13 -111 -34 -206 -149 -206c-65 0 -98 30 -138 67c-29 28 -51 44 -89 43c-26 -1 -47 -12 -53 -35c5 2 12 4 20 4c26 0 38 -16 37 -39c-2 -24 -18 -36 -40 -36c-27 0 -48 22 -41 69c9 60 56 125 211 188c94 38 154 90 166 159c14 81 -23 135 -104 135
c-62 0 -133 -29 -158 -102c7 3 16 4 26 4c35 0 57 -24 52 -59s-29 -53 -65 -53c-35 0 -68 27 -53 99c17 80 105 151 217 151c135 0 194 -74 178 -173c-15 -97 -106 -156 -249 -194c-72 -20 -124 -46 -153 -78c16 9 33 12 51 12c39 1 74 -10 107 -27c42 -21 76 -30 114 -29
c50 2 81 25 82 97z" />
    <glyph glyph-name="three" unicode="3" horiz-adv-x="579" 
d="M525 394c-16 -88 -84 -150 -172 -169c108 -11 164 -83 146 -180c-26 -136 -141 -204 -300 -204c-149 0 -204 74 -189 157c11 58 45 77 82 77s61 -23 55 -58c-5 -38 -32 -53 -66 -53c-15 0 -26 4 -33 9c-3 -74 68 -97 146 -97c125 0 179 62 198 164
c18 98 -19 158 -146 158h-32l8 41h32c109 1 155 54 173 155c16 86 -23 138 -107 138c-61 0 -138 -27 -164 -102c7 2 15 4 25 4c35 0 59 -23 54 -59c-5 -38 -31 -53 -66 -53c-38 0 -71 27 -55 92c20 83 101 158 233 158c126 0 199 -62 178 -178z" />
    <glyph glyph-name="four" unicode="4" horiz-adv-x="549" 
d="M250 -42c6 30 14 68 22 111c-88 1 -207 0 -276 -1l7 41c35 40 381 430 414 470h39c-23 -108 -61 -312 -88 -472l127 3l-6 -45l-127 2c-7 -42 -13 -79 -17 -109c-5 -34 7 -39 49 -39h44l-4 -43s-90 2 -149 2c-58 0 -159 -2 -159 -2l4 43h54c47 0 59 6 66 39zM337 432
c-88 -98 -211 -236 -287 -326c63 -1 157 -1 229 0c21 110 44 238 58 326z" />
    <glyph glyph-name="five" unicode="5" horiz-adv-x="553" 
d="M258 258c-83 0 -127 -33 -166 -60l-18 19c57 94 94 214 102 361c36 -14 98 -25 171 -25c68 0 110 9 165 36l16 -17c-44 -84 -106 -116 -201 -116c-54 0 -100 10 -130 29c-16 -78 -42 -173 -72 -237c45 29 105 53 176 53c152 0 205 -90 181 -231
c-24 -140 -134 -230 -295 -230c-139 0 -196 74 -177 163c10 47 43 73 80 73c36 0 59 -22 56 -58s-30 -54 -63 -54c-15 0 -27 3 -37 10c-2 -61 46 -97 138 -97c116 0 170 74 190 193c22 122 -14 188 -116 188z" />
    <glyph glyph-name="six" unicode="6" horiz-adv-x="579" 
d="M408 675c-129 0 -195 -95 -235 -321c42 53 112 84 185 84c143 0 198 -89 176 -214c-25 -146 -122 -240 -276 -240c-150 0 -234 93 -192 337c45 266 186 389 345 389c121 0 166 -75 154 -151c-8 -57 -43 -80 -83 -80c-36 0 -59 25 -54 60c4 29 28 52 66 52
c14 0 27 -3 37 -11c0 65 -45 95 -123 95zM154 219c-17 -121 9 -193 116 -193c97 0 148 76 168 192c19 115 -17 179 -105 179c-91 0 -161 -51 -179 -178z" />
    <glyph glyph-name="seven" unicode="7" horiz-adv-x="544" 
d="M145 585l-3 -61c26 32 66 49 107 49c39 0 73 -13 111 -45c47 -39 70 -58 105 -58c18 0 37 9 41 34c-6 -2 -12 -3 -17 -3c-22 0 -38 15 -37 39c0 28 21 42 43 42c23 0 46 -17 40 -61c-7 -46 -26 -82 -88 -140c-127 -121 -233 -213 -219 -459c3 -46 -18 -72 -51 -72
c-40 0 -60 29 -61 73c-5 174 103 320 259 435c35 26 75 51 103 89c-28 -22 -63 -31 -96 -31c-49 0 -82 16 -124 42c-30 18 -46 25 -69 25c-36 0 -63 -27 -74 -98c-8 1 -32 1 -42 0c17 58 30 142 31 200c9 -2 32 -2 41 0z" />
    <glyph glyph-name="eight" unicode="8" horiz-adv-x="573" 
d="M248 -15c-170 0 -234 69 -218 178c13 87 82 148 165 177c-61 44 -84 105 -68 185c22 111 119 185 246 185c133 0 192 -76 178 -166c-13 -79 -74 -134 -138 -168c99 -50 125 -119 112 -198c-19 -119 -128 -193 -277 -193zM281 298c-23 8 -43 16 -61 26
c-67 -31 -119 -83 -130 -160c-12 -83 43 -135 165 -135c117 0 194 51 204 110c11 64 -17 104 -178 159zM349 403c12 -4 23 -9 34 -13c55 36 100 87 111 155s-24 123 -129 123c-101 0 -164 -51 -174 -119c-11 -70 29 -104 158 -146z" />
    <glyph glyph-name="nine" unicode="9" horiz-adv-x="592" 
d="M192 -123c129 0 190 68 230 309c-42 -51 -105 -79 -180 -79c-147 0 -192 92 -171 218c23 145 130 241 278 241c145 0 224 -99 185 -336c-37 -230 -131 -389 -339 -389c-133 0 -192 67 -179 153c10 60 47 82 82 82c36 0 61 -24 55 -59c-5 -37 -34 -54 -70 -53
c-13 1 -23 4 -31 9c-2 -61 57 -96 140 -96zM445 330c18 113 -4 195 -103 195c-105 0 -153 -81 -171 -193c-19 -120 13 -181 99 -181c90 0 154 47 175 179z" />
    <glyph glyph-name="colon" unicode=":" horiz-adv-x="236" 
d="M204 356c-4 -36 -31 -56 -65 -56c-32 0 -57 19 -52 57c4 36 31 58 64 58c35 0 57 -23 53 -59zM156 114c-3 -36 -30 -57 -64 -57c-33 0 -57 20 -52 58c4 35 31 57 64 57c35 0 57 -22 52 -58z" />
    <glyph glyph-name="semicolon" unicode=";" horiz-adv-x="236" 
d="M77 52c-27 0 -43 17 -40 49c2 30 26 54 61 54c43 0 59 -35 55 -79c-6 -79 -71 -153 -181 -179l-6 21c84 23 153 74 158 158c-10 -16 -27 -24 -47 -24zM199 356c-4 -36 -30 -56 -64 -56c-33 0 -56 19 -52 57c4 36 31 58 64 58c35 0 56 -23 52 -59z" />
    <glyph glyph-name="less" unicode="&#x3c;" 
d="M135 238l4 23c101 56 229 133 317 195l25 -44c-86 -59 -226 -128 -313 -163c82 -41 182 -110 245 -165l-37 -42c-48 46 -181 154 -241 196z" />
    <glyph glyph-name="equal" unicode="=" 
d="M59 146c3 11 9 40 10 51c109 -2 331 -2 440 0c-3 -11 -9 -39 -10 -51c-108 2 -330 2 -440 0zM90 305c3 11 9 40 10 51c108 -2 330 -2 440 0c-3 -11 -9 -40 -10 -51c-108 2 -330 2 -440 0z" />
    <glyph glyph-name="greater" unicode="&#x3e;" 
d="M443 260l-4 -22c-80 -45 -237 -141 -317 -196l-24 41c83 57 233 133 312 166c-67 33 -188 115 -244 169l36 38c52 -53 180 -154 241 -196z" />
    <glyph glyph-name="question" unicode="?" horiz-adv-x="528" 
d="M351 276l13 -21c-37 -43 -92 -69 -142 -67c-34 1 -57 19 -58 50c0 36 28 61 111 102c100 47 144 97 150 183c6 93 -39 141 -125 141c-74 0 -147 -34 -171 -103c14 9 31 15 50 14c35 -1 53 -26 49 -61c-5 -36 -34 -59 -72 -59c-42 0 -71 27 -63 90c12 91 112 164 239 164
c143 0 196 -71 189 -163c-7 -99 -79 -163 -210 -222c-90 -40 -112 -58 -111 -81c0 -15 10 -26 31 -26c39 0 79 19 120 59zM284 52c-1 -41 -29 -63 -67 -63c-36 0 -64 21 -63 63c0 40 29 64 65 64c39 0 65 -25 65 -64z" />
    <glyph glyph-name="at" unicode="@" horiz-adv-x="827" 
d="M625 436c-16 -61 -42 -177 -54 -238c-13 -68 -9 -118 51 -118c64 0 102 69 119 144c53 229 -43 362 -259 362c-184 0 -324 -108 -364 -322c-49 -263 74 -377 270 -377c93 0 181 30 220 61l15 -18c-52 -46 -148 -75 -233 -75c-254 0 -384 158 -335 411
c44 225 222 351 426 351c236 0 350 -141 293 -395c-24 -108 -76 -179 -182 -179c-70 0 -115 33 -112 103c-32 -67 -88 -96 -138 -96c-73 0 -123 49 -106 164c23 157 110 234 196 234c60 0 94 -33 99 -83c16 23 33 50 41 71h53zM378 94c48 0 97 55 123 189
c18 88 -7 122 -51 122c-48 0 -100 -53 -124 -187c-15 -85 6 -124 52 -124z" />
    <glyph glyph-name="A" unicode="A" horiz-adv-x="857" 
d="M546 222c-79 2 -215 2 -291 0c-22 -39 -39 -71 -47 -88c-28 -55 -23 -86 43 -86h46l-6 -50s-96 2 -150 2c-53 0 -150 -2 -150 -2l6 50h35c58 0 83 16 118 79c50 89 267 477 312 567c1 0 28 -1 43 -1s42 1 42 1c26 -136 88 -432 121 -568c14 -60 27 -78 79 -78h45l-6 -50
s-108 2 -169 2c-60 0 -169 -2 -169 -2l7 50h44c59 0 73 26 62 88zM278 264c73 -1 186 -1 260 0c-21 116 -50 257 -70 345c-37 -69 -125 -226 -190 -345z" />
    <glyph glyph-name="B" unicode="B" horiz-adv-x="698" 
d="M636 180c-17 -113 -104 -182 -318 -182c0 0 -108 2 -156 2c-61 0 -168 -2 -168 -2l6 50h58c49 0 59 6 67 40c8 38 81 467 84 505s-8 49 -45 49h-68c2 7 6 41 7 47c16 0 148 -2 169 -2c46 0 122 1 157 1c175 0 247 -76 230 -182c-12 -75 -72 -132 -155 -152
c91 -19 146 -82 132 -174zM356 334h-97c-20 -120 -39 -236 -40 -252c-1 -34 9 -40 38 -40h67c138 0 195 50 211 147c16 94 -36 145 -179 145zM307 605c-4 -14 -23 -119 -42 -232h92c125 0 189 36 205 141c13 80 -34 134 -144 134h-61c-31 0 -43 -14 -50 -43z" />
    <glyph glyph-name="C" unicode="C" horiz-adv-x="733" 
d="M452 709c70 0 124 -20 169 -45c29 -17 51 -14 59 25c8 -1 44 -1 53 0c-29 -70 -49 -148 -55 -235h-48c20 129 -31 210 -178 210c-144 0 -252 -95 -289 -318c-42 -253 53 -320 181 -320c170 0 239 98 273 236c5 -1 17 -2 28 -2s23 1 29 2c-44 -195 -139 -284 -340 -284
c-203 0 -316 108 -273 368c42 257 195 363 391 363z" />
    <glyph glyph-name="D" unicode="D" horiz-adv-x="785" 
d="M442 688c237 0 339 -106 301 -358c-38 -244 -203 -331 -415 -331c-13 0 -127 1 -170 1c-42 0 -152 -1 -164 -2l6 50h59c46 0 56 6 65 40c9 38 81 466 85 505c3 39 -6 49 -45 49h-68l7 47c10 0 111 -2 170 -2c55 0 129 1 169 1zM221 92c-4 -38 8 -50 44 -50h58
c172 0 280 60 319 290c40 239 -22 315 -217 315h-65c-32 0 -46 -15 -55 -46c-8 -30 -79 -460 -84 -509z" />
    <glyph glyph-name="E" unicode="E" horiz-adv-x="720" 
d="M482 492l2 14h46c-15 -58 -24 -98 -34 -154c-12 -74 -14 -109 -18 -160h-44l2 14c14 94 -10 125 -113 125h-68c-19 -111 -36 -219 -37 -235c-2 -34 14 -48 48 -48h169c132 0 159 36 183 187l2 13h50c-16 -67 -33 -177 -43 -252c-42 3 -106 4 -190 4h-272
c-41 0 -155 -2 -169 -2l6 50h58c45 0 57 19 66 53c8 33 80 453 83 491c4 39 -8 50 -44 50h-67l6 48c16 0 148 -3 167 -3s139 1 279 1c43 0 135 1 183 7c-11 -56 -34 -182 -42 -238h-44l3 17c20 134 16 166 -113 166h-177c-35 0 -47 -8 -57 -48c-5 -18 -23 -116 -41 -221h84
c89 0 121 28 136 121z" />
    <glyph glyph-name="F" unicode="F" horiz-adv-x="704" 
d="M484 506h46c-15 -56 -24 -103 -34 -155c-9 -54 -14 -108 -18 -159h-44l3 19c13 84 -10 120 -106 120h-76c-19 -114 -37 -226 -38 -243c-3 -34 5 -40 51 -40h80l-6 -50s-109 2 -171 2s-160 -2 -175 -2l6 50h56c45 0 57 6 66 40c9 33 83 465 86 504c3 40 -8 50 -43 50h-69
l7 48c16 0 121 -3 167 -3c52 0 116 1 256 1c43 0 159 1 206 7c-11 -56 -36 -182 -43 -238h-45l5 23c25 148 1 160 -139 160h-152c-35 0 -47 -10 -57 -48c-5 -17 -23 -115 -41 -221h63c108 0 140 23 156 116z" />
    <glyph glyph-name="G" unicode="G" horiz-adv-x="807" 
d="M343 24c112 -1 213 68 234 193c10 64 5 88 -47 88h-52l5 46s96 -2 149 -2c54 0 149 2 149 2l-5 -46h-41c-32 0 -45 -15 -53 -53c-11 -54 -30 -170 -34 -252h-53s0 70 -7 124c-43 -78 -138 -146 -255 -146c-202 0 -315 108 -272 368c42 257 208 363 396 363
c74 0 126 -19 171 -45c30 -18 54 -14 62 25c9 -1 44 -1 53 0c-29 -70 -49 -148 -55 -235h-48c20 129 -23 210 -185 210c-149 0 -255 -94 -292 -318c-41 -247 47 -321 180 -322z" />
    <glyph glyph-name="H" unicode="H" horiz-adv-x="850" 
d="M-6 -2l6 50h59c46 0 56 5 66 40c9 34 84 465 86 504s-7 50 -43 50h-67l5 47s106 -2 165 -2s150 2 166 2l-6 -47h-67c-36 0 -50 -11 -60 -50c-5 -19 -24 -123 -43 -233c96 -1 258 -1 359 0c18 110 35 214 37 233c3 39 -8 50 -44 50h-67l5 47s107 -2 166 -2
c60 0 150 2 166 2l-5 -47h-69c-36 0 -50 -11 -60 -50s-85 -470 -87 -504s6 -40 52 -40h62l-5 -50s-106 2 -166 2c-59 0 -166 -2 -166 -2l5 50h61c46 0 56 6 66 40c4 16 23 119 42 228c-101 2 -264 2 -359 0c-19 -109 -36 -212 -37 -228c-2 -34 6 -40 52 -40h61l-6 -50
s-106 2 -165 2s-165 -2 -165 -2z" />
    <glyph glyph-name="I" unicode="I" horiz-adv-x="403" 
d="M-7 -2l5 50h59c46 0 57 5 66 40c10 34 84 465 87 504s-8 50 -44 50h-67l6 47s106 -2 165 -2c60 0 149 2 165 2l-5 -47h-67c-36 0 -50 -11 -60 -50c-11 -39 -84 -470 -87 -504s5 -40 51 -40h61l-5 -50s-106 2 -165 2s-165 -2 -165 -2z" />
    <glyph glyph-name="J" unicode="J" horiz-adv-x="573" 
d="M66 100c-16 0 -26 4 -34 9c6 -49 43 -87 118 -87c95 0 144 53 168 182c24 131 63 349 66 388s-8 50 -44 50h-59l6 47c6 0 105 -2 159 -2c57 0 143 2 159 2l-6 -47h-63c-36 0 -50 -10 -59 -50c-8 -39 -67 -387 -67 -387c-26 -154 -106 -229 -255 -229
c-127 0 -170 84 -157 159c7 47 37 81 84 81c39 0 60 -25 54 -61c-7 -44 -42 -55 -70 -55z" />
    <glyph glyph-name="K" unicode="K" horiz-adv-x="821" 
d="M-6 -2l7 50h57c48 0 58 9 68 48s82 461 85 495c3 33 -10 51 -46 51h-65l6 47s123 -2 166 -2c59 0 149 2 165 2l-6 -47h-67c-32 0 -52 -16 -60 -51c-5 -19 -29 -149 -50 -271l328 265c33 27 20 57 -26 57h-45l7 47s106 -2 166 -2c59 0 149 2 165 2l-6 -47h-44
c-64 0 -99 -14 -166 -67l-198 -157c49 -83 140 -230 188 -304c32 -49 40 -66 96 -66h39l-6 -50s-106 2 -166 2c-59 0 -166 -2 -166 -2l6 50h44c51 0 68 19 48 55c-35 62 -109 186 -156 257l-117 -93c-15 -86 -26 -159 -27 -171c-1 -32 5 -48 50 -48h63l-7 -50s-105 2 -165 2
c-59 0 -165 -2 -165 -2z" />
    <glyph glyph-name="L" unicode="L" horiz-adv-x="661" 
d="M437 689l-5 -47h-67c-37 0 -51 -11 -61 -50s-85 -472 -87 -504s11 -40 46 -40h109c114 0 159 41 186 158l10 46h50c-10 -44 -44 -212 -51 -256c-47 4 -149 4 -192 4h-218c-51 0 -163 -2 -163 -2l6 50h60c46 0 56 6 65 40c8 35 83 465 86 504s-7 50 -43 50h-67l5 47
s109 -2 166 -2c60 0 151 2 165 2z" />
    <glyph glyph-name="M" unicode="M" horiz-adv-x="977" 
d="M419 51c-36 128 -114 389 -158 534c-27 -148 -69 -390 -79 -474c-4 -37 5 -63 51 -63h59l-6 -50s-88 2 -141 2c-36 0 -145 -2 -145 -2l6 50h48c51 0 68 24 77 63c8 36 77 442 81 480c4 37 -11 51 -46 51h-61l6 47c41 -1 182 -1 222 0c33 -121 107 -371 149 -509
c91 145 244 387 318 509c52 -2 163 -1 207 0l-5 -47h-65c-36 0 -53 -15 -62 -54c-10 -39 -80 -453 -83 -487c-3 -35 5 -53 51 -53h64l-5 -50s-123 2 -166 2s-166 -2 -166 -2l6 50h58c47 0 61 19 68 54c15 85 60 345 83 487c-98 -154 -260 -410 -337 -538h-29z" />
    <glyph glyph-name="N" unicode="N" horiz-adv-x="825" 
d="M316 689c20 -43 203 -393 278 -538c28 153 70 406 73 441c4 39 -9 50 -45 50h-68l6 47c16 0 96 -2 150 -2c55 0 143 2 148 2l-6 -47h-68c-36 0 -50 -11 -60 -50c-11 -42 -78 -452 -100 -593h-63c-20 42 -213 412 -300 581c-31 -167 -75 -443 -79 -478
c-3 -34 14 -54 60 -54h55l-6 -50s-112 2 -149 2c-38 0 -147 -2 -147 -2l6 50h50c46 0 69 16 78 54c8 34 81 451 82 490c2 39 -10 50 -46 50h-67l6 47c36 -1 176 -1 212 0z" />
    <glyph glyph-name="O" unicode="O" horiz-adv-x="780" 
d="M345 21c151 0 254 100 292 326c40 235 -31 318 -182 318c-144 0 -253 -91 -291 -319c-41 -239 22 -325 181 -325zM338 -24c-220 0 -316 130 -277 370c40 240 202 363 401 363c217 0 316 -122 276 -362c-40 -243 -206 -371 -400 -371z" />
    <glyph glyph-name="P" unicode="P" horiz-adv-x="682" 
d="M346 244c-31 0 -79 1 -103 2c-12 -74 -22 -135 -23 -148c-2 -36 4 -50 56 -50h55l-5 -50s-102 2 -164 2c-59 0 -164 -2 -164 -2l6 50h53c46 0 61 11 70 45c9 35 81 462 86 500c4 38 -8 49 -45 49h-67l6 48c11 -1 96 -3 163 -3h152c171 0 276 -63 248 -231
c-24 -146 -153 -212 -324 -212zM305 587c-6 -24 -32 -168 -54 -294h91c141 0 209 54 228 164c21 133 -23 186 -162 186h-44c-31 0 -49 -15 -59 -56z" />
    <glyph glyph-name="Q" unicode="Q" horiz-adv-x="780" 
d="M338 -24c-220 0 -316 130 -277 370c40 240 202 363 401 363c217 0 316 -122 276 -362c-32 -191 -141 -310 -280 -353c-3 -99 9 -144 68 -144c55 0 83 39 88 113l35 -2c-12 -103 -52 -175 -166 -175c-109 0 -142 64 -118 191c-9 0 -18 -1 -27 -1zM344 215
c82 0 117 -55 116 -170c89 42 149 139 177 302c40 235 -31 318 -182 318c-144 0 -252 -91 -291 -319c-28 -167 -7 -259 63 -300c-11 17 -14 39 -11 64c7 58 53 105 128 105zM244 105c-10 -81 69 -89 132 -83c25 119 -1 161 -51 161c-45 0 -75 -31 -81 -78z" />
    <glyph glyph-name="R" unicode="R" horiz-adv-x="775" 
d="M567 186c-7 -117 3 -152 43 -152c35 0 68 61 69 174l42 3c3 -115 -28 -228 -142 -228c-112 0 -132 62 -117 194c14 116 -29 140 -122 140h-89c-18 -108 -34 -209 -34 -224c1 -34 11 -45 52 -45h61l-7 -50s-121 2 -164 2c-59 0 -165 -2 -165 -2l6 50h56c45 0 59 5 69 40
c10 34 83 465 86 504c4 39 -7 50 -43 50h-68c1 7 5 41 5 48c11 0 109 -3 167 -3c49 0 131 2 173 2c169 0 246 -71 226 -190c-16 -98 -103 -161 -197 -170c75 -20 98 -65 93 -143zM303 595c-5 -15 -25 -125 -45 -238h96c129 0 204 35 220 142c17 104 -27 147 -154 147h-50
c-42 0 -57 -15 -67 -51z" />
    <glyph glyph-name="S" unicode="S" horiz-adv-x="637" 
d="M358 664c-107 0 -168 -42 -180 -110c-14 -83 37 -118 182 -144c159 -28 233 -107 207 -249c-19 -107 -102 -180 -261 -180c-81 0 -155 23 -188 43c-29 17 -55 25 -67 -25c-10 1 -41 1 -51 0c29 72 47 147 52 240c6 -1 42 -1 48 0c-20 -143 53 -212 209 -212
c118 0 172 47 184 121c13 89 -51 130 -192 155c-148 27 -215 103 -192 230c20 115 118 180 258 176c74 -2 120 -24 153 -43c23 -13 47 -20 56 23c9 -1 41 -1 50 0c-33 -79 -44 -132 -48 -220c-7 1 -41 1 -47 0c20 129 -39 195 -173 195z" />
    <glyph glyph-name="T" unicode="T" horiz-adv-x="716" 
d="M592 641h-131c-26 -147 -89 -506 -93 -553c-3 -29 7 -40 50 -40h62l-6 -50s-122 2 -164 2c-59 0 -166 -2 -166 -2l6 50h60c44 0 57 5 65 40c11 46 71 406 95 553h-129c-56 0 -86 -27 -100 -90l-21 -94c-12 1 -31 1 -46 0c11 59 30 176 35 235c26 -2 79 -5 139 -5h352
c77 0 107 4 138 5c-15 -59 -37 -176 -45 -235c-11 1 -33 1 -44 0l12 94c8 58 -13 90 -69 90z" />
    <glyph glyph-name="U" unicode="U" horiz-adv-x="848" 
d="M147 283c5 26 46 261 50 303s-5 56 -43 56h-56l7 47s106 -2 158 -2c58 0 143 2 159 2l-6 -47h-56c-38 0 -53 -12 -66 -56c-10 -34 -40 -229 -52 -312c-30 -177 32 -236 157 -236s205 57 237 236c21 115 48 273 52 312c3 39 -11 56 -47 56h-53l6 47s90 -2 142 -2
c53 0 129 2 145 2l-6 -47h-53c-36 0 -54 -18 -61 -57c-9 -39 -51 -303 -51 -303c-33 -196 -140 -302 -326 -302c-192 0 -274 88 -237 303z" />
    <glyph glyph-name="V" unicode="V" horiz-adv-x="775" 
d="M289 566c18 -114 64 -351 92 -485c74 140 191 366 244 478c30 61 20 83 -38 83h-36l5 47s85 -2 134 -2c48 0 117 2 133 2l-5 -47h-31c-55 0 -76 -15 -113 -83c-73 -137 -227 -429 -296 -565c-16 1 -59 1 -74 0c-26 139 -83 441 -115 579c-11 51 -24 69 -77 69h-30l5 47
s99 -2 155 -2s139 2 154 2l-4 -47h-44c-48 0 -68 -19 -59 -76z" />
    <glyph glyph-name="W" unicode="W" horiz-adv-x="1101" 
d="M738 -6c-17 1 -65 1 -81 0c-15 127 -48 387 -68 537c-72 -150 -194 -410 -251 -537c-16 1 -65 1 -81 0c-15 139 -54 439 -72 578c-7 52 -18 70 -72 70h-35l6 47s115 -2 155 -2c55 0 140 2 154 2l-6 -47h-44c-51 0 -64 -16 -59 -70c4 -40 47 -393 58 -485
c62 128 174 371 227 486c23 50 7 69 -39 69h-31l6 47s85 -2 136 -2s126 2 140 2l-6 -47h-41c-37 0 -57 -20 -52 -64c12 -116 42 -358 60 -488c59 126 167 357 215 470c25 60 12 82 -43 82h-29l7 47s99 -2 130 -2c47 0 116 2 130 2l-6 -47h-40c-50 0 -73 -16 -106 -83
c-66 -136 -201 -429 -262 -565z" />
    <glyph glyph-name="X" unicode="X" horiz-adv-x="789" 
d="M475 125c-21 42 -53 106 -89 173c-54 -58 -143 -149 -159 -172c-41 -51 -29 -78 15 -78h43l-6 -50s-95 2 -149 2s-148 -2 -148 -2l6 50h24c71 0 106 28 169 91c24 24 136 139 186 195c-47 90 -97 181 -129 238c-27 49 -45 70 -110 70h-42l6 47s115 -2 180 -2
c64 0 175 2 175 2l-6 -47h-40c-53 0 -73 -31 -53 -74c21 -44 54 -107 89 -174c52 53 139 146 159 172c39 45 23 76 -32 76h-30l6 47s92 -2 146 -2c53 0 151 2 151 2l-6 -47h-29c-76 0 -94 -19 -148 -77c-34 -34 -152 -157 -198 -206c47 -90 97 -182 130 -238
c32 -55 56 -73 108 -73h44l-7 -50s-111 2 -175 2s-176 -2 -176 -2l6 50h48c49 0 66 24 41 77z" />
    <glyph glyph-name="Y" unicode="Y" horiz-adv-x="789" 
d="M659 572c-58 -79 -169 -237 -234 -332l-22 -142c-6 -39 -6 -51 50 -51h70l-7 -49s-110 2 -173 2c-62 0 -174 -2 -174 -2l7 49h67c52 0 60 12 66 51l23 139c-33 97 -91 255 -121 339c-18 51 -45 66 -106 66h-24l6 47s111 -2 174 -2c62 0 173 2 173 2l-6 -47h-48
c-63 0 -77 -20 -63 -68c19 -67 70 -205 99 -278c59 83 148 212 188 278c25 42 31 68 -38 68h-38l6 47s97 -2 152 -2c54 0 150 2 150 2l-6 -47h-28c-78 0 -102 -13 -143 -70z" />
    <glyph glyph-name="Z" unicode="Z" horiz-adv-x="668" 
d="M4 0l6 47c135 138 398 435 536 593l-222 -1c-121 0 -147 -13 -173 -131l-11 -51c-10 1 -37 1 -47 0c13 53 35 180 42 233c54 -2 116 -3 181 -3h357l-7 -47c-135 -140 -393 -432 -533 -592h266c101 0 135 24 154 136l10 59c11 -1 40 -1 51 0c-14 -59 -36 -187 -45 -246
c-56 2 -121 3 -172 3h-393z" />
    <glyph glyph-name="bracketleft" unicode="[" horiz-adv-x="259" 
d="M34 78l94 490c22 117 34 232 34 232c40 -2 130 -2 170 0l-6 -45h-38c-36 0 -50 -10 -62 -49c-11 -38 -149 -765 -153 -800c-3 -34 4 -49 50 -49h29l-7 -45c-39 2 -132 2 -171 0c0 0 30 107 60 266z" />
    <glyph glyph-name="backslash" unicode="\" horiz-adv-x="382" 
d="M303 -178c-46 209 -166 660 -230 868c14 -2 49 -2 63 0c46 -208 166 -659 230 -868c-14 2 -49 2 -63 0z" />
    <glyph glyph-name="bracketright" unicode="]" horiz-adv-x="263" 
d="M224 549l-90 -472c-29 -157 -38 -265 -38 -265c-39 2 -124 2 -163 0l5 45h29c43 0 55 15 65 49c9 35 147 762 151 800c3 39 -7 49 -43 49h-36l6 45c40 -2 136 -2 176 0c0 0 -37 -120 -62 -251z" />
    <glyph glyph-name="asciicircum" unicode="^" 
d="M356 709h18c26 -59 120 -232 153 -279l-41 -28c-31 36 -106 211 -125 284c-40 -73 -163 -240 -215 -284l-32 28c58 60 197 218 242 279z" />
    <glyph glyph-name="underscore" unicode="_" horiz-adv-x="500" 
d="M-4 -197c4 20 6 42 8 63c105 -2 393 -2 500 0c-4 -21 -7 -42 -9 -63c-105 2 -393 2 -499 0z" />
    <glyph glyph-name="grave" unicode="`" horiz-adv-x="532" 
d="M364 535l-7 -9c-54 33 -122 74 -156 99c-35 26 0 72 35 45c35 -28 85 -87 128 -135z" />
    <glyph glyph-name="a" unicode="a" horiz-adv-x="540" 
d="M527 161c-12 -113 -65 -178 -129 -178c-68 0 -96 31 -81 125c-40 -81 -100 -125 -163 -125c-78 0 -130 54 -110 204c24 182 115 282 219 282c67 0 106 -39 112 -106c18 31 42 69 56 97h39c-19 -75 -55 -237 -71 -319c-17 -87 -10 -117 20 -118c40 0 64 60 78 142zM183 23
c68 0 135 82 166 245c20 110 -4 161 -69 161c-66 0 -121 -61 -151 -241c-20 -118 -5 -165 54 -165z" />
    <glyph glyph-name="b" unicode="b" horiz-adv-x="507" 
d="M111 648h-36l3 41c39 -2 124 -2 163 0c-1 -33 -6 -57 -14 -95l-53 -261c38 88 97 136 164 136c78 0 134 -52 113 -202c-26 -186 -113 -284 -219 -284c-75 0 -115 49 -113 132c-26 -34 -52 -74 -68 -115h-22c31 144 94 454 119 598c6 34 2 50 -37 50zM312 429
c-68 0 -135 -78 -166 -242c-19 -110 4 -164 69 -164c66 0 120 61 151 243c20 118 5 163 -54 163z" />
    <glyph glyph-name="c" unicode="c" horiz-adv-x="450" 
d="M201 -17c-134 0 -181 84 -151 243c31 163 128 243 238 243c85 0 126 -40 123 -103c-1 -49 -27 -73 -63 -73c-30 0 -49 17 -45 50c4 35 41 50 72 40c-5 30 -31 52 -85 52c-73 0 -119 -44 -151 -208c-33 -166 2 -209 79 -209c64 0 108 38 132 119l34 -9
c-32 -92 -92 -145 -183 -145z" />
    <glyph glyph-name="d" unicode="d" horiz-adv-x="544" 
d="M492 594c-24 -107 -72 -337 -89 -444c-15 -93 -16 -127 18 -127c40 0 62 60 75 142l30 -4c-10 -99 -55 -178 -128 -178c-70 0 -92 38 -80 124c-39 -80 -97 -124 -160 -124c-79 0 -134 54 -114 204c24 182 116 282 219 282c60 0 96 -30 109 -82l41 211c7 33 1 50 -37 50
h-42l5 41c37 -2 127 -2 165 0c0 -27 -4 -56 -12 -95zM184 23c67 0 135 82 165 245c20 110 -3 161 -68 161c-66 0 -122 -61 -152 -241c-20 -118 -4 -165 55 -165z" />
    <glyph glyph-name="e" unicode="e" horiz-adv-x="456" 
d="M352 137l34 -9c-32 -92 -80 -145 -180 -145c-141 0 -186 82 -156 243c31 163 127 243 237 243c104 0 129 -64 117 -139c-21 -123 -167 -138 -271 -135c-21 -128 7 -177 79 -177c68 0 114 28 140 119zM137 218c126 -2 173 17 192 103c12 56 3 114 -51 114
c-64 0 -107 -44 -141 -217z" />
    <glyph glyph-name="f" unicode="f" horiz-adv-x="332" 
d="M347 678c-65 0 -109 -62 -138 -220l109 3l-4 -39l-111 2l-8 -65c-63 -454 -148 -562 -270 -562c-75 0 -101 42 -89 88c7 30 30 43 56 43c28 0 45 -19 39 -48s-36 -40 -64 -30c7 -16 23 -25 54 -25c97 0 123 99 153 344c12 103 29 186 47 254l-71 -1l4 39l78 -2
c64 205 151 248 220 248c58 0 90 -45 84 -99c-6 -52 -31 -76 -67 -76c-29 0 -53 16 -47 50c6 35 44 52 79 38c1 35 -15 58 -54 58z" />
    <glyph glyph-name="g" unicode="g" horiz-adv-x="496" 
d="M301 33l16 83c-37 -86 -96 -133 -161 -133c-78 0 -133 54 -113 204c25 182 115 282 219 282c65 0 104 -36 112 -98c28 22 63 57 73 124h25c-24 -106 -69 -331 -86 -430c-30 -182 -124 -268 -254 -268c-99 0 -135 56 -117 109c9 28 31 46 62 46s51 -21 45 -52
c-6 -35 -45 -49 -77 -34c7 -24 33 -41 88 -41c102 0 142 76 168 208zM183 23c67 0 135 82 165 245c20 110 -3 161 -68 161c-66 0 -122 -61 -152 -241c-20 -118 -4 -165 55 -165z" />
    <glyph glyph-name="h" unicode="h" horiz-adv-x="544" 
d="M491 165l31 -4c-9 -83 -47 -178 -133 -178c-78 0 -102 53 -73 161l32 122c32 121 16 163 -31 163c-70 0 -140 -89 -182 -301l-26 -130s-27 2 -41 2c-15 0 -40 -2 -40 -2c32 144 95 455 119 600c6 34 2 50 -37 50h-36l3 41c39 -2 124 -2 163 0c-2 -30 -7 -57 -14 -95
l-54 -273c44 106 108 148 177 148c92 0 121 -57 82 -204l-31 -117c-22 -87 -21 -125 16 -125c39 0 63 57 75 142z" />
    <glyph glyph-name="i" unicode="i" horiz-adv-x="323" 
d="M273 628c-2 -33 -29 -59 -64 -59c-33 0 -54 26 -52 59s28 58 64 58c33 0 54 -26 52 -58zM220 302l-47 -170c-22 -75 -13 -106 22 -107c39 0 61 55 75 140l30 -4c-8 -77 -42 -178 -135 -178c-69 0 -103 51 -77 145l52 184c24 86 14 117 -13 117c-42 0 -69 -64 -83 -146
l-31 3c9 88 52 183 130 183c90 0 105 -66 77 -167z" />
    <glyph glyph-name="j" unicode="j" horiz-adv-x="283" 
d="M273 628c-2 -33 -28 -59 -64 -59c-33 0 -54 26 -52 59c2 32 28 58 64 58c33 0 54 -26 52 -58zM215 300l-55 -279c-32 -163 -107 -224 -205 -224c-68 0 -95 35 -91 75c3 36 27 56 57 56c27 0 43 -16 41 -40c-2 -36 -37 -48 -64 -39c7 -15 23 -24 53 -24
c69 0 98 50 126 197l56 288c15 76 20 119 -12 119c-41 0 -67 -64 -81 -146l-31 3c12 100 55 183 134 183c92 0 90 -79 72 -169z" />
    <glyph glyph-name="k" unicode="k" horiz-adv-x="506" 
d="M453 165l30 -4c-5 -90 -39 -178 -127 -178c-77 0 -99 49 -83 118c18 77 8 114 -121 102c-4 -14 -8 -28 -11 -43l-32 -161s-27 1 -41 1c-15 0 -40 -1 -40 -1c31 144 95 455 119 599c6 34 2 50 -37 50h-36l3 41c39 -2 124 -2 163 0c-2 -30 -7 -60 -14 -95l-53 -268
c44 101 107 143 170 143c78 0 109 -41 92 -118c-13 -58 -82 -108 -153 -129c69 -8 84 -60 73 -129c-8 -45 3 -70 29 -70c42 0 63 66 69 142zM310 423c-57 0 -108 -43 -153 -201c119 3 182 49 198 120c12 53 -9 81 -45 81z" />
    <glyph glyph-name="l" unicode="l" horiz-adv-x="279" 
d="M226 594c-31 -147 -65 -326 -87 -446c-17 -92 -15 -124 21 -125c39 0 63 57 75 142l30 -4c-8 -85 -47 -178 -131 -178c-77 0 -101 53 -75 161c28 122 75 368 88 454c5 33 1 50 -38 50h-35l5 41c37 -2 121 -2 159 0c0 -27 -4 -56 -12 -95z" />
    <glyph glyph-name="m" unicode="m" horiz-adv-x="847" 
d="M39 283l-31 3c8 76 45 183 132 183c72 0 88 -56 78 -132c45 96 109 132 170 132c75 0 102 -38 92 -135c45 97 110 135 172 135c92 0 117 -56 82 -204l-30 -117c-23 -87 -22 -124 15 -125c39 0 62 60 75 142l30 -4c-8 -83 -46 -178 -132 -178c-78 0 -101 53 -73 161
l32 122c32 122 16 163 -31 163c-67 0 -130 -66 -183 -304l-28 -126s-26 1 -42 1c-15 0 -41 -1 -41 -1c16 65 50 202 63 267c25 123 13 163 -33 163c-67 0 -132 -66 -183 -304l-27 -126s-26 1 -41 1c-14 0 -41 -1 -41 -1c17 71 51 218 66 293c19 101 24 137 -10 137
c-38 0 -66 -59 -81 -146z" />
    <glyph glyph-name="n" unicode="n" horiz-adv-x="584" 
d="M39 283l-31 3c8 76 45 183 132 183c72 0 89 -54 78 -134c43 96 104 134 170 134c92 0 122 -57 83 -204l-31 -117c-22 -87 -21 -125 16 -125c39 0 63 57 75 142l30 -4c-8 -83 -46 -178 -132 -178c-78 0 -103 53 -73 161l33 122c33 122 14 163 -33 163
c-62 0 -134 -67 -183 -304l-26 -126s-27 1 -42 1c-14 0 -41 -1 -41 -1c13 48 56 245 66 293c22 101 24 137 -12 137c-34 0 -64 -55 -79 -146z" />
    <glyph glyph-name="o" unicode="o" horiz-adv-x="472" 
d="M192 17c75 0 131 101 154 273c15 111 -14 146 -73 146c-75 0 -132 -109 -154 -271c-15 -109 14 -148 73 -148zM190 -17c-106 0 -174 59 -153 212c17 120 91 274 236 274c103 0 170 -55 155 -192c-16 -145 -91 -294 -238 -294z" />
    <glyph glyph-name="p" unicode="p" horiz-adv-x="547" 
d="M137 469c73 0 88 -50 79 -125c39 81 97 125 161 125c78 0 134 -52 113 -200c-25 -187 -113 -286 -218 -286c-59 0 -96 30 -109 81l-29 -141c-9 -44 3 -57 51 -57h33l-7 -42s-85 2 -133 2s-133 -2 -133 -2l8 42h32c44 0 58 15 68 58c17 72 59 274 75 368
c19 110 21 137 -12 137c-35 0 -64 -64 -78 -146l-31 3c9 81 48 183 130 183zM351 429c-68 0 -135 -78 -166 -242c-20 -110 4 -164 69 -164c69 0 121 65 151 244c20 117 5 162 -54 162z" />
    <glyph glyph-name="q" unicode="q" horiz-adv-x="500" 
d="M474 498c-34 -143 -103 -493 -119 -594c-4 -26 -2 -38 35 -38h53c-2 -8 -6 -36 -8 -42c0 0 -88 2 -137 2s-137 -2 -137 -2c1 4 6 35 8 42h59c26 0 41 11 47 40l41 206c-38 -83 -96 -129 -160 -129c-78 0 -134 54 -113 204c25 182 116 282 219 282c65 0 103 -35 112 -97
c29 25 66 67 74 126h26zM183 23c67 0 135 82 165 245c20 110 -3 161 -68 161c-66 0 -122 -61 -152 -241c-20 -118 -4 -165 55 -165z" />
    <glyph glyph-name="r" unicode="r" horiz-adv-x="432" 
d="M295 345c6 37 53 50 81 35c-1 36 -20 57 -51 57c-42 0 -91 -31 -115 -144l-63 -294s-27 1 -41 1c-15 0 -41 -1 -41 -1c18 71 50 221 65 293c20 101 25 137 -8 137c-41 0 -69 -64 -83 -146l-31 3c9 81 48 183 130 183c56 0 79 -32 82 -79c29 57 73 79 113 79
c53 0 83 -35 75 -97c-7 -56 -34 -79 -69 -79c-29 0 -50 17 -44 52z" />
    <glyph glyph-name="s" unicode="s" horiz-adv-x="415" 
d="M257 440c-65 0 -108 -27 -120 -62c-17 -51 6 -85 94 -109c120 -33 146 -92 128 -166c-19 -72 -87 -120 -190 -120c-95 0 -167 39 -152 117c5 27 28 47 58 47s46 -21 40 -48c-6 -30 -38 -41 -64 -32c13 -32 58 -51 119 -51c65 0 116 22 129 66c12 49 -4 83 -105 111
c-105 30 -139 82 -119 161c18 69 87 115 184 115c86 0 142 -38 134 -105c-5 -35 -29 -51 -58 -51c-28 0 -44 19 -40 45c4 32 36 42 64 36c-14 29 -51 46 -102 46z" />
    <glyph glyph-name="t" unicode="t" horiz-adv-x="320" 
d="M235 165l30 -4c-10 -107 -47 -178 -132 -178c-83 0 -105 57 -86 158c12 62 44 200 60 281h-65l4 36c109 1 131 51 169 173h28c-13 -51 -36 -129 -45 -174l108 3l-5 -38l-110 1l-55 -279c-18 -93 -8 -119 25 -119c38 0 65 49 74 140z" />
    <glyph glyph-name="u" unicode="u" horiz-adv-x="584" 
d="M534 165l31 -4c-9 -80 -49 -178 -129 -178c-77 0 -95 42 -79 137c-43 -96 -105 -137 -170 -137c-92 0 -117 58 -80 206l29 117c23 92 18 123 -10 123c-42 0 -70 -64 -83 -146l-31 3c8 77 44 183 131 183c81 0 101 -69 77 -162l-31 -119c-31 -122 -18 -165 29 -165
c57 0 125 50 176 271l35 166s26 -1 41 -1c14 0 41 1 41 1c-18 -72 -52 -227 -66 -298c-22 -110 -20 -139 12 -139c40 0 64 60 77 142z" />
    <glyph glyph-name="v" unicode="v" horiz-adv-x="505" 
d="M45 283l-32 3c9 77 45 183 132 183c78 0 101 -64 72 -171l-33 -118c-31 -114 -23 -157 35 -157c93 0 164 151 185 264c7 36 10 64 9 93c-5 -3 -12 -4 -20 -4c-28 0 -54 15 -47 52c6 30 30 41 54 41c47 0 61 -38 50 -120c-15 -115 -103 -366 -262 -366
c-90 0 -122 52 -83 198l34 126c17 64 31 122 -11 122s-70 -64 -83 -146z" />
    <glyph glyph-name="w" unicode="w" horiz-adv-x="760" 
d="M182 -17c-92 0 -125 62 -78 206l38 117c29 91 19 123 -10 123c-41 0 -69 -64 -82 -146l-31 3c8 77 44 183 131 183c81 0 101 -71 73 -162l-36 -119c-36 -120 -21 -165 26 -165c55 0 116 54 154 218l51 220s28 -2 44 -2c15 0 42 2 42 2l-67 -269
c-32 -132 -17 -169 37 -169c91 0 163 151 184 264c6 36 10 64 10 93c-6 -3 -13 -4 -21 -4c-28 0 -53 15 -46 52c6 30 29 41 53 41c47 0 62 -38 51 -120c-15 -115 -103 -366 -263 -366c-70 0 -109 30 -99 129c-40 -90 -98 -129 -161 -129z" />
    <glyph glyph-name="x" unicode="x" horiz-adv-x="554" 
d="M488 163c-2 -96 -42 -180 -152 -180c-77 0 -116 38 -126 100c-23 -57 -66 -100 -126 -100c-70 0 -95 50 -79 108c9 34 33 56 65 56c27 0 44 -17 39 -49c-7 -33 -49 -41 -74 -27c-3 -28 8 -56 53 -56c81 0 113 107 135 195c31 125 41 219 -32 219c-68 0 -92 -71 -80 -147
l-29 4c-17 92 24 183 127 183c77 0 112 -40 121 -99c26 58 68 99 130 99c57 0 86 -35 78 -97c-7 -56 -33 -79 -69 -79c-28 0 -50 17 -43 52c8 40 53 48 81 34c1 37 -19 58 -54 58c-76 0 -109 -79 -137 -194c-32 -128 -28 -220 40 -220c71 0 96 61 103 140h29z" />
    <glyph glyph-name="y" unicode="y" horiz-adv-x="545" 
d="M43 283l-31 3c8 77 45 183 132 183c81 0 104 -55 75 -162l-31 -119c-32 -123 -15 -165 30 -165c54 0 134 57 178 281l31 157s26 -2 41 -2c14 0 41 2 41 2c-8 -34 -77 -369 -83 -403c-32 -175 -128 -261 -258 -261c-99 0 -135 56 -118 109c9 28 31 46 63 46
c31 0 51 -21 45 -52c-6 -35 -45 -50 -78 -34c8 -25 35 -41 89 -41c101 0 146 76 172 208l18 93c-42 -100 -106 -143 -173 -143c-91 0 -117 54 -80 206l29 117c22 91 18 123 -11 123c-44 0 -68 -64 -81 -146z" />
    <glyph glyph-name="z" unicode="z" horiz-adv-x="468" 
d="M98 283l-28 3c-9 139 53 194 121 194c42 0 74 -16 110 -57c40 -47 80 -69 108 -43c-17 8 -25 25 -25 45c-1 30 13 44 31 44c20 0 33 -14 32 -43c0 -42 -20 -72 -125 -149c-39 -28 -147 -97 -217 -159c43 22 88 17 118 -7c44 -34 63 -49 100 -48c55 1 84 31 85 102l27 -4
c-4 -125 -52 -177 -126 -178c-55 -1 -88 17 -126 65c-39 50 -86 54 -116 32l-7 -9c15 -10 20 -28 20 -45c0 -27 -12 -42 -32 -42c-17 0 -32 13 -32 43c0 48 34 85 128 158c56 44 160 108 221 154c-44 -16 -84 -1 -124 32c-33 27 -52 38 -75 38c-50 0 -72 -37 -68 -126z" />
    <glyph glyph-name="braceleft" unicode="{" horiz-adv-x="300" 
d="M51 322l3 29h9c91 0 71 142 62 208c-25 169 47 261 217 274l1 -28c-100 -13 -139 -48 -144 -242c-2 -85 -3 -217 -108 -226c101 -9 60 -138 36 -221c-48 -168 -54 -237 59 -249l-7 -27c-143 0 -219 93 -128 274c37 71 100 208 8 208h-8z" />
    <glyph glyph-name="bar" unicode="|" horiz-adv-x="300" 
d="M61 -133c0 5 5 10 10 10s9 -5 9 -10c0 -4 -4 -9 -9 -9s-10 5 -10 9zM70 -47c0 8 7 14 15 14s15 -6 15 -14s-7 -15 -15 -15s-15 7 -15 15zM80 38c0 10 9 19 19 19c11 0 19 -9 19 -19c0 -11 -8 -19 -19 -19c-10 0 -19 8 -19 19zM90 123c0 13 11 23 24 23
c12 0 23 -10 23 -23s-11 -23 -23 -23c-13 0 -24 10 -24 23zM102 208c0 14 12 27 26 27s26 -13 26 -27s-12 -26 -26 -26s-26 12 -26 26zM115 294c0 15 12 27 28 27c15 0 27 -12 27 -27s-12 -28 -27 -28c-16 0 -28 13 -28 28zM129 379c0 15 12 27 27 27c16 0 28 -12 28 -27
s-12 -28 -28 -28c-15 0 -27 13 -27 28zM145 464c0 14 12 26 26 26s26 -12 26 -26s-12 -26 -26 -26s-26 12 -26 26zM162 549c0 13 11 24 23 24c13 0 24 -11 24 -24s-11 -23 -24 -23c-12 0 -23 10 -23 23zM181 634c0 11 8 19 19 19c10 0 19 -8 19 -19c0 -10 -9 -18 -19 -18
c-11 0 -19 8 -19 18zM199 719c0 9 7 15 15 15s15 -6 15 -15c0 -7 -7 -14 -15 -14s-15 7 -15 14zM219 805c0 5 4 9 9 9s10 -4 10 -9s-5 -9 -10 -9s-9 4 -9 9z" />
    <glyph glyph-name="braceright" unicode="}" horiz-adv-x="300" 
d="M269 351l-4 -29h-9c-92 0 -83 -117 -64 -208c36 -185 -69 -262 -212 -274l-2 27c114 17 139 73 142 249c1 97 5 212 110 221c-103 9 -60 141 -36 226c55 194 32 231 -57 243l1 27c157 0 207 -123 127 -274c-35 -66 -96 -208 -5 -208h9z" />
    <glyph glyph-name="asciitilde" unicode="~" horiz-adv-x="532" 
d="M469 680l23 3c22 -119 -43 -166 -114 -162c-53 4 -77 30 -101 74c-26 51 -38 72 -72 72s-61 -32 -53 -118l-21 -3c-24 119 39 166 113 161c47 -2 71 -22 99 -73c27 -49 41 -72 74 -72c37 0 61 34 52 118z" />
    <glyph glyph-name="Adieresis" unicode="&#xc4;" horiz-adv-x="857" 
d="M546 222c-79 2 -215 2 -291 0c-22 -39 -39 -71 -47 -88c-28 -55 -23 -86 43 -86h46l-6 -50s-96 2 -150 2c-53 0 -150 -2 -150 -2l6 50h35c58 0 83 16 118 79c50 89 267 477 312 567c1 0 28 -1 43 -1s42 1 42 1c26 -136 88 -432 121 -568c14 -60 27 -78 79 -78h45l-6 -50
s-108 2 -169 2c-60 0 -169 -2 -169 -2l7 50h44c59 0 73 26 62 88zM278 264c73 -1 186 -1 260 0c-21 116 -50 257 -70 345c-37 -69 -125 -226 -190 -345zM474 817c-3 -30 -27 -51 -56 -51c-27 0 -48 20 -45 51s27 50 56 50c27 0 48 -19 45 -50zM654 817
c-4 -31 -28 -51 -56 -51s-48 20 -45 51c2 31 27 50 55 50c27 0 48 -18 46 -50z" />
    <glyph glyph-name="Aring" unicode="&#xc5;" horiz-adv-x="857" 
d="M546 222c-79 2 -215 2 -291 0c-22 -39 -39 -71 -47 -88c-28 -55 -23 -86 43 -86h46l-6 -50s-96 2 -150 2c-53 0 -150 -2 -150 -2l6 50h35c58 0 83 16 118 79c50 89 267 477 312 567c1 0 28 -1 43 -1s42 1 42 1c26 -136 88 -432 121 -568c14 -60 27 -78 79 -78h45l-6 -50
s-108 2 -169 2c-60 0 -169 -2 -169 -2l7 50h44c59 0 73 26 62 88zM278 264c73 -1 186 -1 260 0c-21 116 -50 257 -70 345c-37 -69 -125 -226 -190 -345zM468 845c-4 -34 14 -54 43 -54c30 0 51 20 55 54c3 34 -16 52 -44 52c-30 0 -51 -18 -54 -52zM436 845
c5 49 40 79 88 79c47 0 78 -32 73 -79c-5 -50 -41 -81 -89 -81c-47 0 -78 33 -72 81z" />
    <glyph glyph-name="Ccedilla" unicode="&#xc7;" horiz-adv-x="733" 
d="M250 -112l-9 18c41 22 61 44 73 73c-191 7 -295 115 -253 367c42 257 195 363 391 363c70 0 124 -20 169 -45c29 -17 51 -14 59 25c8 -1 44 -1 53 0c-29 -70 -49 -148 -55 -235h-48c20 129 -31 210 -178 210c-144 0 -252 -95 -289 -318c-42 -253 53 -320 181 -320
c170 0 239 98 273 236c5 -1 17 -2 28 -2s23 1 29 2c-44 -195 -139 -283 -339 -284c-5 -20 -16 -41 -37 -58c55 9 114 -14 110 -76c-4 -57 -49 -92 -120 -92c-55 0 -85 26 -99 56l19 15c16 -23 39 -37 71 -37c42 0 65 23 67 59c3 42 -40 64 -96 43z" />
    <glyph glyph-name="Eacute" unicode="&#xc9;" horiz-adv-x="720" 
d="M423 756l-7 9c42 48 94 106 128 135c35 26 70 -20 35 -45c-34 -25 -102 -66 -156 -99zM482 492l2 14h46c-15 -58 -24 -98 -34 -154c-12 -74 -14 -109 -18 -160h-44l2 14c14 94 -10 125 -113 125h-68c-19 -111 -36 -219 -37 -235c-2 -34 14 -48 48 -48h169
c132 0 159 36 183 187l2 13h50c-16 -67 -33 -177 -43 -252c-42 3 -106 4 -190 4h-272c-41 0 -155 -2 -169 -2l6 50h58c45 0 57 19 66 53c8 33 80 453 83 491c4 39 -8 50 -44 50h-67l6 48c16 0 148 -3 167 -3s139 1 279 1c43 0 135 1 183 7c-11 -56 -34 -182 -42 -238h-44
l3 17c20 134 16 166 -113 166h-177c-35 0 -47 -8 -57 -48c-5 -18 -23 -116 -41 -221h84c89 0 121 28 136 121z" />
    <glyph glyph-name="Ntilde" unicode="&#xd1;" horiz-adv-x="825" 
d="M316 689c20 -43 203 -393 278 -538c28 153 70 406 73 441c4 39 -9 50 -45 50h-68l6 47c16 0 96 -2 150 -2c55 0 143 2 148 2l-6 -47h-68c-36 0 -50 -11 -60 -50c-11 -42 -78 -452 -100 -593h-63c-20 42 -213 412 -300 581c-31 -167 -75 -443 -79 -478
c-3 -34 14 -54 60 -54h55l-6 -50s-112 2 -149 2c-38 0 -147 -2 -147 -2l6 50h50c46 0 69 16 78 54c8 34 81 451 82 490c2 39 -10 50 -46 50h-67l6 47c36 -1 176 -1 212 0zM651 882l19 2c19 -100 -36 -140 -96 -136c-45 3 -65 25 -85 62c-22 43 -32 61 -61 61
c-28 0 -51 -27 -44 -100l-18 -2c-20 100 33 140 95 136c40 -2 60 -19 84 -62c22 -41 34 -61 62 -61c31 0 51 29 44 100z" />
    <glyph glyph-name="Odieresis" unicode="&#xd6;" horiz-adv-x="780" 
d="M441 817c-3 -30 -27 -51 -56 -51c-27 0 -48 20 -45 51s27 50 56 50c27 0 48 -19 45 -50zM621 817c-4 -31 -28 -51 -56 -51s-48 20 -45 51c2 31 27 50 55 50c27 0 48 -18 46 -50zM345 21c151 0 254 100 292 326c40 235 -31 318 -182 318c-144 0 -253 -91 -291 -319
c-41 -239 22 -325 181 -325zM338 -24c-220 0 -316 130 -277 370c40 240 202 363 401 363c217 0 316 -122 276 -362c-40 -243 -206 -371 -400 -371z" />
    <glyph glyph-name="Udieresis" unicode="&#xdc;" horiz-adv-x="848" 
d="M488 817c-3 -30 -27 -51 -56 -51c-27 0 -48 20 -45 51s27 50 56 50c27 0 48 -19 45 -50zM668 817c-4 -31 -28 -51 -56 -51s-48 20 -45 51c2 31 27 50 55 50c27 0 48 -18 46 -50zM147 283c5 26 46 261 50 303s-5 56 -43 56h-56l7 47s106 -2 158 -2c58 0 143 2 159 2
l-6 -47h-56c-38 0 -53 -12 -66 -56c-10 -34 -40 -229 -52 -312c-30 -177 32 -236 157 -236s205 57 237 236c21 115 48 273 52 312c3 39 -11 56 -47 56h-53l6 47s90 -2 142 -2c53 0 129 2 145 2l-6 -47h-53c-36 0 -54 -18 -61 -57c-9 -39 -51 -303 -51 -303
c-33 -196 -140 -302 -326 -302c-192 0 -274 88 -237 303z" />
    <glyph glyph-name="aacute" unicode="&#xe1;" horiz-adv-x="540" 
d="M527 161c-12 -113 -65 -178 -129 -178c-68 0 -96 31 -81 125c-40 -81 -100 -125 -163 -125c-78 0 -130 54 -110 204c24 182 115 282 219 282c67 0 106 -39 112 -106c18 31 42 69 56 97h39c-19 -75 -55 -237 -71 -319c-17 -87 -10 -117 20 -118c40 0 64 60 78 142zM183 23
c68 0 135 82 166 245c20 110 -4 161 -69 161c-66 0 -121 -61 -151 -241c-20 -118 -5 -165 54 -165zM278 526l-7 9c42 48 94 106 128 135c35 26 70 -20 35 -45c-34 -25 -102 -66 -156 -99z" />
    <glyph glyph-name="agrave" unicode="&#xe0;" horiz-adv-x="540" 
d="M527 161c-12 -113 -65 -178 -129 -178c-68 0 -96 31 -81 125c-40 -81 -100 -125 -163 -125c-78 0 -130 54 -110 204c24 182 115 282 219 282c67 0 106 -39 112 -106c18 31 42 69 56 97h39c-19 -75 -55 -237 -71 -319c-17 -87 -10 -117 20 -118c40 0 64 60 78 142zM183 23
c68 0 135 82 166 245c20 110 -4 161 -69 161c-66 0 -121 -61 -151 -241c-20 -118 -5 -165 54 -165zM347 535l-7 -9c-54 33 -122 74 -156 99c-35 26 0 72 35 45c35 -28 85 -87 128 -135z" />
    <glyph glyph-name="acircumflex" unicode="&#xe2;" horiz-adv-x="540" 
d="M527 161c-12 -113 -65 -178 -129 -178c-68 0 -96 31 -81 125c-40 -81 -100 -125 -163 -125c-78 0 -130 54 -110 204c24 182 115 282 219 282c67 0 106 -39 112 -106c18 31 42 69 56 97h39c-19 -75 -55 -237 -71 -319c-17 -87 -10 -117 20 -118c40 0 64 60 78 142zM183 23
c68 0 135 82 166 245c20 110 -4 161 -69 161c-66 0 -121 -61 -151 -241c-20 -118 -5 -165 54 -165zM465 533l-9 -8c-34 23 -74 64 -101 99c-34 -32 -107 -77 -145 -100l-7 9c32 47 97 110 136 140h42c29 -29 64 -92 84 -140z" />
    <glyph glyph-name="adieresis" unicode="&#xe4;" horiz-adv-x="540" 
d="M527 161c-12 -113 -65 -178 -129 -178c-68 0 -96 31 -81 125c-40 -81 -100 -125 -163 -125c-78 0 -130 54 -110 204c24 182 115 282 219 282c67 0 106 -39 112 -106c18 31 42 69 56 97h39c-19 -75 -55 -237 -71 -319c-17 -87 -10 -117 20 -118c40 0 64 60 78 142zM183 23
c68 0 135 82 166 245c20 110 -4 161 -69 161c-66 0 -121 -61 -151 -241c-20 -118 -5 -165 54 -165zM296 587c-3 -30 -27 -51 -56 -51c-27 0 -48 20 -45 51s27 50 56 50c27 0 48 -19 45 -50zM476 587c-4 -31 -28 -51 -56 -51s-48 20 -45 51c2 31 27 50 55 50
c27 0 48 -18 46 -50z" />
    <glyph glyph-name="atilde" unicode="&#xe3;" horiz-adv-x="540" 
d="M527 161c-12 -113 -65 -178 -129 -178c-68 0 -96 31 -81 125c-40 -81 -100 -125 -163 -125c-78 0 -130 54 -110 204c24 182 115 282 219 282c67 0 106 -39 112 -106c18 31 42 69 56 97h39c-19 -75 -55 -237 -71 -319c-17 -87 -10 -117 20 -118c40 0 64 60 78 142zM183 23
c68 0 135 82 166 245c20 110 -4 161 -69 161c-66 0 -121 -61 -151 -241c-20 -118 -5 -165 54 -165zM486 652l19 2c19 -100 -36 -140 -96 -136c-45 3 -65 25 -85 62c-22 43 -32 61 -61 61c-28 0 -51 -27 -44 -100l-18 -2c-20 100 33 140 95 136c40 -2 60 -19 84 -62
c22 -41 34 -61 62 -61c31 0 51 29 44 100z" />
    <glyph glyph-name="aring" unicode="&#xe5;" horiz-adv-x="540" 
d="M527 161c-12 -113 -65 -178 -129 -178c-68 0 -96 31 -81 125c-40 -81 -100 -125 -163 -125c-78 0 -130 54 -110 204c24 182 115 282 219 282c67 0 106 -39 112 -106c18 31 42 69 56 97h39c-19 -75 -55 -237 -71 -319c-17 -87 -10 -117 20 -118c40 0 64 60 78 142zM183 23
c68 0 135 82 166 245c20 110 -4 161 -69 161c-66 0 -121 -61 -151 -241c-20 -118 -5 -165 54 -165zM275 605c-4 -34 14 -54 43 -54c30 0 51 20 55 54c3 34 -16 52 -44 52c-30 0 -51 -18 -54 -52zM243 605c5 49 40 79 88 79c47 0 78 -32 73 -79c-5 -50 -41 -81 -89 -81
c-47 0 -78 33 -72 81z" />
    <glyph glyph-name="ccedilla" unicode="&#xe7;" horiz-adv-x="450" 
d="M119 -112l-9 18c43 23 63 47 74 78c-121 7 -163 89 -134 242c31 163 128 243 238 243c85 0 126 -40 123 -103c-1 -49 -27 -73 -63 -73c-30 0 -49 17 -45 50c4 35 41 50 72 40c-5 30 -31 52 -85 52c-73 0 -119 -44 -151 -208c-33 -166 2 -209 79 -209c64 0 108 38 132 119
l34 -9c-32 -91 -90 -143 -179 -145c-4 -21 -15 -45 -38 -63c55 9 114 -14 110 -76c-4 -57 -49 -92 -120 -92c-55 0 -85 26 -99 56l19 15c16 -23 39 -37 71 -37c42 0 65 23 67 59c3 42 -40 64 -96 43z" />
    <glyph glyph-name="eacute" unicode="&#xe9;" horiz-adv-x="456" 
d="M262 526l-7 9c42 48 94 106 128 135c35 26 70 -20 35 -45c-34 -25 -102 -66 -156 -99zM352 137l34 -9c-32 -92 -80 -145 -180 -145c-141 0 -186 82 -156 243c31 163 127 243 237 243c104 0 129 -64 117 -139c-21 -123 -167 -138 -271 -135c-21 -128 7 -177 79 -177
c68 0 114 28 140 119zM137 218c126 -2 173 17 192 103c12 56 3 114 -51 114c-64 0 -107 -44 -141 -217z" />
    <glyph glyph-name="egrave" unicode="&#xe8;" horiz-adv-x="456" 
d="M352 137l34 -9c-32 -92 -80 -145 -180 -145c-141 0 -186 82 -156 243c31 163 127 243 237 243c104 0 129 -64 117 -139c-21 -123 -167 -138 -271 -135c-21 -128 7 -177 79 -177c68 0 114 28 140 119zM137 218c126 -2 173 17 192 103c12 56 3 114 -51 114
c-64 0 -107 -44 -141 -217zM358 535l-7 -9c-54 33 -122 74 -156 99c-35 26 0 72 35 45c35 -28 85 -87 128 -135z" />
    <glyph glyph-name="ecircumflex" unicode="&#xea;" horiz-adv-x="456" 
d="M416 533l-9 -8c-34 23 -74 64 -101 99c-34 -32 -107 -77 -145 -100l-7 9c32 47 97 110 136 140h42c29 -29 64 -92 84 -140zM352 137l34 -9c-32 -92 -80 -145 -180 -145c-141 0 -186 82 -156 243c31 163 127 243 237 243c104 0 129 -64 117 -139
c-21 -123 -167 -138 -271 -135c-21 -128 7 -177 79 -177c68 0 114 28 140 119zM137 218c126 -2 173 17 192 103c12 56 3 114 -51 114c-64 0 -107 -44 -141 -217z" />
    <glyph glyph-name="edieresis" unicode="&#xeb;" horiz-adv-x="456" 
d="M266 587c-3 -30 -27 -51 -56 -51c-27 0 -48 20 -45 51s27 50 56 50c27 0 48 -19 45 -50zM446 587c-4 -31 -28 -51 -56 -51s-48 20 -45 51c2 31 27 50 55 50c27 0 48 -18 46 -50zM352 137l34 -9c-32 -92 -80 -145 -180 -145c-141 0 -186 82 -156 243
c31 163 127 243 237 243c104 0 129 -64 117 -139c-21 -123 -167 -138 -271 -135c-21 -128 7 -177 79 -177c68 0 114 28 140 119zM137 218c126 -2 173 17 192 103c12 56 3 114 -51 114c-64 0 -107 -44 -141 -217z" />
    <glyph glyph-name="iacute" unicode="&#xed;" horiz-adv-x="323" 
d="M168 526l-7 9c42 48 94 106 128 135c35 26 70 -20 35 -45c-34 -25 -102 -66 -156 -99zM220 302l-47 -170c-20 -76 -6 -106 22 -107c43 0 65 58 78 140l30 -4c-8 -80 -45 -178 -132 -178c-77 0 -109 51 -83 145l52 184c24 86 14 117 -13 117c-42 0 -69 -64 -83 -146l-31 3
c9 88 52 183 130 183c90 0 105 -66 77 -167z" />
    <glyph glyph-name="igrave" unicode="&#xec;" horiz-adv-x="323" 
d="M220 302l-47 -170c-20 -76 -6 -106 22 -107c43 0 65 58 78 140l30 -4c-8 -80 -45 -178 -132 -178c-77 0 -109 51 -83 145l52 184c24 86 14 117 -13 117c-42 0 -69 -64 -83 -146l-31 3c9 88 52 183 130 183c90 0 105 -66 77 -167zM239 535l-7 -9c-54 33 -122 74 -156 99
c-35 26 0 72 35 45c35 -28 85 -87 128 -135z" />
    <glyph glyph-name="icircumflex" unicode="&#xee;" horiz-adv-x="323" 
d="M318 533l-9 -8c-34 23 -74 64 -101 99c-34 -32 -107 -77 -145 -100l-7 9c32 47 97 110 136 140h42c29 -29 64 -92 84 -140zM220 302l-47 -170c-20 -76 -6 -106 22 -107c43 0 65 58 78 140l30 -4c-8 -80 -45 -178 -132 -178c-77 0 -109 51 -83 145l52 184
c24 86 14 117 -13 117c-42 0 -69 -64 -83 -146l-31 3c9 88 52 183 130 183c90 0 105 -66 77 -167z" />
    <glyph glyph-name="idieresis" unicode="&#xef;" horiz-adv-x="323" 
d="M172 587c-3 -30 -27 -51 -56 -51c-27 0 -48 20 -45 51s27 50 56 50c27 0 48 -19 45 -50zM352 587c-4 -31 -28 -51 -56 -51s-48 20 -45 51c2 31 27 50 55 50c27 0 48 -18 46 -50zM220 302l-47 -170c-20 -76 -6 -106 22 -107c43 0 65 58 78 140l30 -4
c-8 -80 -45 -178 -132 -178c-77 0 -109 51 -83 145l52 184c24 86 14 117 -13 117c-42 0 -69 -64 -83 -146l-31 3c9 88 52 183 130 183c90 0 105 -66 77 -167z" />
    <glyph glyph-name="ntilde" unicode="&#xf1;" horiz-adv-x="584" 
d="M39 283l-31 3c8 76 45 183 132 183c72 0 89 -54 78 -134c43 96 104 134 170 134c92 0 122 -57 83 -204l-31 -117c-22 -87 -21 -125 16 -125c39 0 63 57 75 142l30 -4c-8 -83 -46 -178 -132 -178c-78 0 -103 53 -73 161l33 122c33 122 14 163 -33 163
c-62 0 -134 -67 -183 -304l-26 -126s-27 1 -42 1c-14 0 -41 -1 -41 -1c13 48 56 245 66 293c22 101 24 137 -12 137c-34 0 -64 -55 -79 -146zM493 652l19 2c19 -100 -36 -140 -96 -136c-45 3 -65 25 -85 62c-22 43 -32 61 -61 61c-28 0 -51 -27 -44 -100l-18 -2
c-20 100 33 140 95 136c40 -2 60 -19 84 -62c22 -41 34 -61 62 -61c31 0 51 29 44 100z" />
    <glyph glyph-name="oacute" unicode="&#xf3;" horiz-adv-x="472" 
d="M257 526l-7 9c42 48 94 106 128 135c35 26 70 -20 35 -45c-34 -25 -102 -66 -156 -99zM192 17c75 0 131 101 154 273c15 111 -14 146 -73 146c-75 0 -132 -109 -154 -271c-15 -109 14 -148 73 -148zM190 -17c-106 0 -174 59 -153 212c17 120 91 274 236 274
c103 0 170 -55 155 -192c-16 -145 -91 -294 -238 -294z" />
    <glyph glyph-name="ograve" unicode="&#xf2;" horiz-adv-x="472" 
d="M192 17c75 0 131 101 154 273c15 111 -14 146 -73 146c-75 0 -132 -109 -154 -271c-15 -109 14 -148 73 -148zM190 -17c-106 0 -174 59 -153 212c17 120 91 274 236 274c103 0 170 -55 155 -192c-16 -145 -91 -294 -238 -294zM346 535l-7 -9c-54 33 -122 74 -156 99
c-35 26 0 72 35 45c35 -28 85 -87 128 -135z" />
    <glyph glyph-name="ocircumflex" unicode="&#xf4;" horiz-adv-x="472" 
d="M427 533l-9 -8c-34 23 -74 64 -101 99c-34 -32 -107 -77 -145 -100l-7 9c32 47 97 110 136 140h42c29 -29 64 -92 84 -140zM192 17c75 0 131 101 154 273c15 111 -14 146 -73 146c-75 0 -132 -109 -154 -271c-15 -109 14 -148 73 -148zM190 -17c-106 0 -174 59 -153 212
c17 120 91 274 236 274c103 0 170 -55 155 -192c-16 -145 -91 -294 -238 -294z" />
    <glyph glyph-name="odieresis" unicode="&#xf6;" horiz-adv-x="472" 
d="M271 587c-3 -30 -27 -51 -56 -51c-27 0 -48 20 -45 51s27 50 56 50c27 0 48 -19 45 -50zM451 587c-4 -31 -28 -51 -56 -51s-48 20 -45 51c2 31 27 50 55 50c27 0 48 -18 46 -50zM192 17c75 0 131 101 154 273c15 111 -14 146 -73 146c-75 0 -132 -109 -154 -271
c-15 -109 14 -148 73 -148zM190 -17c-106 0 -174 59 -153 212c17 120 91 274 236 274c103 0 170 -55 155 -192c-16 -145 -91 -294 -238 -294z" />
    <glyph glyph-name="otilde" unicode="&#xf5;" horiz-adv-x="472" 
d="M192 17c75 0 131 101 154 273c15 111 -14 146 -73 146c-75 0 -132 -109 -154 -271c-15 -109 14 -148 73 -148zM190 -17c-106 0 -174 59 -153 212c17 120 91 274 236 274c103 0 170 -55 155 -192c-16 -145 -91 -294 -238 -294zM442 652l19 2c19 -100 -36 -140 -96 -136
c-45 3 -65 25 -85 62c-22 43 -32 61 -61 61c-28 0 -51 -27 -44 -100l-18 -2c-20 100 33 140 95 136c40 -2 60 -19 84 -62c22 -41 34 -61 62 -61c31 0 51 29 44 100z" />
    <glyph glyph-name="uacute" unicode="&#xfa;" horiz-adv-x="584" 
d="M296 526l-7 9c42 48 94 106 128 135c35 26 70 -20 35 -45c-34 -25 -102 -66 -156 -99zM534 165l31 -4c-9 -80 -49 -178 -129 -178c-77 0 -95 42 -79 137c-43 -96 -105 -137 -170 -137c-92 0 -117 58 -80 206l29 117c23 92 18 123 -10 123c-42 0 -70 -64 -83 -146l-31 3
c8 77 44 183 131 183c81 0 101 -69 77 -162l-31 -119c-31 -122 -18 -165 29 -165c57 0 125 50 176 271l35 166s26 -1 41 -1c14 0 41 1 41 1c-18 -72 -52 -227 -66 -298c-22 -110 -20 -139 12 -139c40 0 64 60 77 142z" />
    <glyph glyph-name="ugrave" unicode="&#xf9;" horiz-adv-x="584" 
d="M534 165l31 -4c-9 -80 -49 -178 -129 -178c-77 0 -95 42 -79 137c-43 -96 -105 -137 -170 -137c-92 0 -117 58 -80 206l29 117c23 92 18 123 -10 123c-42 0 -70 -64 -83 -146l-31 3c8 77 44 183 131 183c81 0 101 -69 77 -162l-31 -119c-31 -122 -18 -165 29 -165
c57 0 125 50 176 271l35 166s26 -1 41 -1c14 0 41 1 41 1c-18 -72 -52 -227 -66 -298c-22 -110 -20 -139 12 -139c40 0 64 60 77 142zM373 535l-7 -9c-54 33 -122 74 -156 99c-35 26 0 72 35 45c35 -28 85 -87 128 -135z" />
    <glyph glyph-name="ucircumflex" unicode="&#xfb;" horiz-adv-x="584" 
d="M466 533l-9 -8c-34 23 -74 64 -101 99c-34 -32 -107 -77 -145 -100l-7 9c32 47 97 110 136 140h42c29 -29 64 -92 84 -140zM534 165l31 -4c-9 -80 -49 -178 -129 -178c-77 0 -95 42 -79 137c-43 -96 -105 -137 -170 -137c-92 0 -117 58 -80 206l29 117
c23 92 18 123 -10 123c-42 0 -70 -64 -83 -146l-31 3c8 77 44 183 131 183c81 0 101 -69 77 -162l-31 -119c-31 -122 -18 -165 29 -165c57 0 125 50 176 271l35 166s26 -1 41 -1c14 0 41 1 41 1c-18 -72 -52 -227 -66 -298c-22 -110 -20 -139 12 -139c40 0 64 60 77 142z
" />
    <glyph glyph-name="udieresis" unicode="&#xfc;" horiz-adv-x="584" 
d="M301 587c-3 -30 -27 -51 -56 -51c-27 0 -48 20 -45 51s27 50 56 50c27 0 48 -19 45 -50zM481 587c-4 -31 -28 -51 -56 -51s-48 20 -45 51c2 31 27 50 55 50c27 0 48 -18 46 -50zM534 165l31 -4c-9 -80 -49 -178 -129 -178c-77 0 -95 42 -79 137
c-43 -96 -105 -137 -170 -137c-92 0 -117 58 -80 206l29 117c23 92 18 123 -10 123c-42 0 -70 -64 -83 -146l-31 3c8 77 44 183 131 183c81 0 101 -69 77 -162l-31 -119c-31 -122 -18 -165 29 -165c57 0 125 50 176 271l35 166s26 -1 41 -1c14 0 41 1 41 1
c-18 -72 -52 -227 -66 -298c-22 -110 -20 -139 12 -139c40 0 64 60 77 142z" />
    <glyph glyph-name="dagger" unicode="&#x2020;" 
d="M240 485c-31 -10 -98 -30 -98 23s67 33 98 23c15 -5 38 -10 65 -13c4 11 14 20 26 22c6 32 10 66 8 95c-3 43 -7 124 49 124c60 0 20 -86 -2 -128c-16 -31 -27 -64 -35 -95c7 -4 12 -10 14 -18c29 2 54 8 70 13c32 10 99 30 99 -23s-67 -33 -99 -23c-16 4 -41 10 -70 13
c-4 -13 -14 -21 -27 -22c-16 -88 -9 -123 24 -133l-5 -22c-41 -12 -63 -55 -87 -168c-9 -39 -17 -86 -14 -124c3 -43 7 -124 -49 -124c-60 0 -20 85 2 128c20 39 32 81 41 120c24 113 20 156 -17 168l5 22c37 10 59 47 80 138c-6 4 -10 9 -13 16c-27 -2 -50 -8 -65 -12z" />
    <glyph glyph-name="degree" unicode="&#xb0;" horiz-adv-x="332" 
d="M195 401c54 0 96 32 110 130c15 104 -22 132 -73 132c-49 0 -95 -33 -110 -132c-15 -104 19 -130 73 -130zM191 372c-81 0 -125 48 -109 159c16 112 84 160 155 160c81 0 126 -49 110 -160c-16 -112 -85 -159 -156 -159z" />
    <glyph glyph-name="cent" unicode="&#xa2;" horiz-adv-x="520" 
d="M278 357l-71 -222c14 -5 30 -6 48 -6c55 0 92 12 119 31c-37 3 -47 29 -44 54c3 29 22 52 61 52c36 0 53 -23 47 -63c-9 -59 -85 -118 -199 -118c-17 0 -32 1 -46 4l-45 -141h-36l52 147c-90 28 -124 112 -104 233c25 154 130 244 262 244h2l43 137h35l-49 -139
c80 -9 125 -54 119 -106c-4 -37 -30 -61 -65 -61s-51 23 -47 53c4 25 22 46 53 51c-16 14 -41 23 -73 25zM155 329c-17 -103 -6 -157 28 -182l75 210l54 175c-81 -4 -133 -51 -157 -203z" />
    <glyph glyph-name="sterling" unicode="&#xa3;" 
d="M152 252l1 36c18 -2 51 -2 81 -2c-6 64 -14 135 -1 209c21 124 118 211 256 211c112 0 161 -63 146 -149c-11 -63 -50 -85 -89 -85c-35 0 -61 22 -55 58c5 32 31 53 68 53c16 0 30 -6 38 -14c11 54 -29 97 -94 97c-83 0 -139 -50 -166 -172c-16 -71 -20 -138 -30 -207
c41 0 78 2 105 3l-1 -36c-26 1 -67 1 -110 1c-7 -41 -19 -83 -37 -126c44 -20 85 -42 143 -42c67 0 110 22 133 81l32 -5c-2 -92 -51 -180 -182 -180c-85 0 -133 31 -172 64c-32 -40 -73 -62 -132 -62c-65 0 -99 38 -89 92c10 50 61 85 131 85c40 0 72 -8 102 -19
c9 33 8 71 6 112zM94 15c45 0 77 18 101 52c-31 27 -57 51 -97 51c-34 0 -62 -17 -67 -44c-6 -33 14 -59 63 -59z" />
    <glyph glyph-name="section" unicode="&#xa7;" horiz-adv-x="613" 
d="M412 655l6 -9c-71 -67 -110 -115 -151 -407c-53 -380 -154 -441 -243 -441c-73 0 -95 56 -88 107c5 33 24 68 67 68c28 0 52 -16 46 -50c-6 -39 -46 -51 -79 -37c-1 -30 10 -59 57 -59c80 0 132 88 173 392c38 277 110 378 212 436zM196 -150l-7 9c71 66 111 115 151 407
c54 380 154 441 243 441c73 0 96 -56 89 -107c-5 -31 -21 -68 -67 -68c-27 0 -51 17 -46 49c6 37 43 53 79 38c1 29 -10 59 -58 59c-80 0 -132 -88 -173 -392c-38 -277 -109 -378 -211 -436z" />
    <glyph glyph-name="bullet" unicode="&#x2022;" horiz-adv-x="449" 
d="M387 241c0 -94 -61 -149 -155 -149c-87 0 -154 52 -154 152c0 93 67 151 154 151c94 0 155 -62 155 -154z" />
    <glyph glyph-name="paragraph" unicode="&#xb6;" horiz-adv-x="523" 
d="M267 23l48 235c-160 2 -228 95 -203 221c27 137 126 210 300 210h155l-8 -40h-36c-34 0 -52 -11 -60 -49l-113 -578c-30 -158 -91 -230 -209 -230c-91 0 -115 58 -110 101c5 49 36 64 65 64c33 0 45 -24 42 -46c-6 -35 -36 -49 -74 -39c1 -30 24 -54 68 -54
c69 0 100 39 135 205z" />
    <glyph glyph-name="germandbls" unicode="&#xdf;" horiz-adv-x="556" 
d="M50 422l4 35h78c65 208 158 251 244 251c118 0 162 -78 143 -186c-14 -77 -55 -136 -131 -158c112 -7 154 -78 139 -195c-18 -132 -92 -184 -201 -184c-91 0 -132 59 -108 167l33 2c-20 -86 -4 -130 71 -130c54 0 93 37 111 146c22 124 -17 176 -142 168l5 32
c74 -1 115 53 133 152c18 101 -5 157 -66 157c-79 0 -138 -70 -169 -320c-56 -450 -147 -565 -269 -565c-72 0 -100 39 -88 88c8 31 31 43 55 43c27 0 43 -16 38 -45c-6 -30 -33 -41 -64 -32c6 -17 23 -27 55 -27c97 0 123 108 153 348c12 102 29 186 48 254z" />
    <glyph glyph-name="registered" unicode="&#xae;" horiz-adv-x="842" 
d="M382 22c231 0 342 153 357 342c15 170 -61 303 -278 303c-221 0 -343 -154 -358 -343c-14 -170 61 -302 279 -302zM377 -16c-234 0 -342 137 -324 341c18 224 189 380 413 380c223 0 342 -139 323 -342c-17 -224 -166 -379 -412 -379zM544 260c-2 -65 4 -85 26 -85
c21 0 38 37 39 99l27 2c2 -69 -18 -138 -89 -138s-83 39 -74 117c8 68 -18 84 -73 84h-48c-10 -61 -20 -117 -20 -127c-1 -20 3 -29 31 -29h34l-4 -36s-65 2 -102 2c-36 0 -102 -2 -102 -2l4 36h32c28 0 36 4 42 25s49 264 51 287c1 24 -3 32 -26 32h-39c1 5 3 30 3 36
c17 -1 86 -2 107 -2h104c103 0 152 -38 140 -111c-11 -60 -62 -97 -119 -103c43 -12 58 -40 56 -87zM382 498c-3 -10 -15 -70 -26 -133h55c78 0 120 21 130 82c10 59 -16 84 -89 84h-29c-24 0 -35 -10 -41 -33z" />
    <glyph glyph-name="copyright" unicode="&#xa9;" horiz-adv-x="842" 
d="M377 -16c-234 0 -341 137 -324 341c19 224 189 380 413 380c223 0 340 -139 323 -342c-19 -224 -166 -379 -412 -379zM382 22c231 0 341 153 357 342c14 170 -61 303 -278 303c-221 0 -343 -154 -358 -343c-14 -170 61 -302 279 -302zM459 568c40 0 76 -12 97 -24
c27 -16 38 -12 44 19c7 -1 27 -1 34 0c-11 -31 -31 -103 -37 -146c0 0 -7 1 -15 1c-7 0 -16 -1 -16 -1c11 66 -19 117 -100 117c-91 0 -155 -51 -179 -187c-25 -149 23 -189 105 -189c101 0 141 58 161 138h39c-26 -116 -85 -173 -208 -173s-193 73 -169 224
c27 155 132 221 244 221z" />
    <glyph glyph-name="trademark" unicode="&#x2122;" horiz-adv-x="723" 
d="M766 658h-21c-15 0 -24 -7 -27 -22c-4 -17 -27 -138 -30 -156c-2 -16 1 -25 20 -25h19c0 -2 -5 -27 -5 -30c0 0 -47 1 -74 1c-26 0 -74 -1 -74 -1c1 3 6 28 6 30h19c18 0 26 10 30 25c5 26 20 106 28 144c-35 -47 -101 -143 -124 -180h-16c-12 42 -39 130 -57 179
c-6 -37 -22 -118 -25 -142c-3 -16 1 -26 20 -26h22c0 -2 -5 -27 -6 -30c0 0 -39 1 -60 1c-22 0 -62 -1 -62 -1c1 3 6 28 6 30h19c17 0 25 10 29 26c4 17 28 138 30 156c1 15 -4 21 -19 21h-20c0 2 5 28 6 31c27 -1 84 -1 111 0c10 -36 34 -112 51 -158c33 48 89 130 107 158
c26 -1 76 -1 103 0c-1 -3 -6 -29 -6 -31zM170 688h130c39 0 54 0 68 2c-8 -25 -18 -79 -21 -103h-34l5 31c3 26 -6 39 -27 39h-34c-12 -59 -32 -161 -33 -178c-1 -15 1 -24 20 -24h21c0 -2 -5 -27 -5 -30c0 0 -48 1 -75 1c-26 0 -74 -1 -74 -1c1 3 6 28 6 30h20
c17 0 26 9 29 24c4 17 25 119 34 178h-34c-22 0 -35 -13 -41 -39l-7 -31h-34c7 24 16 78 18 103c13 -2 33 -2 68 -2z" />
    <glyph glyph-name="acute" unicode="&#xb4;" horiz-adv-x="532" 
d="M178 526l-7 9c42 48 94 106 128 135c35 26 70 -20 35 -45c-34 -25 -102 -66 -156 -99z" />
    <glyph glyph-name="dieresis" unicode="&#xa8;" horiz-adv-x="533" 
d="M219 587c-3 -30 -27 -51 -56 -51c-27 0 -48 20 -45 51s27 50 56 50c27 0 48 -19 45 -50zM399 587c-4 -31 -28 -51 -56 -51s-48 20 -45 51c2 31 27 50 55 50c27 0 48 -18 46 -50z" />
    <glyph glyph-name="notequal" unicode="&#x2260;" 
d="M90 305c3 11 9 40 10 51c53 -1 136 -2 218 -2l42 136c7 -2 22 -2 29 0c-17 -53 -32 -96 -45 -136c74 0 146 1 196 2c-3 -11 -9 -40 -10 -51c-50 1 -125 1 -201 1l-35 -111c81 0 161 1 215 2c-3 -11 -9 -39 -10 -51c-54 1 -138 1 -221 1c-13 -43 -27 -90 -45 -147
c-7 2 -22 2 -29 0l48 147c-73 0 -144 0 -193 -1c3 11 9 40 10 51c50 -1 123 -2 199 -2l35 111c-80 0 -160 0 -213 -1z" />
    <glyph glyph-name="AE" unicode="&#xc6;" horiz-adv-x="1066" 
d="M1015 248c-17 -67 -33 -177 -42 -252c-46 4 -159 4 -202 4h-272c-12 0 -156 -2 -156 -2l7 50h56c43 0 59 17 65 53l18 100c-65 1 -141 1 -206 -1c-23 -32 -39 -56 -45 -65c-32 -50 -39 -87 25 -87h40l-7 -50s-99 2 -153 2c-55 0 -152 -2 -152 -2l6 50h41
c57 0 87 19 132 80c67 92 259 344 337 461c25 36 16 58 -22 58h-32l7 45c37 -4 124 -5 154 -5c29 0 140 1 280 1c43 0 137 1 186 7c-16 -65 -33 -175 -43 -240h-44l4 21c24 141 10 164 -115 164h-180c-35 0 -46 -15 -53 -45c-5 -23 -24 -121 -42 -224h65
c102 0 138 23 156 121l2 14h46c-16 -58 -22 -81 -34 -154c-13 -74 -15 -109 -19 -160h-45l3 14c13 88 -9 125 -110 125h-71c-18 -106 -35 -209 -38 -233c-3 -27 10 -50 37 -50h182c137 0 157 45 182 183l3 17h49zM312 242c59 -1 126 -1 185 0c21 117 48 272 58 333
c-69 -92 -172 -234 -243 -333z" />
    <glyph glyph-name="Oslash" unicode="&#xd8;" horiz-adv-x="780" 
d="M338 -24c-77 0 -139 16 -185 47l-65 -69l-20 17l55 76c-63 61 -84 162 -62 299c40 240 202 363 401 363c71 0 130 -14 175 -40l61 66l20 -16l-51 -71c69 -58 94 -159 71 -301c-40 -243 -206 -371 -400 -371zM345 21c151 0 254 100 292 326c19 112 12 190 -16 240
l-223 -257l-202 -259c32 -35 82 -50 149 -50zM164 346c-19 -110 -16 -187 8 -239l207 240l214 276c-32 29 -79 42 -138 42c-144 0 -253 -91 -291 -319z" />
    <glyph glyph-name="plusminus" unicode="&#xb1;" 
d="M37 0c3 11 9 40 10 51c47 -1 117 -2 188 -2c11 47 31 139 48 187c-60 -8 -176 -10 -211 -11l10 51c35 -1 150 -4 206 -12c3 58 22 173 29 209h51c-8 -36 -33 -151 -52 -209c59 8 176 11 212 12l-10 -51c-35 1 -152 3 -208 12c-4 -48 -18 -140 -26 -188c77 0 152 1 203 2
c-3 -11 -9 -39 -10 -51c-108 2 -330 2 -440 0z" />
    <glyph glyph-name="lessequal" unicode="&#x2264;" 
d="M135 238l4 23c101 56 229 133 317 195l25 -44c-86 -59 -226 -128 -313 -163c82 -41 182 -110 245 -165l-31 -35c40 0 76 1 105 2c-3 -11 -9 -39 -10 -51c-108 2 -330 2 -440 0c3 11 9 40 10 51c77 -2 210 -2 321 -2c-54 50 -176 149 -233 189z" />
    <glyph glyph-name="greaterequal" unicode="&#x2265;" 
d="M443 260l-4 -22c-77 -43 -223 -132 -306 -188c115 -1 268 -1 354 1c-3 -11 -9 -39 -10 -51c-108 2 -330 2 -440 0c3 11 9 40 10 51c20 -1 44 -1 70 -1l-19 33c83 57 233 133 312 166c-67 33 -188 115 -244 169l36 38c52 -53 180 -154 241 -196z" />
    <glyph glyph-name="yen" unicode="&#xa5;" 
d="M123 344l116 -4c-20 82 -44 175 -62 236c-14 46 -28 66 -79 66h-19l6 48s85 -3 135 -3c51 0 140 3 140 3l-6 -48h-26c-49 0 -61 -25 -54 -68c10 -61 41 -185 63 -262c46 78 110 196 142 262c18 38 28 68 -25 68h-29l7 48s86 -3 131 -3s120 3 120 3l-6 -48h-26
c-60 0 -80 -16 -113 -70c-37 -60 -92 -151 -140 -231l112 3c-1 -5 -6 -42 -6 -48l-130 4l-24 -42l-8 -49l150 5l-6 -48l-150 5l-11 -73c-6 -38 -2 -51 46 -51h47l-6 -47s-86 3 -147 3c-60 0 -147 -3 -147 -3l6 47h45c50 0 58 14 64 51l11 73l-144 -5c2 6 6 43 6 48l144 -5
l8 49l-10 42l-131 -4c1 6 6 43 6 48z" />
    <glyph glyph-name="ordfeminine" unicode="&#xaa;" horiz-adv-x="466" 
d="M62 224c3 11 9 43 11 55c109 -2 237 -2 346 0c-2 -12 -9 -44 -10 -55c-108 2 -237 2 -347 0zM450 489c-8 -82 -46 -132 -94 -132c-46 0 -67 21 -60 79c-28 -52 -69 -79 -112 -79c-56 0 -92 38 -78 143c17 134 83 202 154 202c48 0 75 -28 80 -71c13 19 30 42 40 62h33
c-14 -52 -38 -166 -49 -221c-12 -59 -8 -79 12 -79c26 0 43 41 52 98zM209 393c45 0 90 54 111 166c14 74 -1 107 -44 107c-44 0 -81 -42 -102 -165c-14 -80 -3 -108 35 -108z" />
    <glyph glyph-name="ordmasculine" unicode="&#xba;" horiz-adv-x="392" 
d="M40 225c2 11 9 41 10 53c109 -2 191 -2 300 0c-2 -12 -9 -42 -10 -53c-108 2 -191 2 -300 0zM213 389c49 0 86 69 103 186c10 73 -8 95 -45 95c-51 0 -89 -68 -105 -181c-10 -75 8 -100 47 -100zM210 357c-79 0 -124 43 -110 152c11 85 63 193 171 193
c77 0 120 -43 111 -140c-11 -103 -65 -205 -172 -205z" />
    <glyph glyph-name="ae" unicode="&#xe6;" horiz-adv-x="749" 
d="M645 137l31 -9c-32 -92 -80 -145 -179 -145c-112 0 -163 50 -165 151c-40 -97 -107 -151 -176 -151c-78 0 -133 54 -113 204c25 182 116 282 219 282c78 0 118 -51 114 -137c45 92 118 137 201 137c104 0 128 -61 117 -136c-19 -121 -164 -140 -269 -138
c-21 -129 4 -177 78 -177c67 0 115 28 142 119zM183 23c67 0 135 82 165 245c20 110 -3 161 -68 161c-66 0 -121 -61 -152 -241c-19 -118 -4 -165 55 -165zM429 218c125 -2 171 22 190 107c13 55 4 110 -51 110c-64 0 -105 -45 -139 -217z" />
    <glyph glyph-name="oslash" unicode="&#xf8;" horiz-adv-x="472" 
d="M190 -17c-27 0 -51 4 -72 12l-44 -68l-12 9l34 69c-48 29 -73 89 -59 190c17 120 91 274 236 274c26 0 50 -3 70 -11l46 74l13 -6l-37 -78c48 -27 73 -82 63 -171c-16 -145 -91 -294 -238 -294zM192 17c75 0 131 101 154 273c7 52 5 87 -6 110l-101 -178l-99 -188
c13 -12 30 -17 52 -17zM229 241l94 181c-13 10 -30 14 -50 14c-75 0 -132 -109 -154 -271c-7 -50 -5 -86 5 -109z" />
    <glyph glyph-name="questiondown" unicode="&#xbf;" horiz-adv-x="528" 
d="M198 182l-13 21c37 43 92 69 142 67c34 -1 57 -19 57 -50c1 -36 -27 -61 -110 -101c-100 -48 -144 -98 -150 -184c-7 -92 38 -141 125 -141c73 0 147 34 170 103c-13 -9 -30 -15 -49 -14c-35 1 -54 26 -49 61c5 36 34 59 72 59c42 0 71 -27 63 -90
c-12 -91 -113 -164 -239 -164c-144 0 -196 71 -189 163c8 100 79 163 210 222c89 40 111 58 111 81c0 15 -11 26 -32 26c-38 0 -79 -19 -119 -59zM265 406c1 41 28 63 67 63c36 0 64 -21 63 -63c-1 -40 -30 -64 -66 -64c-38 0 -65 25 -64 64z" />
    <glyph glyph-name="exclamdown" unicode="&#xa1;" horiz-adv-x="290" 
d="M98 406c1 41 28 63 67 63c35 0 63 -20 63 -61s-29 -66 -66 -66c-39 0 -64 25 -64 64zM128 253c1 7 6 11 13 10c9 -1 12 -7 10 -14c-26 -148 -39 -234 -25 -363c12 -108 -25 -137 -72 -137s-86 53 -32 156c61 115 79 197 106 348z" />
    <glyph glyph-name="florin" unicode="&#x192;" horiz-adv-x="514" 
d="M148 333l6 38l74 -3c43 268 149 338 249 338c79 0 101 -47 91 -105c-6 -38 -28 -61 -63 -61s-48 18 -44 44c4 25 27 42 57 42c5 0 11 0 17 -1c-3 28 -22 46 -53 46c-64 0 -121 -54 -149 -302l84 3l-6 -39l-82 3c-39 -313 -142 -409 -269 -409c-79 0 -106 49 -98 98
c6 37 31 63 66 63c29 0 44 -16 40 -45c-4 -25 -29 -39 -52 -39c-7 0 -14 2 -20 4c3 -24 21 -45 66 -45c91 0 128 80 158 349l3 24z" />
    <glyph glyph-name="guillemotleft" unicode="&#xab;" horiz-adv-x="418" 
d="M244 419l10 -9c-36 -48 -105 -120 -159 -158c31 -36 76 -108 99 -161l-13 -9c-34 40 -112 120 -151 155l7 42c55 33 160 105 207 140zM401 419l10 -9c-36 -48 -105 -120 -159 -158c31 -36 76 -108 99 -161l-13 -9c-34 40 -112 120 -151 155l7 42c55 33 160 105 207 140z
" />
    <glyph glyph-name="guillemotright" unicode="&#xbb;" horiz-adv-x="418" 
d="M74 410l13 9c34 -39 112 -119 152 -155l-8 -41c-55 -34 -160 -105 -207 -141l-10 9c37 48 106 120 159 158c-31 37 -76 109 -99 161zM231 410l13 9c34 -39 112 -119 152 -155l-8 -41c-55 -34 -160 -105 -207 -141l-10 9c37 48 106 120 159 158c-31 37 -76 109 -99 161z
" />
    <glyph glyph-name="ellipsis" unicode="&#x2026;" horiz-adv-x="709" 
d="M157 52c-3 -41 -33 -63 -71 -63c-36 0 -62 21 -58 63c4 40 34 64 70 64c38 0 62 -25 59 -64zM393 52c-3 -41 -33 -63 -71 -63c-36 0 -62 21 -58 63c4 40 34 64 70 64c38 0 62 -25 59 -64zM629 52c-3 -41 -33 -63 -71 -63c-36 0 -62 21 -58 63c4 40 34 64 70 64
c38 0 62 -25 59 -64z" />
    <glyph glyph-name="Agrave" unicode="&#xc0;" horiz-adv-x="857" 
d="M546 222c-79 2 -215 2 -291 0c-22 -39 -39 -71 -47 -88c-28 -55 -23 -86 43 -86h46l-6 -50s-96 2 -150 2c-53 0 -150 -2 -150 -2l6 50h35c58 0 83 16 118 79c50 89 267 477 312 567c1 0 28 -1 43 -1s42 1 42 1c26 -136 88 -432 121 -568c14 -60 27 -78 79 -78h45l-6 -50
s-108 2 -169 2c-60 0 -169 -2 -169 -2l7 50h44c59 0 73 26 62 88zM278 264c73 -1 186 -1 260 0c-21 116 -50 257 -70 345c-37 -69 -125 -226 -190 -345zM537 765l-7 -9c-54 33 -122 74 -156 99c-35 26 0 72 35 45c35 -28 85 -87 128 -135z" />
    <glyph glyph-name="Atilde" unicode="&#xc3;" horiz-adv-x="857" 
d="M546 222c-79 2 -215 2 -291 0c-22 -39 -39 -71 -47 -88c-28 -55 -23 -86 43 -86h46l-6 -50s-96 2 -150 2c-53 0 -150 -2 -150 -2l6 50h35c58 0 83 16 118 79c50 89 267 477 312 567c1 0 28 -1 43 -1s42 1 42 1c26 -136 88 -432 121 -568c14 -60 27 -78 79 -78h45l-6 -50
s-108 2 -169 2c-60 0 -169 -2 -169 -2l7 50h44c59 0 73 26 62 88zM278 264c73 -1 186 -1 260 0c-21 116 -50 257 -70 345c-37 -69 -125 -226 -190 -345zM644 875l19 2c19 -100 -36 -140 -96 -136c-45 3 -65 25 -85 62c-22 43 -32 61 -61 61c-28 0 -51 -27 -44 -100l-18 -2
c-20 100 33 140 95 136c40 -2 60 -19 84 -62c22 -41 34 -61 62 -61c31 0 51 29 44 100z" />
    <glyph glyph-name="Otilde" unicode="&#xd5;" horiz-adv-x="780" 
d="M345 21c151 0 254 100 292 326c40 235 -31 318 -182 318c-144 0 -253 -91 -291 -319c-41 -239 22 -325 181 -325zM338 -24c-220 0 -316 130 -277 370c40 240 202 363 401 363c217 0 316 -122 276 -362c-40 -243 -206 -371 -400 -371zM626 882l19 2
c19 -100 -36 -140 -96 -136c-45 3 -65 25 -85 62c-22 43 -32 61 -61 61c-28 0 -51 -27 -44 -100l-18 -2c-20 100 33 140 95 136c40 -2 60 -19 84 -62c22 -41 34 -61 62 -61c31 0 51 29 44 100z" />
    <glyph glyph-name="OE" unicode="&#x152;" horiz-adv-x="1111" 
d="M873 492l2 14h46c-15 -58 -24 -98 -34 -154c-12 -74 -15 -109 -18 -160h-44l2 14c12 89 -9 125 -99 125h-82c-19 -111 -36 -219 -37 -235c-2 -34 14 -48 48 -48h169c131 0 159 36 183 187l2 13h50c-12 -51 -37 -194 -43 -252c-46 4 -157 4 -200 4h-335
c-45 -16 -96 -25 -145 -25c-220 0 -316 131 -277 371c40 240 202 363 400 363c50 0 97 -7 135 -21h66c19 0 136 1 276 1c43 0 138 0 186 6c-11 -56 -34 -183 -43 -240h-44l4 19c28 146 13 166 -117 166h-173c-35 0 -48 -8 -58 -48c-4 -18 -22 -116 -40 -221h83
c90 0 121 28 137 121zM510 61c10 39 94 526 97 563c-22 21 -73 41 -146 41c-151 0 -258 -89 -297 -319c-41 -239 22 -326 181 -326c71 0 136 25 165 41z" />
    <glyph glyph-name="oe" unicode="&#x153;" horiz-adv-x="744" 
d="M492 -17c-78 0 -126 24 -149 72c-39 -44 -90 -72 -153 -72c-106 0 -174 59 -153 212c17 120 91 274 236 274c65 0 115 -23 139 -75c43 50 100 75 160 75c104 0 129 -61 117 -136c-19 -121 -164 -140 -269 -138c-22 -131 5 -177 78 -177c67 0 115 28 142 119l32 -9
c-32 -92 -81 -145 -180 -145zM192 17c75 0 131 101 154 273c15 111 -14 146 -73 146c-75 0 -132 -109 -154 -271c-15 -109 14 -148 73 -148zM564 435c-73 0 -113 -72 -139 -217c125 -2 170 22 189 107c13 55 4 110 -50 110z" />
    <glyph glyph-name="endash" unicode="&#x2013;" horiz-adv-x="500" 
d="M33 210c4 13 10 46 11 60c100 -3 315 -3 420 0c-4 -12 -9 -48 -11 -60c-105 2 -319 2 -420 0z" />
    <glyph glyph-name="emdash" unicode="&#x2014;" horiz-adv-x="1000" 
d="M40 210c3 12 10 48 11 60c185 -3 723 -3 913 0c-4 -12 -9 -48 -10 -60c-248 4 -728 2 -914 0z" />
    <glyph glyph-name="quotedblleft" unicode="&#x201c;" horiz-adv-x="426" 
d="M150 545c28 0 44 -16 41 -49c-2 -30 -27 -54 -62 -54c-43 0 -59 35 -55 79c7 79 72 153 181 179l6 -21c-86 -23 -154 -75 -158 -161c9 17 26 27 47 27zM330 545c28 0 44 -16 41 -49c-2 -30 -27 -54 -62 -54c-43 0 -59 35 -55 79c7 79 72 153 181 179l6 -21
c-86 -23 -154 -75 -158 -161c9 17 26 27 47 27z" />
    <glyph glyph-name="quotedblright" unicode="&#x201d;" horiz-adv-x="426" 
d="M178 598c-28 0 -44 16 -41 48c2 30 27 54 62 54c43 0 59 -34 55 -79c-7 -79 -72 -152 -181 -178l-6 21c85 23 153 74 158 159c-9 -16 -26 -25 -47 -25zM358 598c-28 0 -44 16 -41 48c2 30 27 54 62 54c43 0 59 -34 55 -79c-7 -79 -72 -152 -181 -178l-6 21
c85 23 153 74 158 159c-9 -16 -26 -25 -47 -25z" />
    <glyph glyph-name="quoteleft" unicode="&#x2018;" horiz-adv-x="245" 
d="M150 545c28 0 43 -16 41 -49c-3 -30 -27 -54 -62 -54c-43 0 -59 35 -55 79c7 79 72 153 181 179l6 -21c-86 -23 -154 -75 -158 -161c9 17 26 27 47 27z" />
    <glyph glyph-name="quoteright" unicode="&#x2019;" horiz-adv-x="245" 
d="M178 598c-28 0 -43 16 -41 48c3 30 27 54 62 54c43 0 59 -34 55 -79c-7 -79 -72 -152 -181 -178l-6 21c85 23 153 74 158 159c-9 -16 -26 -25 -47 -25z" />
    <glyph glyph-name="divide" unicode="&#xf7;" 
d="M330 116c0 -32 -22 -51 -54 -51c-30 0 -53 17 -53 51c0 32 24 52 53 52c32 0 54 -21 54 -52zM92 225l9 51c39 -1 153 -4 200 -14c54 10 168 13 206 14l-9 -51c-39 1 -153 4 -200 14c-54 -10 -168 -13 -206 -14zM376 384c0 -32 -22 -51 -53 -51s-54 17 -54 52
c0 31 24 51 54 51c32 0 53 -21 53 -52z" />
    <glyph glyph-name="ydieresis" unicode="&#xff;" horiz-adv-x="545" 
d="M43 283l-31 3c8 77 45 183 132 183c81 0 104 -55 75 -162l-31 -119c-32 -123 -15 -165 30 -165c54 0 134 57 178 281l31 157s26 -2 41 -2c14 0 41 2 41 2c-8 -34 -77 -369 -83 -403c-32 -175 -128 -261 -258 -261c-99 0 -135 56 -118 109c9 28 31 46 63 46
c31 0 51 -21 45 -52c-6 -35 -45 -50 -78 -34c8 -25 35 -41 89 -41c101 0 146 76 172 208l18 93c-42 -100 -106 -143 -173 -143c-91 0 -117 54 -80 206l29 117c22 91 18 123 -11 123c-44 0 -68 -64 -81 -146zM285 587c-3 -30 -27 -51 -56 -51c-27 0 -48 20 -45 51
s27 50 56 50c27 0 48 -19 45 -50zM465 587c-4 -31 -28 -51 -56 -51s-48 20 -45 51c2 31 27 50 55 50c27 0 48 -18 46 -50z" />
    <glyph glyph-name="Ydieresis" unicode="&#x178;" horiz-adv-x="789" 
d="M659 572c-58 -79 -169 -237 -234 -332l-22 -142c-6 -39 -6 -51 50 -51h70l-7 -49s-110 2 -173 2c-62 0 -174 -2 -174 -2l7 49h67c52 0 60 12 66 51l23 139c-33 97 -91 255 -121 339c-18 51 -45 66 -106 66h-24l6 47s111 -2 174 -2c62 0 173 2 173 2l-6 -47h-48
c-63 0 -77 -20 -63 -68c19 -67 70 -205 99 -278c59 83 148 212 188 278c25 42 31 68 -38 68h-38l6 47s97 -2 152 -2c54 0 150 2 150 2l-6 -47h-28c-78 0 -102 -13 -143 -70zM459 817c-3 -30 -27 -51 -56 -51c-27 0 -48 20 -45 51s27 50 56 50c27 0 48 -19 45 -50zM639 817
c-4 -31 -28 -51 -56 -51s-48 20 -45 51c2 31 27 50 55 50c27 0 48 -18 46 -50z" />
    <glyph glyph-name="fraction" unicode="&#x2044;" horiz-adv-x="150" 
d="M-219 -32c0 5 3 8 8 8s8 -3 8 -8s-3 -8 -8 -8s-8 3 -8 8zM-178 24c0 6 5 11 11 11s11 -5 11 -11s-5 -11 -11 -11s-11 5 -11 11zM-138 80c0 8 7 15 15 15s15 -7 15 -15s-7 -15 -15 -15s-15 7 -15 15zM-97 136c0 10 8 18 18 18s18 -8 18 -18c0 -9 -8 -18 -18 -18
s-18 9 -18 18zM-55 192c0 11 9 21 20 21s20 -10 20 -21s-9 -20 -20 -20s-20 9 -20 20zM-13 248c0 12 10 22 22 22s22 -10 22 -22s-10 -22 -22 -22s-22 10 -22 22zM30 304c0 13 10 23 23 23s23 -10 23 -23c0 -12 -10 -22 -23 -22s-23 10 -23 22zM74 361c0 12 10 22 23 22
s23 -10 23 -22c0 -13 -10 -23 -23 -23s-23 10 -23 23zM119 417c0 12 10 22 22 22s22 -10 22 -22s-10 -22 -22 -22s-22 10 -22 22zM165 473c0 11 9 20 20 20s20 -9 20 -20s-9 -21 -20 -21s-20 10 -20 21zM211 529c0 9 8 18 18 18s18 -9 18 -18c0 -10 -8 -18 -18 -18
s-18 8 -18 18zM258 585c0 8 7 15 15 15s15 -7 15 -15s-7 -15 -15 -15s-15 7 -15 15zM306 641c0 6 5 11 11 11s11 -5 11 -11s-5 -11 -11 -11s-11 5 -11 11zM353 697c0 5 3 8 8 8s8 -3 8 -8s-3 -8 -8 -8s-8 3 -8 8z" />
    <glyph glyph-name="Euro" unicode="&#x20ac;" 
d="M39 427l46 -2c55 171 176 260 331 260c147 0 194 -63 184 -132c-7 -48 -37 -71 -75 -71c-42 0 -63 27 -55 64c5 28 28 49 66 49c9 0 17 -2 24 -4c-16 32 -53 56 -127 56c-128 0 -210 -65 -254 -225l220 5l-7 -43l-221 4c-4 -15 -6 -31 -9 -47c-4 -19 -6 -37 -8 -55l220 6
l-6 -44l-217 4c-8 -152 46 -234 176 -234c62 0 111 17 144 51h-4c-40 0 -59 28 -53 60c5 31 27 53 69 53c38 0 61 -26 54 -71c-13 -75 -100 -132 -234 -132c-170 0 -258 83 -249 271l-46 -2l7 44l43 -2c2 16 4 33 7 51c2 15 6 30 9 44l-42 -1z" />
    <glyph glyph-name="guilsinglleft" unicode="&#x2039;" horiz-adv-x="288" 
d="M254 419l10 -9c-36 -48 -105 -120 -159 -158c31 -36 76 -108 99 -161l-13 -9c-34 40 -112 120 -151 155l7 42c55 33 160 105 207 140z" />
    <glyph glyph-name="guilsinglright" unicode="&#x203a;" horiz-adv-x="288" 
d="M91 410l13 9c34 -39 112 -119 152 -155l-8 -41c-55 -34 -160 -105 -207 -141l-10 9c37 48 106 120 159 158c-31 37 -76 109 -99 161z" />
    <glyph glyph-name="daggerdbl" unicode="&#x2021;" 
d="M240 485c-31 -10 -98 -30 -98 23s67 33 98 23c15 -5 39 -10 66 -13c4 11 13 20 25 22c6 32 10 66 8 95c-3 43 -7 124 49 124c60 0 20 -86 -2 -128c-16 -31 -27 -63 -35 -95c7 -4 13 -10 15 -18c29 2 53 8 69 13c32 10 99 30 99 -23s-67 -33 -99 -23c-16 4 -40 10 -69 13
c-4 -13 -15 -21 -28 -22c-16 -88 -9 -123 24 -133l-5 -22c-40 -12 -62 -53 -85 -157c35 1 66 9 85 15c31 10 98 29 98 -23c0 -53 -67 -33 -98 -24c-20 5 -52 14 -89 15c-8 -38 -15 -82 -12 -118c3 -43 7 -124 -49 -124c-60 0 -20 85 2 128c19 37 30 76 39 114
c-35 -2 -67 -10 -86 -15c-32 -9 -99 -29 -99 24c0 52 67 33 99 23c19 -6 53 -14 90 -15c22 104 17 145 -19 157l5 22c37 10 59 47 80 138c-5 4 -10 9 -12 16c-27 -2 -51 -8 -66 -12z" />
    <glyph glyph-name="periodcentered" unicode="&#xb7;" horiz-adv-x="250" 
d="M188 245c-3 -41 -33 -63 -71 -63c-36 0 -62 21 -58 63c4 40 34 64 70 64c38 0 62 -25 59 -64z" />
    <glyph glyph-name="quotesinglbase" unicode="&#x201a;" horiz-adv-x="249" 
d="M74 14c-28 0 -43 16 -41 48c3 30 27 54 62 54c43 0 59 -34 55 -79c-7 -79 -72 -152 -181 -178l-6 21c85 23 153 74 158 159c-9 -16 -26 -25 -47 -25z" />
    <glyph glyph-name="quotedblbase" unicode="&#x201e;" horiz-adv-x="429" 
d="M74 14c-28 0 -44 16 -41 48c2 30 27 54 62 54c43 0 59 -34 55 -79c-7 -79 -72 -152 -181 -178l-6 21c85 23 153 74 158 159c-9 -16 -26 -25 -47 -25zM255 14c-28 0 -44 16 -41 48c2 30 27 54 62 54c43 0 59 -34 55 -79c-7 -79 -72 -152 -181 -178l-6 21
c85 23 153 74 158 159c-9 -16 -26 -25 -47 -25z" />
    <glyph glyph-name="perthousand" unicode="&#x2030;" horiz-adv-x="901" 
d="M103 86c0 5 3 8 8 8s8 -3 8 -8s-3 -8 -8 -8s-8 3 -8 8zM140 139c0 7 6 13 13 13c6 0 12 -6 12 -13s-6 -12 -12 -12c-7 0 -13 5 -13 12zM177 192c0 10 8 17 17 17c10 0 17 -7 17 -17c0 -9 -7 -17 -17 -17c-9 0 -17 8 -17 17zM215 246c0 10 10 19 21 19s20 -9 20 -19
c0 -12 -9 -21 -20 -21s-21 9 -21 21zM255 298c0 13 10 23 22 23c13 0 23 -10 23 -23c0 -12 -10 -22 -23 -22c-12 0 -22 10 -22 22zM296 352c0 12 10 22 23 22s23 -10 23 -22c0 -13 -10 -23 -23 -23s-23 10 -23 23zM338 405c0 12 10 22 23 22c12 0 22 -10 22 -22
c0 -13 -10 -23 -22 -23c-13 0 -23 10 -23 23zM382 458c0 11 9 20 20 20s21 -9 21 -20s-10 -20 -21 -20s-20 9 -20 20zM427 511c0 9 7 17 17 17c9 0 17 -8 17 -17c0 -10 -8 -17 -17 -17c-10 0 -17 7 -17 17zM473 564c0 7 6 12 12 12c7 0 13 -5 13 -12s-6 -13 -13 -13
c-6 0 -12 6 -12 13zM519 617c0 5 3 8 8 8s8 -3 8 -8s-3 -8 -8 -8s-8 3 -8 8zM372 -10c42 0 77 28 98 137c20 100 6 138 -38 138c-39 0 -75 -28 -97 -138c-21 -104 -5 -137 37 -137zM372 -32c-78 0 -120 51 -100 159c22 115 91 160 162 160c82 0 119 -54 99 -160
c-21 -115 -91 -159 -161 -159zM673 -10c42 0 77 28 98 137c20 100 6 138 -38 138c-39 0 -75 -28 -97 -138c-21 -104 -5 -137 37 -137zM673 -32c-78 0 -120 51 -100 159c22 115 91 160 162 160c82 0 119 -54 99 -160c-21 -115 -91 -159 -161 -159zM190 418c43 0 77 28 99 137
c20 100 5 139 -38 139c-40 0 -76 -29 -97 -139c-21 -104 -5 -137 36 -137zM190 396c-78 0 -120 51 -100 159c23 115 92 160 162 160c83 0 120 -54 100 -160c-22 -115 -91 -159 -162 -159z" />
    <glyph glyph-name="Acircumflex" unicode="&#xc2;" horiz-adv-x="857" 
d="M546 222c-79 2 -215 2 -291 0c-22 -39 -39 -71 -47 -88c-28 -55 -23 -86 43 -86h46l-6 -50s-96 2 -150 2c-53 0 -150 -2 -150 -2l6 50h35c58 0 83 16 118 79c50 89 267 477 312 567c1 0 28 -1 43 -1s42 1 42 1c26 -136 88 -432 121 -568c14 -60 27 -78 79 -78h45l-6 -50
s-108 2 -169 2c-60 0 -169 -2 -169 -2l7 50h44c59 0 73 26 62 88zM278 264c73 -1 186 -1 260 0c-21 116 -50 257 -70 345c-37 -69 -125 -226 -190 -345zM645 765l-9 -8c-34 23 -74 64 -101 99c-34 -32 -107 -77 -145 -100l-7 9c32 47 97 110 136 140h42
c29 -29 64 -92 84 -140z" />
    <glyph glyph-name="Ecircumflex" unicode="&#xca;" horiz-adv-x="720" 
d="M596 765l-9 -8c-34 23 -74 64 -101 99c-34 -32 -107 -77 -145 -100l-7 9c32 47 97 110 136 140h42c29 -29 64 -92 84 -140zM482 492l2 14h46c-15 -58 -24 -98 -34 -154c-12 -74 -14 -109 -18 -160h-44l2 14c14 94 -10 125 -113 125h-68c-19 -111 -36 -219 -37 -235
c-2 -34 14 -48 48 -48h169c132 0 159 36 183 187l2 13h50c-16 -67 -33 -177 -43 -252c-42 3 -106 4 -190 4h-272c-41 0 -155 -2 -169 -2l6 50h58c45 0 57 19 66 53c8 33 80 453 83 491c4 39 -8 50 -44 50h-67l6 48c16 0 148 -3 167 -3s139 1 279 1c43 0 135 1 183 7
c-11 -56 -34 -182 -42 -238h-44l3 17c20 134 16 166 -113 166h-177c-35 0 -47 -8 -57 -48c-5 -18 -23 -116 -41 -221h84c89 0 121 28 136 121z" />
    <glyph glyph-name="Aacute" unicode="&#xc1;" horiz-adv-x="857" 
d="M546 222c-79 2 -215 2 -291 0c-22 -39 -39 -71 -47 -88c-28 -55 -23 -86 43 -86h46l-6 -50s-96 2 -150 2c-53 0 -150 -2 -150 -2l6 50h35c58 0 83 16 118 79c50 89 267 477 312 567c1 0 28 -1 43 -1s42 1 42 1c26 -136 88 -432 121 -568c14 -60 27 -78 79 -78h45l-6 -50
s-108 2 -169 2c-60 0 -169 -2 -169 -2l7 50h44c59 0 73 26 62 88zM278 264c73 -1 186 -1 260 0c-21 116 -50 257 -70 345c-37 -69 -125 -226 -190 -345zM504 756l-7 9c42 48 94 106 128 135c35 26 70 -20 35 -45c-34 -25 -102 -66 -156 -99z" />
    <glyph glyph-name="Edieresis" unicode="&#xcb;" horiz-adv-x="720" 
d="M437 817c-3 -30 -27 -51 -56 -51c-27 0 -48 20 -45 51s27 50 56 50c27 0 48 -19 45 -50zM617 817c-4 -31 -28 -51 -56 -51s-48 20 -45 51c2 31 27 50 55 50c27 0 48 -18 46 -50zM482 492l2 14h46c-15 -58 -24 -98 -34 -154c-12 -74 -14 -109 -18 -160h-44l2 14
c14 94 -10 125 -113 125h-68c-19 -111 -36 -219 -37 -235c-2 -34 14 -48 48 -48h169c132 0 159 36 183 187l2 13h50c-16 -67 -33 -177 -43 -252c-42 3 -106 4 -190 4h-272c-41 0 -155 -2 -169 -2l6 50h58c45 0 57 19 66 53c8 33 80 453 83 491c4 39 -8 50 -44 50h-67l6 48
c16 0 148 -3 167 -3s139 1 279 1c43 0 135 1 183 7c-11 -56 -34 -182 -42 -238h-44l3 17c20 134 16 166 -113 166h-177c-35 0 -47 -8 -57 -48c-5 -18 -23 -116 -41 -221h84c89 0 121 28 136 121z" />
    <glyph glyph-name="Egrave" unicode="&#xc8;" horiz-adv-x="720" 
d="M482 492l2 14h46c-15 -58 -24 -98 -34 -154c-12 -74 -14 -109 -18 -160h-44l2 14c14 94 -10 125 -113 125h-68c-19 -111 -36 -219 -37 -235c-2 -34 14 -48 48 -48h169c132 0 159 36 183 187l2 13h50c-16 -67 -33 -177 -43 -252c-42 3 -106 4 -190 4h-272
c-41 0 -155 -2 -169 -2l6 50h58c45 0 57 19 66 53c8 33 80 453 83 491c4 39 -8 50 -44 50h-67l6 48c16 0 148 -3 167 -3s139 1 279 1c43 0 135 1 183 7c-11 -56 -34 -182 -42 -238h-44l3 17c20 134 16 166 -113 166h-177c-35 0 -47 -8 -57 -48c-5 -18 -23 -116 -41 -221h84
c89 0 121 28 136 121zM519 765l-7 -9c-54 33 -122 74 -156 99c-35 26 0 72 35 45c35 -28 85 -87 128 -135z" />
    <glyph glyph-name="Iacute" unicode="&#xcd;" horiz-adv-x="403" 
d="M-7 -2l5 50h59c46 0 57 5 66 40c10 34 84 465 87 504s-8 50 -44 50h-67l6 47s106 -2 165 -2c60 0 149 2 165 2l-5 -47h-67c-36 0 -50 -11 -60 -50c-11 -39 -84 -470 -87 -504s5 -40 51 -40h61l-5 -50s-106 2 -165 2s-165 -2 -165 -2zM261 756l-7 9c42 48 94 106 128 135
c35 26 70 -20 35 -45c-34 -25 -102 -66 -156 -99z" />
    <glyph glyph-name="Icircumflex" unicode="&#xce;" horiz-adv-x="403" 
d="M-7 -2l5 50h59c46 0 57 5 66 40c10 34 84 465 87 504s-8 50 -44 50h-67l6 47s106 -2 165 -2c60 0 149 2 165 2l-5 -47h-67c-36 0 -50 -11 -60 -50c-11 -39 -84 -470 -87 -504s5 -40 51 -40h61l-5 -50s-106 2 -165 2s-165 -2 -165 -2zM409 765l-9 -8
c-34 23 -74 64 -101 99c-34 -32 -107 -77 -145 -100l-7 9c32 47 97 110 136 140h42c29 -29 64 -92 84 -140z" />
    <glyph glyph-name="Idieresis" unicode="&#xcf;" horiz-adv-x="403" 
d="M-7 -2l5 50h59c46 0 57 5 66 40c10 34 84 465 87 504s-8 50 -44 50h-67l6 47s106 -2 165 -2c60 0 149 2 165 2l-5 -47h-67c-36 0 -50 -11 -60 -50c-11 -39 -84 -470 -87 -504s5 -40 51 -40h61l-5 -50s-106 2 -165 2s-165 -2 -165 -2zM251 817c-3 -30 -27 -51 -56 -51
c-27 0 -48 20 -45 51s27 50 56 50c27 0 48 -19 45 -50zM431 817c-4 -31 -28 -51 -56 -51s-48 20 -45 51c2 31 27 50 55 50c27 0 48 -18 46 -50z" />
    <glyph glyph-name="Igrave" unicode="&#xcc;" horiz-adv-x="403" 
d="M-7 -2l5 50h59c46 0 57 5 66 40c10 34 84 465 87 504s-8 50 -44 50h-67l6 47s106 -2 165 -2c60 0 149 2 165 2l-5 -47h-67c-36 0 -50 -11 -60 -50c-11 -39 -84 -470 -87 -504s5 -40 51 -40h61l-5 -50s-106 2 -165 2s-165 -2 -165 -2zM327 765l-7 -9
c-54 33 -122 74 -156 99c-35 26 0 72 35 45c35 -28 85 -87 128 -135z" />
    <glyph glyph-name="Oacute" unicode="&#xd3;" horiz-adv-x="780" 
d="M457 756l-7 9c42 48 94 106 128 135c35 26 70 -20 35 -45c-34 -25 -102 -66 -156 -99zM345 21c151 0 254 100 292 326c40 235 -31 318 -182 318c-144 0 -253 -91 -291 -319c-41 -239 22 -325 181 -325zM338 -24c-220 0 -316 130 -277 370c40 240 202 363 401 363
c217 0 316 -122 276 -362c-40 -243 -206 -371 -400 -371z" />
    <glyph glyph-name="Ocircumflex" unicode="&#xd4;" horiz-adv-x="780" 
d="M605 765l-9 -8c-34 23 -74 64 -101 99c-34 -32 -107 -77 -145 -100l-7 9c32 47 97 110 136 140h42c29 -29 64 -92 84 -140zM345 21c151 0 254 100 292 326c40 235 -31 318 -182 318c-144 0 -253 -91 -291 -319c-41 -239 22 -325 181 -325zM338 -24
c-220 0 -316 130 -277 370c40 240 202 363 401 363c217 0 316 -122 276 -362c-40 -243 -206 -371 -400 -371z" />
    <glyph glyph-name="Ograve" unicode="&#xd2;" horiz-adv-x="780" 
d="M345 21c151 0 254 100 292 326c40 235 -31 318 -182 318c-144 0 -253 -91 -291 -319c-41 -239 22 -325 181 -325zM338 -24c-220 0 -316 130 -277 370c40 240 202 363 401 363c217 0 316 -122 276 -362c-40 -243 -206 -371 -400 -371zM497 765l-7 -9
c-54 33 -122 74 -156 99c-35 26 0 72 35 45c35 -28 85 -87 128 -135z" />
    <glyph glyph-name="Uacute" unicode="&#xda;" horiz-adv-x="848" 
d="M501 756l-7 9c42 48 94 106 128 135c35 26 70 -20 35 -45c-34 -25 -102 -66 -156 -99zM147 283c5 26 46 261 50 303s-5 56 -43 56h-56l7 47s106 -2 158 -2c58 0 143 2 159 2l-6 -47h-56c-38 0 -53 -12 -66 -56c-10 -34 -40 -229 -52 -312c-30 -177 32 -236 157 -236
s205 57 237 236c21 115 48 273 52 312c3 39 -11 56 -47 56h-53l6 47s90 -2 142 -2c53 0 129 2 145 2l-6 -47h-53c-36 0 -54 -18 -61 -57c-9 -39 -51 -303 -51 -303c-33 -196 -140 -302 -326 -302c-192 0 -274 88 -237 303z" />
    <glyph glyph-name="Ucircumflex" unicode="&#xdb;" horiz-adv-x="848" 
d="M653 765l-9 -8c-34 23 -74 64 -101 99c-34 -32 -107 -77 -145 -100l-7 9c32 47 97 110 136 140h42c29 -29 64 -92 84 -140zM147 283c5 26 46 261 50 303s-5 56 -43 56h-56l7 47s106 -2 158 -2c58 0 143 2 159 2l-6 -47h-56c-38 0 -53 -12 -66 -56
c-10 -34 -40 -229 -52 -312c-30 -177 32 -236 157 -236s205 57 237 236c21 115 48 273 52 312c3 39 -11 56 -47 56h-53l6 47s90 -2 142 -2c53 0 129 2 145 2l-6 -47h-53c-36 0 -54 -18 -61 -57c-9 -39 -51 -303 -51 -303c-33 -196 -140 -302 -326 -302
c-192 0 -274 88 -237 303z" />
    <glyph glyph-name="Ugrave" unicode="&#xd9;" horiz-adv-x="848" 
d="M147 283c5 26 46 261 50 303s-5 56 -43 56h-56l7 47s106 -2 158 -2c58 0 143 2 159 2l-6 -47h-56c-38 0 -53 -12 -66 -56c-10 -34 -40 -229 -52 -312c-30 -177 32 -236 157 -236s205 57 237 236c21 115 48 273 52 312c3 39 -11 56 -47 56h-53l6 47s90 -2 142 -2
c53 0 129 2 145 2l-6 -47h-53c-36 0 -54 -18 -61 -57c-9 -39 -51 -303 -51 -303c-33 -196 -140 -302 -326 -302c-192 0 -274 88 -237 303zM585 765l-7 -9c-54 33 -122 74 -156 99c-35 26 0 72 35 45c35 -28 85 -87 128 -135z" />
    <glyph glyph-name="dotlessi" unicode="&#x131;" horiz-adv-x="323" 
d="M220 302l-47 -170c-20 -76 -6 -106 22 -107c43 0 65 58 78 140l30 -4c-8 -80 -45 -178 -132 -178c-77 0 -109 51 -83 145l52 184c24 86 14 117 -13 117c-42 0 -69 -64 -83 -146l-31 3c9 88 52 183 130 183c90 0 105 -66 77 -167z" />
    <glyph glyph-name="circumflex" unicode="&#x2c6;" horiz-adv-x="532" 
d="M377 535l-9 -8c-34 23 -74 64 -101 99c-34 -32 -107 -77 -145 -100l-7 9c32 47 97 110 136 140h42c29 -29 64 -92 84 -140z" />
    <glyph glyph-name="tilde" unicode="&#x2dc;" horiz-adv-x="532" 
d="M393 652l19 2c19 -100 -36 -140 -96 -136c-45 3 -65 25 -85 62c-22 43 -32 61 -61 61c-28 0 -51 -27 -44 -100l-18 -2c-20 100 33 140 95 136c40 -2 60 -19 84 -62c22 -41 34 -61 62 -61c31 0 51 29 44 100z" />
    <glyph glyph-name="macron" unicode="&#xaf;" horiz-adv-x="532" 
d="M132 555c4 10 8 42 8 53c61 -2 189 -2 250 0c-4 -11 -9 -42 -8 -53c-61 2 -189 2 -250 0z" />
    <glyph glyph-name="breve" unicode="&#x2d8;" horiz-adv-x="532" 
d="M246 535c-97 0 -128 65 -110 145l14 2c-4 -69 27 -89 102 -89s112 23 124 89l14 -2c-1 -80 -47 -145 -144 -145z" />
    <glyph glyph-name="dotaccent" unicode="&#x2d9;" horiz-adv-x="532" 
d="M324 598c0 -28 -22 -50 -49 -50s-50 22 -50 50s23 50 50 50s49 -22 49 -50z" />
    <glyph glyph-name="ring" unicode="&#x2da;" horiz-adv-x="532" 
d="M223 615c-4 -34 14 -54 43 -54c30 0 51 20 55 54c3 34 -16 52 -44 52c-30 0 -51 -18 -54 -52zM191 615c5 49 40 79 88 79c47 0 78 -32 73 -79c-5 -50 -41 -81 -89 -81c-47 0 -78 33 -72 81z" />
    <glyph glyph-name="cedilla" unicode="&#xb8;" horiz-adv-x="532" 
d="M218 -112l-9 18c53 28 72 57 81 100l16 -5c0 -24 -10 -58 -40 -81c55 9 114 -14 110 -76c-4 -57 -49 -92 -120 -92c-55 0 -85 26 -99 56l19 15c16 -23 39 -37 71 -37c42 0 65 23 67 59c3 42 -40 64 -96 43z" />
    <glyph glyph-name="hungarumlaut" unicode="&#x2dd;" horiz-adv-x="532" 
d="M116 524l-9 8c36 52 78 116 108 148c30 33 73 -7 42 -38c-29 -29 -90 -80 -141 -118zM280 524l-9 8c36 53 78 117 107 148c31 32 74 -7 42 -38c-28 -29 -89 -80 -140 -118z" />
    <glyph glyph-name="ogonek" unicode="&#x2db;" horiz-adv-x="532" 
d="M400 -84c-14 -79 -61 -122 -135 -122c-62 0 -96 37 -89 89c10 74 88 117 177 140l11 -8c-72 -21 -124 -63 -129 -115c-5 -42 19 -61 54 -61c45 0 76 34 89 81z" />
    <glyph glyph-name="caron" unicode="&#x2c7;" horiz-adv-x="532" 
d="M138 674l9 8c34 -24 89 -74 116 -105c35 32 93 83 130 106l7 -9c-31 -48 -90 -110 -129 -141h-42c-28 29 -70 93 -91 141z" />
    <glyph glyph-name="space_uni0326" horiz-adv-x="195" 
d="M113 239c-26 0 -40 15 -38 45c2 28 25 50 57 50c40 0 51 -32 48 -68c-6 -62 -52 -116 -138 -144l-5 19c65 21 114 59 119 123c-8 -16 -24 -25 -43 -25z" />
    <glyph glyph-name="Abreve" unicode="&#x102;" horiz-adv-x="857" 
d="M546 222c-79 2 -215 2 -291 0c-22 -39 -39 -71 -47 -88c-28 -55 -23 -86 43 -86h46l-6 -50s-96 2 -150 2c-53 0 -150 -2 -150 -2l6 50h35c58 0 83 16 118 79c50 89 267 477 312 567c1 0 28 -1 43 -1s42 1 42 1c26 -136 88 -432 121 -568c14 -60 27 -78 79 -78h45l-6 -50
s-108 2 -169 2c-60 0 -169 -2 -169 -2l7 50h44c59 0 73 26 62 88zM278 264c73 -1 186 -1 260 0c-21 116 -50 257 -70 345c-37 -69 -125 -226 -190 -345zM511 755c-97 0 -128 65 -110 145l14 2c-4 -69 27 -89 102 -89s112 23 124 89l14 -2c-1 -80 -47 -145 -144 -145z" />
    <glyph glyph-name="Amacron" unicode="&#x100;" horiz-adv-x="857" 
d="M546 221c-79 2 -215 2 -291 0c-22 -39 -39 -71 -47 -88c-28 -55 -23 -86 43 -86h46l-6 -50s-96 2 -150 2c-53 0 -150 -2 -150 -2l6 50h35c58 0 83 16 118 79c50 89 267 477 312 567c1 0 28 -1 43 -1s42 1 42 1c26 -136 88 -432 121 -568c14 -60 27 -78 79 -78h45l-6 -50
s-108 2 -169 2c-60 0 -169 -2 -169 -2l7 50h44c59 0 73 26 62 88zM278 263c73 -1 186 -1 260 0c-21 116 -50 257 -70 345c-37 -69 -125 -226 -190 -345zM393 778c4 10 8 42 8 53c61 -2 189 -2 250 0c-4 -11 -9 -42 -8 -53c-61 2 -189 2 -250 0z" />
    <glyph glyph-name="Aogonek" unicode="&#x104;" horiz-adv-x="857" 
d="M773 -84c-14 -79 -61 -122 -135 -122c-62 0 -96 37 -89 89c7 54 51 92 108 117h-40c-60 0 -169 -2 -169 -2l7 50h44c59 0 73 26 62 88l-15 86c-79 2 -215 2 -291 0c-22 -39 -39 -71 -47 -88c-28 -55 -23 -86 43 -86h46l-6 -50s-96 2 -150 2c-53 0 -150 -2 -150 -2l6 50
h35c58 0 83 16 118 79c50 89 267 477 312 567c1 0 28 -1 43 -1s42 1 42 1c26 -136 88 -432 121 -568c14 -60 27 -78 79 -78h45l-6 -50s-44 1 -91 2c-50 -23 -83 -58 -87 -100c-5 -42 19 -61 54 -61c45 0 76 34 89 81zM278 264c73 -1 186 -1 260 0c-21 116 -50 257 -70 345
c-37 -69 -125 -226 -190 -345z" />
    <glyph glyph-name="uni01FA" unicode="&#x1fa;" horiz-adv-x="862" 
d="M546 222c-79 2 -215 2 -291 0c-22 -39 -39 -71 -47 -88c-28 -55 -23 -86 43 -86h46l-6 -50s-96 2 -150 2c-53 0 -150 -2 -150 -2l6 50h35c58 0 83 16 118 79c50 89 267 477 312 567c1 0 28 -1 43 -1s42 1 42 1c26 -136 88 -432 121 -568c14 -60 27 -78 79 -78h45l-6 -50
s-108 2 -169 2c-60 0 -169 -2 -169 -2l7 50h44c59 0 73 26 62 88zM278 264c73 -1 186 -1 260 0c-21 116 -50 257 -70 345c-37 -69 -125 -226 -190 -345zM491 946l-7 9c42 48 94 106 128 135c35 26 70 -20 35 -45c-34 -25 -102 -66 -156 -99zM475 845c-4 -34 14 -54 43 -54
c30 0 51 20 55 54c3 34 -16 52 -44 52c-30 0 -51 -18 -54 -52zM443 845c5 49 40 79 88 79c47 0 78 -32 73 -79c-5 -50 -41 -81 -89 -81c-47 0 -78 33 -72 81z" />
    <glyph glyph-name="AEacute" unicode="&#x1fc;" horiz-adv-x="1066" 
d="M749 736l-7 9c42 48 94 106 128 135c35 26 70 -20 35 -45c-34 -25 -102 -66 -156 -99zM1015 248c-17 -67 -33 -177 -42 -252c-46 4 -159 4 -202 4h-272c-12 0 -156 -2 -156 -2l7 50h56c43 0 59 17 65 53l18 100c-65 1 -141 1 -206 -1c-23 -32 -39 -56 -45 -65
c-32 -50 -39 -87 25 -87h40l-7 -50s-99 2 -153 2c-55 0 -152 -2 -152 -2l6 50h41c57 0 87 19 132 80c67 92 259 344 337 461c25 36 16 58 -22 58h-32l7 45c37 -4 124 -5 154 -5c29 0 140 1 280 1c43 0 137 1 186 7c-16 -65 -33 -175 -43 -240h-44l4 21
c24 141 10 164 -115 164h-180c-35 0 -46 -15 -53 -45c-5 -23 -24 -121 -42 -224h65c102 0 138 23 156 121l2 14h46c-16 -58 -22 -81 -34 -154c-13 -74 -15 -109 -19 -160h-45l3 14c13 88 -9 125 -110 125h-71c-18 -106 -35 -209 -38 -233c-3 -27 10 -50 37 -50h182
c137 0 157 45 182 183l3 17h49zM312 242c59 -1 126 -1 185 0c21 117 48 272 58 333c-69 -92 -172 -234 -243 -333z" />
    <glyph glyph-name="Cacute" unicode="&#x106;" horiz-adv-x="733" 
d="M457 756l-7 9c42 48 94 106 128 135c35 26 70 -20 35 -45c-34 -25 -102 -66 -156 -99zM452 709c70 0 124 -20 169 -45c29 -17 51 -14 59 25c8 -1 44 -1 53 0c-29 -70 -49 -148 -55 -235h-48c20 129 -31 210 -178 210c-144 0 -252 -95 -289 -318
c-42 -253 53 -320 181 -320c170 0 239 98 273 236c5 -1 17 -2 28 -2s23 1 29 2c-44 -195 -139 -284 -340 -284c-203 0 -316 108 -273 368c42 257 195 363 391 363z" />
    <glyph glyph-name="Ccaron" unicode="&#x10c;" horiz-adv-x="733" 
d="M356 904l9 8c34 -24 89 -74 116 -105c35 32 93 83 130 106l7 -9c-31 -48 -90 -110 -129 -141h-42c-28 29 -70 93 -91 141zM452 709c70 0 124 -20 169 -45c29 -17 51 -14 59 25c8 -1 44 -1 53 0c-29 -70 -49 -148 -55 -235h-48c20 129 -31 210 -178 210
c-144 0 -252 -95 -289 -318c-42 -253 53 -320 181 -320c170 0 239 98 273 236c5 -1 17 -2 28 -2s23 1 29 2c-44 -195 -139 -284 -340 -284c-203 0 -316 108 -273 368c42 257 195 363 391 363z" />
    <glyph glyph-name="Ccircumflex" unicode="&#x108;" horiz-adv-x="733" 
d="M605 765l-9 -8c-34 23 -74 64 -101 99c-34 -32 -107 -77 -145 -100l-7 9c32 47 97 110 136 140h42c29 -29 64 -92 84 -140zM452 709c70 0 124 -20 169 -45c29 -17 51 -14 59 25c8 -1 44 -1 53 0c-29 -70 -49 -148 -55 -235h-48c20 129 -31 210 -178 210
c-144 0 -252 -95 -289 -318c-42 -253 53 -320 181 -320c170 0 239 98 273 236c5 -1 17 -2 28 -2s23 1 29 2c-44 -195 -139 -284 -340 -284c-203 0 -316 108 -273 368c42 257 195 363 391 363z" />
    <glyph glyph-name="Cdotaccent" unicode="&#x10a;" horiz-adv-x="733" 
d="M452 709c70 0 124 -20 169 -45c29 -17 51 -14 59 25c8 -1 44 -1 53 0c-29 -70 -49 -148 -55 -235h-48c20 129 -31 210 -178 210c-144 0 -252 -95 -289 -318c-42 -253 53 -320 181 -320c170 0 239 98 273 236c5 -1 17 -2 28 -2s23 1 29 2c-44 -195 -139 -284 -340 -284
c-203 0 -316 108 -273 368c42 257 195 363 391 363zM524 828c0 -28 -22 -50 -49 -50s-50 22 -50 50s23 50 50 50s49 -22 49 -50z" />
    <glyph glyph-name="Dcaron" unicode="&#x10e;" horiz-adv-x="785" 
d="M328 904l9 8c34 -24 89 -74 116 -105c35 32 93 83 130 106l7 -9c-31 -48 -90 -110 -129 -141h-42c-28 29 -70 93 -91 141zM442 688c237 0 339 -106 301 -358c-38 -244 -203 -331 -415 -331c-13 0 -127 1 -170 1c-42 0 -152 -1 -164 -2l6 50h59c46 0 56 6 65 40
c9 38 81 466 85 505c3 39 -6 49 -45 49h-68l7 47c10 0 111 -2 170 -2c55 0 129 1 169 1zM221 92c-4 -38 8 -50 44 -50h58c172 0 280 60 319 290c40 239 -22 315 -217 315h-65c-32 0 -46 -15 -55 -46c-8 -30 -79 -460 -84 -509z" />
    <glyph glyph-name="Dcroat" unicode="&#x110;" horiz-adv-x="785" 
d="M442 688c237 0 339 -106 301 -358c-38 -244 -203 -331 -415 -331c-13 0 -127 1 -170 1c-42 0 -152 -1 -164 -2l6 50h59c46 0 56 6 65 40c4 18 24 129 43 242c-37 0 -68 -1 -86 -1c3 10 6 40 6 50c18 -1 50 -2 88 -2c17 103 32 198 34 216c3 39 -6 49 -45 49h-68l7 47
c10 0 111 -2 170 -2c55 0 129 1 169 1zM221 92c-4 -38 8 -50 44 -50h58c172 0 280 60 319 290c40 239 -22 315 -217 315h-65c-32 0 -46 -15 -55 -46c-4 -14 -22 -115 -40 -224c61 0 121 1 149 2c-3 -10 -6 -39 -6 -50c-29 1 -89 1 -150 1c-18 -109 -35 -215 -37 -238z" />
    <glyph glyph-name="Ebreve" unicode="&#x114;" horiz-adv-x="720" 
d="M482 492l2 14h46c-15 -58 -24 -98 -34 -154c-12 -74 -14 -109 -18 -160h-44l2 14c14 94 -10 125 -113 125h-68c-19 -111 -36 -219 -37 -235c-2 -34 14 -48 48 -48h169c132 0 159 36 183 187l2 13h50c-16 -67 -33 -177 -43 -252c-42 3 -106 4 -190 4h-272
c-41 0 -155 -2 -169 -2l6 50h58c45 0 57 19 66 53c8 33 80 453 83 491c4 39 -8 50 -44 50h-67l6 48c16 0 148 -3 167 -3s139 1 279 1c43 0 135 1 183 7c-11 -56 -34 -182 -42 -238h-44l3 17c20 134 16 166 -113 166h-177c-35 0 -47 -8 -57 -48c-5 -18 -23 -116 -41 -221h84
c89 0 121 28 136 121zM466 755c-97 0 -128 65 -110 145l14 2c-4 -69 27 -89 102 -89s112 23 124 89l14 -2c-1 -80 -47 -145 -144 -145z" />
    <glyph glyph-name="Ecaron" unicode="&#x11a;" horiz-adv-x="720" 
d="M324 904l9 8c34 -24 89 -74 116 -105c35 32 93 83 130 106l7 -9c-31 -48 -90 -110 -129 -141h-42c-28 29 -70 93 -91 141zM482 492l2 14h46c-15 -58 -24 -98 -34 -154c-12 -74 -14 -109 -18 -160h-44l2 14c14 94 -10 125 -113 125h-68c-19 -111 -36 -219 -37 -235
c-2 -34 14 -48 48 -48h169c132 0 159 36 183 187l2 13h50c-16 -67 -33 -177 -43 -252c-42 3 -106 4 -190 4h-272c-41 0 -155 -2 -169 -2l6 50h58c45 0 57 19 66 53c8 33 80 453 83 491c4 39 -8 50 -44 50h-67l6 48c16 0 148 -3 167 -3s139 1 279 1c43 0 135 1 183 7
c-11 -56 -34 -182 -42 -238h-44l3 17c20 134 16 166 -113 166h-177c-35 0 -47 -8 -57 -48c-5 -18 -23 -116 -41 -221h84c89 0 121 28 136 121z" />
    <glyph glyph-name="Edotaccent" unicode="&#x116;" horiz-adv-x="720" 
d="M482 492l2 14h46c-15 -58 -24 -98 -34 -154c-12 -74 -14 -109 -18 -160h-44l2 14c14 94 -10 125 -113 125h-68c-19 -111 -36 -219 -37 -235c-2 -34 14 -48 48 -48h169c132 0 159 36 183 187l2 13h50c-16 -67 -33 -177 -43 -252c-42 3 -106 4 -190 4h-272
c-41 0 -155 -2 -169 -2l6 50h58c45 0 57 19 66 53c8 33 80 453 83 491c4 39 -8 50 -44 50h-67l6 48c16 0 148 -3 167 -3s139 1 279 1c43 0 135 1 183 7c-11 -56 -34 -182 -42 -238h-44l3 17c20 134 16 166 -113 166h-177c-35 0 -47 -8 -57 -48c-5 -18 -23 -116 -41 -221h84
c89 0 121 28 136 121zM491 828c0 -28 -22 -50 -49 -50s-50 22 -50 50s23 50 50 50s49 -22 49 -50z" />
    <glyph glyph-name="Emacron" unicode="&#x112;" horiz-adv-x="720" 
d="M482 492l2 14h46c-15 -58 -24 -98 -34 -154c-12 -74 -14 -109 -18 -160h-44l2 14c14 94 -10 125 -113 125h-68c-19 -111 -36 -219 -37 -235c-2 -34 14 -48 48 -48h169c132 0 159 36 183 187l2 13h50c-16 -67 -33 -177 -43 -252c-42 3 -106 4 -190 4h-272
c-41 0 -155 -2 -169 -2l6 50h58c45 0 57 19 66 53c8 33 80 453 83 491c4 39 -8 50 -44 50h-67l6 48c16 0 148 -3 167 -3s139 1 279 1c43 0 135 1 183 7c-11 -56 -34 -182 -42 -238h-44l3 17c20 134 16 166 -113 166h-177c-35 0 -47 -8 -57 -48c-5 -18 -23 -116 -41 -221h84
c89 0 121 28 136 121zM331 778c4 10 8 42 8 53c61 -2 189 -2 250 0c-4 -11 -9 -42 -8 -53c-61 2 -189 2 -250 0z" />
    <glyph glyph-name="Eogonek" unicode="&#x118;" horiz-adv-x="720" 
d="M482 492l2 14h46c-15 -58 -24 -98 -34 -154c-12 -74 -14 -109 -18 -160h-44l2 14c14 94 -10 125 -113 125h-68c-19 -111 -36 -219 -37 -235c-2 -34 14 -48 48 -48h169c132 0 159 36 183 187l2 13h50c-16 -67 -33 -177 -43 -252c-21 2 -48 3 -80 4
c-49 -23 -82 -59 -86 -100c-5 -42 19 -61 54 -61c45 0 76 34 89 81l22 -4c-14 -79 -61 -122 -135 -122c-62 0 -96 37 -89 89c7 54 51 92 108 117h-345c-41 0 -155 -2 -169 -2l6 50h58c45 0 57 19 66 53c8 33 80 453 83 491c4 39 -8 50 -44 50h-67l6 48c16 0 148 -3 167 -3
s139 1 279 1c43 0 135 1 183 7c-11 -56 -34 -182 -42 -238h-44l3 17c20 134 16 166 -113 166h-177c-35 0 -47 -8 -57 -48c-5 -18 -23 -116 -41 -221h84c89 0 121 28 136 121z" />
    <glyph glyph-name="Gbreve" unicode="&#x11e;" horiz-adv-x="807" 
d="M343 24c112 -1 213 68 234 193c10 64 5 88 -47 88h-52l5 46s96 -2 149 -2c54 0 149 2 149 2l-5 -46h-41c-32 0 -45 -15 -53 -53c-11 -54 -30 -170 -34 -252h-53s0 70 -7 124c-43 -78 -138 -146 -255 -146c-202 0 -315 108 -272 368c42 257 208 363 396 363
c74 0 126 -19 171 -45c30 -18 54 -14 62 25c9 -1 44 -1 53 0c-29 -70 -49 -148 -55 -235h-48c20 129 -23 210 -185 210c-149 0 -255 -94 -292 -318c-41 -247 47 -321 180 -322zM465 755c-97 0 -128 65 -110 145l14 2c-4 -69 27 -89 102 -89s112 23 124 89l14 -2
c-1 -80 -47 -145 -144 -145z" />
    <glyph glyph-name="Gcircumflex" unicode="&#x11c;" horiz-adv-x="807" 
d="M603 765l-9 -8c-34 23 -74 64 -101 99c-34 -32 -107 -77 -145 -100l-7 9c32 47 97 110 136 140h42c29 -29 64 -92 84 -140zM343 24c112 -1 213 68 234 193c10 64 5 88 -47 88h-52l5 46s96 -2 149 -2c54 0 149 2 149 2l-5 -46h-41c-32 0 -45 -15 -53 -53
c-11 -54 -30 -170 -34 -252h-53s0 70 -7 124c-43 -78 -138 -146 -255 -146c-202 0 -315 108 -272 368c42 257 208 363 396 363c74 0 126 -19 171 -45c30 -18 54 -14 62 25c9 -1 44 -1 53 0c-29 -70 -49 -148 -55 -235h-48c20 129 -23 210 -185 210
c-149 0 -255 -94 -292 -318c-41 -247 47 -321 180 -322z" />
    <glyph glyph-name="Gcommaaccent" unicode="&#x122;" horiz-adv-x="807" 
d="M351 -150c-26 0 -40 15 -38 45c2 28 25 50 57 50c40 0 52 -32 48 -68c-5 -62 -52 -116 -138 -144l-5 19c65 21 114 59 119 123c-8 -16 -24 -25 -43 -25zM343 24c112 -1 213 68 234 193c10 64 5 88 -47 88h-52l5 46s96 -2 149 -2c54 0 149 2 149 2l-5 -46h-41
c-32 0 -45 -15 -53 -53c-11 -54 -30 -170 -34 -252h-53s0 70 -7 124c-43 -78 -138 -146 -255 -146c-202 0 -315 108 -272 368c42 257 208 363 396 363c74 0 126 -19 171 -45c30 -18 54 -14 62 25c9 -1 44 -1 53 0c-29 -70 -49 -148 -55 -235h-48c20 129 -23 210 -185 210
c-149 0 -255 -94 -292 -318c-41 -247 47 -321 180 -322z" />
    <glyph glyph-name="Gdotaccent" unicode="&#x120;" horiz-adv-x="807" 
d="M343 24c112 -1 213 68 234 193c10 64 5 88 -47 88h-52l5 46s96 -2 149 -2c54 0 149 2 149 2l-5 -46h-41c-32 0 -45 -15 -53 -53c-11 -54 -30 -170 -34 -252h-53s0 70 -7 124c-43 -78 -138 -146 -255 -146c-202 0 -315 108 -272 368c42 257 208 363 396 363
c74 0 126 -19 171 -45c30 -18 54 -14 62 25c9 -1 44 -1 53 0c-29 -70 -49 -148 -55 -235h-48c20 129 -23 210 -185 210c-149 0 -255 -94 -292 -318c-41 -247 47 -321 180 -322zM540 829c0 -28 -22 -50 -49 -50s-50 22 -50 50s23 50 50 50s49 -22 49 -50z" />
    <glyph glyph-name="Hbar" unicode="&#x126;" horiz-adv-x="850" 
d="M-6 -2l6 50h59c46 0 56 5 66 40c6 24 46 249 69 391c-26 0 -46 -1 -55 -1c2 7 7 33 7 42c9 -1 28 -1 55 -1c6 37 9 64 10 73c2 39 -7 50 -43 50h-67l5 47s106 -2 165 -2s150 2 166 2l-6 -47h-67c-36 0 -50 -11 -60 -50c-3 -9 -8 -36 -15 -74h357l11 74c3 39 -8 50 -44 50
h-67l5 47s107 -2 166 -2c60 0 150 2 166 2l-5 -47h-69c-36 0 -50 -11 -60 -50c-2 -9 -8 -36 -15 -73c25 0 43 0 52 1c-3 -9 -6 -34 -6 -42c-9 0 -28 1 -53 1c-26 -142 -64 -367 -65 -391c-2 -34 6 -40 52 -40h62l-5 -50s-106 2 -166 2c-59 0 -166 -2 -166 -2l5 50h61
c46 0 56 6 66 40c4 16 23 119 42 228c-101 2 -264 2 -359 0c-19 -109 -36 -212 -37 -228c-2 -34 6 -40 52 -40h61l-6 -50s-106 2 -165 2s-165 -2 -165 -2zM640 479c-108 1 -250 1 -358 0c-7 -36 -14 -78 -21 -120c96 -1 258 -1 359 0z" />
    <glyph glyph-name="Hcircumflex" unicode="&#x124;" horiz-adv-x="850" 
d="M643 765l-9 -8c-34 23 -74 64 -101 99c-34 -32 -107 -77 -145 -100l-7 9c32 47 97 110 136 140h42c29 -29 64 -92 84 -140zM-6 -2l6 50h59c46 0 56 5 66 40c9 34 84 465 86 504s-7 50 -43 50h-67l5 47s106 -2 165 -2s150 2 166 2l-6 -47h-67c-36 0 -50 -11 -60 -50
c-5 -19 -24 -123 -43 -233c96 -1 258 -1 359 0c18 110 35 214 37 233c3 39 -8 50 -44 50h-67l5 47s107 -2 166 -2c60 0 150 2 166 2l-5 -47h-69c-36 0 -50 -11 -60 -50s-85 -470 -87 -504s6 -40 52 -40h62l-5 -50s-106 2 -166 2c-59 0 -166 -2 -166 -2l5 50h61
c46 0 56 6 66 40c4 16 23 119 42 228c-101 2 -264 2 -359 0c-19 -109 -36 -212 -37 -228c-2 -34 6 -40 52 -40h61l-6 -50s-106 2 -165 2s-165 -2 -165 -2z" />
    <glyph glyph-name="dotlessI" horiz-adv-x="405" 
d="M-5 -2l5 50h59c46 0 57 5 66 40c10 34 84 465 87 504s-8 50 -44 50h-67l6 47s106 -2 165 -2c60 0 149 2 165 2l-5 -47h-67c-36 0 -50 -11 -60 -50c-11 -39 -84 -470 -87 -504s5 -40 51 -40h61l-5 -50s-106 2 -165 2s-165 -2 -165 -2z" />
    <glyph glyph-name="Ibreve" unicode="&#x12c;" horiz-adv-x="403" 
d="M-7 -2l5 50h59c46 0 57 5 66 40c10 34 84 465 87 504s-8 50 -44 50h-67l6 47s106 -2 165 -2c60 0 149 2 165 2l-5 -47h-67c-36 0 -50 -11 -60 -50c-11 -39 -84 -470 -87 -504s5 -40 51 -40h61l-5 -50s-106 2 -165 2s-165 -2 -165 -2zM269 755c-97 0 -128 65 -110 145
l14 2c-4 -69 27 -89 102 -89s112 23 124 89l14 -2c-1 -80 -47 -145 -144 -145z" />
    <glyph glyph-name="Idotaccent" unicode="&#x130;" horiz-adv-x="403" 
d="M-7 -2l5 50h59c46 0 57 5 66 40c10 34 84 465 87 504s-8 50 -44 50h-67l6 47s106 -2 165 -2c60 0 149 2 165 2l-5 -47h-67c-36 0 -50 -11 -60 -50c-11 -39 -84 -470 -87 -504s5 -40 51 -40h61l-5 -50s-106 2 -165 2s-165 -2 -165 -2zM341 828c0 -28 -22 -50 -49 -50
s-50 22 -50 50s23 50 50 50s49 -22 49 -50z" />
    <glyph glyph-name="Imacron" unicode="&#x12a;" horiz-adv-x="403" 
d="M-7 -2l5 50h59c46 0 57 5 66 40c10 34 84 465 87 504s-8 50 -44 50h-67l6 47s106 -2 165 -2c60 0 149 2 165 2l-5 -47h-67c-36 0 -50 -11 -60 -50c-11 -39 -84 -470 -87 -504s5 -40 51 -40h61l-5 -50s-106 2 -165 2s-165 -2 -165 -2zM163 778c4 10 8 42 8 53
c61 -2 189 -2 250 0c-4 -11 -9 -42 -8 -53c-61 2 -189 2 -250 0z" />
    <glyph glyph-name="Iogonek" unicode="&#x12e;" horiz-adv-x="403" 
d="M269 -84c-14 -79 -61 -122 -135 -122c-62 0 -96 37 -89 89c7 54 51 92 108 117c-59 0 -160 -2 -160 -2l5 50h59c46 0 57 5 66 40c10 34 84 465 87 504s-8 50 -44 50h-67l6 47s106 -2 165 -2c60 0 149 2 165 2l-5 -47h-67c-36 0 -50 -11 -60 -50
c-11 -39 -84 -470 -87 -504s5 -40 51 -40h61l-5 -50s-73 2 -131 2c-50 -23 -84 -58 -88 -100c-5 -42 19 -61 54 -61c45 0 76 34 89 81z" />
    <glyph glyph-name="Itilde" unicode="&#x128;" horiz-adv-x="403" 
d="M-7 -2l5 50h59c46 0 57 5 66 40c10 34 84 465 87 504s-8 50 -44 50h-67l6 47s106 -2 165 -2c60 0 149 2 165 2l-5 -47h-67c-36 0 -50 -11 -60 -50c-11 -39 -84 -470 -87 -504s5 -40 51 -40h61l-5 -50s-106 2 -165 2s-165 -2 -165 -2zM415 882l19 2
c19 -100 -36 -140 -96 -136c-45 3 -65 25 -85 62c-22 43 -32 61 -61 61c-28 0 -51 -27 -44 -100l-18 -2c-20 100 33 140 95 136c40 -2 60 -19 84 -62c22 -41 34 -61 62 -61c31 0 51 29 44 100z" />
    <glyph glyph-name="IJ" unicode="&#x132;" horiz-adv-x="943" 
d="M-7 -2l5 50h59c46 0 57 5 66 40c10 34 84 465 87 504s-8 50 -44 50h-67l6 47s106 -2 165 -2c60 0 149 2 165 2l-5 -47h-67c-36 0 -50 -11 -60 -50c-11 -39 -84 -470 -87 -504s5 -40 51 -40h61l-5 -50s-106 2 -165 2s-165 -2 -165 -2zM436 100c-16 0 -26 4 -34 9
c6 -49 43 -87 118 -87c95 0 144 53 168 182c24 131 63 349 66 388s-8 50 -44 50h-59l6 47c6 0 105 -2 159 -2c57 0 143 2 159 2l-6 -47h-63c-36 0 -50 -10 -59 -50c-8 -39 -67 -387 -67 -387c-26 -154 -106 -229 -255 -229c-127 0 -170 84 -157 159c7 47 37 81 84 81
c39 0 60 -25 54 -61c-7 -44 -42 -55 -70 -55z" />
    <glyph glyph-name="Jacute" horiz-adv-x="573" 
d="M434 749l-7 9c42 48 94 106 128 135c35 26 70 -20 35 -45c-34 -25 -102 -66 -156 -99zM66 100c-16 0 -26 4 -34 9c6 -49 43 -87 118 -87c95 0 144 53 168 182c24 131 63 349 66 388s-8 50 -44 50h-59l6 47c6 0 105 -2 159 -2c57 0 143 2 159 2l-6 -47h-63
c-36 0 -50 -10 -59 -50c-8 -39 -67 -387 -67 -387c-26 -154 -106 -229 -255 -229c-127 0 -170 84 -157 159c7 47 37 81 84 81c39 0 60 -25 54 -61c-7 -44 -42 -55 -70 -55z" />
    <glyph glyph-name="Jcircumflex" unicode="&#x134;" horiz-adv-x="573" 
d="M585 765l-9 -8c-34 23 -74 64 -101 99c-34 -32 -107 -77 -145 -100l-7 9c32 47 97 110 136 140h42c29 -29 64 -92 84 -140zM66 100c-16 0 -26 4 -34 9c6 -49 43 -87 118 -87c95 0 144 53 168 182c24 131 63 349 66 388s-8 50 -44 50h-59l6 47c6 0 105 -2 159 -2
c57 0 143 2 159 2l-6 -47h-63c-36 0 -50 -10 -59 -50c-8 -39 -67 -387 -67 -387c-26 -154 -106 -229 -255 -229c-127 0 -170 84 -157 159c7 47 37 81 84 81c39 0 60 -25 54 -61c-7 -44 -42 -55 -70 -55z" />
    <glyph glyph-name="Kcommaaccent" unicode="&#x136;" horiz-adv-x="821" 
d="M330 -150c-26 0 -40 15 -38 45c2 28 25 50 57 50c40 0 52 -32 48 -68c-5 -62 -52 -116 -138 -144l-5 19c65 21 114 59 119 123c-8 -16 -24 -25 -43 -25zM-6 -2l7 50h57c48 0 58 9 68 48s82 461 85 495c3 33 -10 51 -46 51h-65l6 47s123 -2 166 -2c59 0 149 2 165 2
l-6 -47h-67c-32 0 -52 -16 -60 -51c-5 -19 -29 -149 -50 -271l328 265c33 27 20 57 -26 57h-45l7 47s106 -2 166 -2c59 0 149 2 165 2l-6 -47h-44c-64 0 -99 -14 -166 -67l-198 -157c49 -83 140 -230 188 -304c32 -49 40 -66 96 -66h39l-6 -50s-106 2 -166 2
c-59 0 -166 -2 -166 -2l6 50h44c51 0 68 19 48 55c-35 62 -109 186 -156 257l-117 -93c-15 -86 -26 -159 -27 -171c-1 -32 5 -48 50 -48h63l-7 -50s-105 2 -165 2c-59 0 -165 -2 -165 -2z" />
    <glyph glyph-name="Lacute" unicode="&#x139;" horiz-adv-x="661" 
d="M265 756l-7 9c42 48 94 106 128 135c35 26 70 -20 35 -45c-34 -25 -102 -66 -156 -99zM438 689l-5 -47h-67c-37 0 -51 -11 -61 -50s-85 -472 -87 -504s11 -40 46 -40h109c114 0 159 41 186 158l10 46h50c-10 -44 -44 -212 -51 -256c-47 4 -149 4 -192 4h-218
c-51 0 -163 -2 -163 -2l6 50h60c46 0 56 6 65 40c8 35 83 465 86 504s-7 50 -43 50h-67l5 47s109 -2 166 -2c60 0 151 2 165 2z" />
    <glyph glyph-name="Lcaron" unicode="&#x13d;" horiz-adv-x="661" 
d="M580 612c-26 0 -40 15 -38 45c2 28 25 50 57 50c40 0 52 -32 48 -68c-5 -62 -52 -116 -138 -144l-5 19c65 21 114 59 119 123c-8 -16 -24 -25 -43 -25zM438 689l-5 -47h-67c-37 0 -51 -11 -61 -50s-85 -472 -87 -504s11 -40 46 -40h109c114 0 159 41 186 158l10 46h50
c-10 -44 -44 -212 -51 -256c-47 4 -149 4 -192 4h-218c-51 0 -163 -2 -163 -2l6 50h60c46 0 56 6 65 40c8 35 83 465 86 504s-7 50 -43 50h-67l5 47s109 -2 166 -2c60 0 151 2 165 2z" />
    <glyph glyph-name="Lcommaaccent" unicode="&#x13b;" horiz-adv-x="661" 
d="M240 -150c-26 0 -40 15 -38 45c2 28 25 50 57 50c40 0 51 -32 48 -68c-6 -62 -52 -116 -138 -144l-5 19c65 21 114 59 119 123c-8 -16 -24 -25 -43 -25zM438 689l-5 -47h-67c-37 0 -51 -11 -61 -50s-85 -472 -87 -504s11 -40 46 -40h109c114 0 159 41 186 158l10 46h50
c-10 -44 -44 -212 -51 -256c-47 4 -149 4 -192 4h-218c-51 0 -163 -2 -163 -2l6 50h60c46 0 56 6 65 40c8 35 83 465 86 504s-7 50 -43 50h-67l5 47s109 -2 166 -2c60 0 151 2 165 2z" />
    <glyph glyph-name="Ldot" unicode="&#x13f;" horiz-adv-x="661" 
d="M437 689l-5 -47h-67c-37 0 -51 -11 -61 -50s-85 -472 -87 -504s11 -40 46 -40h109c114 0 159 41 186 158l10 46h50c-10 -44 -44 -212 -51 -256c-47 4 -149 4 -192 4h-218c-51 0 -163 -2 -163 -2l6 50h60c46 0 56 6 65 40c8 35 83 465 86 504s-7 50 -43 50h-67l5 47
s109 -2 166 -2c60 0 151 2 165 2zM512 357c0 -28 -22 -50 -49 -50s-50 22 -50 50s23 50 50 50s49 -22 49 -50z" />
    <glyph glyph-name="Nacute" unicode="&#x143;" horiz-adv-x="825" 
d="M481 756l-7 9c42 48 94 106 128 135c35 26 70 -20 35 -45c-34 -25 -102 -66 -156 -99zM316 689c20 -43 203 -393 278 -538c28 153 70 406 73 441c4 39 -9 50 -45 50h-68l6 47c16 0 96 -2 150 -2c55 0 143 2 148 2l-6 -47h-68c-36 0 -50 -11 -60 -50
c-11 -42 -78 -452 -100 -593h-63c-20 42 -213 412 -300 581c-31 -167 -75 -443 -79 -478c-3 -34 14 -54 60 -54h55l-6 -50s-112 2 -149 2c-38 0 -147 -2 -147 -2l6 50h50c46 0 69 16 78 54c8 34 81 451 82 490c2 39 -10 50 -46 50h-67l6 47c36 -1 176 -1 212 0z" />
    <glyph glyph-name="Ncaron" unicode="&#x147;" horiz-adv-x="825" 
d="M381 904l9 8c34 -24 89 -74 116 -105c35 32 93 83 130 106l7 -9c-31 -48 -90 -110 -129 -141h-42c-28 29 -70 93 -91 141zM316 689c20 -43 203 -393 278 -538c28 153 70 406 73 441c4 39 -9 50 -45 50h-68l6 47c16 0 96 -2 150 -2c55 0 143 2 148 2l-6 -47h-68
c-36 0 -50 -11 -60 -50c-11 -42 -78 -452 -100 -593h-63c-20 42 -213 412 -300 581c-31 -167 -75 -443 -79 -478c-3 -34 14 -54 60 -54h55l-6 -50s-112 2 -149 2c-38 0 -147 -2 -147 -2l6 50h50c46 0 69 16 78 54c8 34 81 451 82 490c2 39 -10 50 -46 50h-67l6 47
c36 -1 176 -1 212 0z" />
    <glyph glyph-name="Ncommaaccent" unicode="&#x145;" horiz-adv-x="825" 
d="M359 -150c-26 0 -40 15 -38 45c2 28 25 50 57 50c40 0 51 -32 48 -68c-6 -62 -52 -116 -138 -144l-5 19c65 21 114 59 119 123c-8 -16 -24 -25 -43 -25zM316 689c20 -43 203 -393 278 -538c28 153 70 406 73 441c4 39 -9 50 -45 50h-68l6 47c16 0 96 -2 150 -2
c55 0 143 2 148 2l-6 -47h-68c-36 0 -50 -11 -60 -50c-11 -42 -78 -452 -100 -593h-63c-20 42 -213 412 -300 581c-31 -167 -75 -443 -79 -478c-3 -34 14 -54 60 -54h55l-6 -50s-112 2 -149 2c-38 0 -147 -2 -147 -2l6 50h50c46 0 69 16 78 54c8 34 81 451 82 490
c2 39 -10 50 -46 50h-67l6 47c36 -1 176 -1 212 0z" />
    <glyph glyph-name="Eng" unicode="&#x14a;" horiz-adv-x="825" 
d="M316 689c20 -43 203 -393 278 -538c28 153 70 406 73 441c4 39 -9 50 -45 50h-68l6 47c16 0 96 -2 150 -2c55 0 143 2 148 2l-6 -47h-68c-36 0 -50 -11 -60 -50c-11 -42 -78 -452 -100 -593c-23 -152 -96 -202 -194 -202c-68 0 -95 35 -90 75c2 38 28 56 56 56
c27 0 43 -16 41 -40c-3 -36 -36 -47 -64 -38c7 -15 24 -25 57 -25c63 0 128 37 140 174h-9c-20 42 -213 412 -300 581c-31 -167 -75 -443 -79 -478c-3 -34 14 -54 60 -54h55l-6 -50s-112 2 -149 2c-38 0 -147 -2 -147 -2l6 50h50c46 0 69 16 78 54c8 34 81 451 82 490
c2 39 -10 50 -46 50h-67l6 47c36 -1 176 -1 212 0z" />
    <glyph glyph-name="Obreve" unicode="&#x14e;" horiz-adv-x="780" 
d="M345 21c151 0 254 100 292 326c40 235 -31 318 -182 318c-144 0 -253 -91 -291 -319c-41 -239 22 -325 181 -325zM338 -24c-220 0 -316 130 -277 370c40 240 202 363 401 363c217 0 316 -122 276 -362c-40 -243 -206 -371 -400 -371zM491 755c-97 0 -128 65 -110 145
l14 2c-4 -69 27 -89 102 -89s112 23 124 89l14 -2c-1 -80 -47 -145 -144 -145z" />
    <glyph glyph-name="Ohungarumlaut" unicode="&#x150;" horiz-adv-x="780" 
d="M364 754l-9 8c36 52 78 116 108 148c30 33 73 -7 42 -38c-29 -29 -90 -80 -141 -118zM528 754l-9 8c36 53 78 117 107 148c31 32 74 -7 42 -38c-28 -29 -89 -80 -140 -118zM345 21c151 0 254 100 292 326c40 235 -31 318 -182 318c-144 0 -253 -91 -291 -319
c-41 -239 22 -325 181 -325zM338 -24c-220 0 -316 130 -277 370c40 240 202 363 401 363c217 0 316 -122 276 -362c-40 -243 -206 -371 -400 -371z" />
    <glyph glyph-name="Omacron" unicode="&#x14c;" horiz-adv-x="780" 
d="M372 778c4 10 8 42 8 53c61 -2 189 -2 250 0c-4 -11 -9 -42 -8 -53c-61 2 -189 2 -250 0zM345 21c151 0 254 100 292 326c40 235 -31 318 -182 318c-144 0 -253 -91 -291 -319c-41 -239 22 -325 181 -325zM338 -24c-220 0 -316 130 -277 370c40 240 202 363 401 363
c217 0 316 -122 276 -362c-40 -243 -206 -371 -400 -371z" />
    <glyph glyph-name="Oslashacute" unicode="&#x1fe;" horiz-adv-x="780" 
d="M338 -24c-77 0 -139 16 -185 47l-65 -69l-20 17l55 76c-63 61 -84 162 -62 299c40 240 202 363 401 363c71 0 130 -14 175 -40l61 66l20 -16l-51 -71c69 -58 94 -159 71 -301c-40 -243 -206 -371 -400 -371zM345 21c151 0 254 100 292 326c19 112 12 190 -16 240
l-223 -257l-202 -259c32 -35 82 -50 149 -50zM164 346c-19 -110 -16 -187 8 -239l207 240l214 276c-32 29 -79 42 -138 42c-144 0 -253 -91 -291 -319zM445 756l-7 9c42 48 94 106 128 135c35 26 70 -20 35 -45c-34 -25 -102 -66 -156 -99z" />
    <glyph glyph-name="Racute" unicode="&#x154;" horiz-adv-x="775" 
d="M415 756l-7 9c42 48 94 106 128 135c35 26 70 -20 35 -45c-34 -25 -102 -66 -156 -99zM567 186c-7 -117 3 -152 43 -152c35 0 68 61 69 174l42 3c3 -115 -28 -228 -142 -228c-112 0 -132 62 -117 194c14 116 -29 140 -122 140h-89c-18 -108 -34 -209 -34 -224
c1 -34 11 -45 52 -45h61l-7 -50s-121 2 -164 2c-59 0 -165 -2 -165 -2l6 50h56c45 0 59 5 69 40c10 34 83 465 86 504c4 39 -7 50 -43 50h-68c1 7 5 41 5 48c11 0 109 -3 167 -3c49 0 131 2 173 2c169 0 246 -71 226 -190c-16 -98 -103 -161 -197 -170
c75 -20 98 -65 93 -143zM303 595c-5 -15 -25 -125 -45 -238h96c129 0 204 35 220 142c17 104 -27 147 -154 147h-50c-42 0 -57 -15 -67 -51z" />
    <glyph glyph-name="Rcaron" unicode="&#x158;" horiz-adv-x="775" 
d="M314 904l9 8c34 -24 89 -74 116 -105c35 32 93 83 130 106l7 -9c-31 -48 -90 -110 -129 -141h-42c-28 29 -70 93 -91 141zM567 186c-7 -117 3 -152 43 -152c35 0 68 61 69 174l42 3c3 -115 -28 -228 -142 -228c-112 0 -132 62 -117 194c14 116 -29 140 -122 140h-89
c-18 -108 -34 -209 -34 -224c1 -34 11 -45 52 -45h61l-7 -50s-121 2 -164 2c-59 0 -165 -2 -165 -2l6 50h56c45 0 59 5 69 40c10 34 83 465 86 504c4 39 -7 50 -43 50h-68c1 7 5 41 5 48c11 0 109 -3 167 -3c49 0 131 2 173 2c169 0 246 -71 226 -190
c-16 -98 -103 -161 -197 -170c75 -20 98 -65 93 -143zM303 595c-5 -15 -25 -125 -45 -238h96c129 0 204 35 220 142c17 104 -27 147 -154 147h-50c-42 0 -57 -15 -67 -51z" />
    <glyph glyph-name="Rcommaaccent" unicode="&#x156;" horiz-adv-x="775" 
d="M292 -150c-26 0 -40 15 -38 45c2 28 25 50 57 50c40 0 51 -32 48 -68c-6 -62 -52 -116 -138 -144l-5 19c65 21 114 59 119 123c-8 -16 -24 -25 -43 -25zM567 186c-7 -117 3 -152 43 -152c35 0 68 61 69 174l42 3c3 -115 -28 -228 -142 -228c-112 0 -132 62 -117 194
c14 116 -29 140 -122 140h-89c-18 -108 -34 -209 -34 -224c1 -34 11 -45 52 -45h61l-7 -50s-121 2 -164 2c-59 0 -165 -2 -165 -2l6 50h56c45 0 59 5 69 40c10 34 83 465 86 504c4 39 -7 50 -43 50h-68c1 7 5 41 5 48c11 0 109 -3 167 -3c49 0 131 2 173 2
c169 0 246 -71 226 -190c-16 -98 -103 -161 -197 -170c75 -20 98 -65 93 -143zM303 595c-5 -15 -25 -125 -45 -238h96c129 0 204 35 220 142c17 104 -27 147 -154 147h-50c-42 0 -57 -15 -67 -51z" />
    <glyph glyph-name="Sacute" unicode="&#x15a;" horiz-adv-x="637" 
d="M367 756l-7 9c42 48 94 106 128 135c35 26 70 -20 35 -45c-34 -25 -102 -66 -156 -99zM358 664c-107 0 -168 -42 -180 -110c-14 -83 37 -118 182 -144c159 -28 233 -107 207 -249c-19 -107 -102 -180 -261 -180c-81 0 -155 23 -188 43c-29 17 -55 25 -67 -25
c-10 1 -41 1 -51 0c29 72 47 147 52 240c6 -1 42 -1 48 0c-20 -143 53 -212 209 -212c118 0 172 47 184 121c13 89 -51 130 -192 155c-148 27 -215 103 -192 230c20 115 118 180 258 176c74 -2 120 -24 153 -43c23 -13 47 -20 56 23c9 -1 41 -1 50 0
c-33 -79 -44 -132 -48 -220c-7 1 -41 1 -47 0c20 129 -39 195 -173 195z" />
    <glyph glyph-name="Scedilla" unicode="&#x15e;" horiz-adv-x="637" 
d="M217 -112l-9 18c42 23 63 45 74 76c-72 4 -135 24 -164 42c-29 17 -55 25 -67 -25c-10 1 -41 1 -51 0c29 72 47 147 52 240c6 -1 42 -1 48 0c-20 -143 53 -212 209 -212c118 0 173 47 184 121c14 89 -51 130 -192 155c-148 27 -215 103 -192 230c20 115 118 180 258 176
c74 -2 120 -24 153 -43c23 -13 47 -20 56 23c9 -1 41 -1 50 0c-33 -79 -44 -132 -48 -220c-7 1 -41 1 -47 0c20 129 -39 195 -173 195c-107 0 -168 -42 -180 -110c-14 -83 37 -118 182 -144c159 -28 233 -107 207 -249c-19 -107 -102 -180 -261 -180h-3
c-5 -20 -16 -44 -38 -61c55 9 114 -14 110 -76c-4 -57 -49 -92 -120 -92c-55 0 -85 26 -99 56l19 15c16 -23 39 -37 71 -37c42 0 65 23 67 59c3 42 -40 64 -96 43z" />
    <glyph glyph-name="Scircumflex" unicode="&#x15c;" horiz-adv-x="637" 
d="M516 765l-9 -8c-34 23 -74 64 -101 99c-34 -32 -107 -77 -145 -100l-7 9c32 47 97 110 136 140h42c29 -29 64 -92 84 -140zM358 664c-107 0 -168 -42 -180 -110c-14 -83 37 -118 182 -144c159 -28 233 -107 207 -249c-19 -107 -102 -180 -261 -180c-81 0 -155 23 -188 43
c-29 17 -55 25 -67 -25c-10 1 -41 1 -51 0c29 72 47 147 52 240c6 -1 42 -1 48 0c-20 -143 53 -212 209 -212c118 0 172 47 184 121c13 89 -51 130 -192 155c-148 27 -215 103 -192 230c20 115 118 180 258 176c74 -2 120 -24 153 -43c23 -13 47 -20 56 23c9 -1 41 -1 50 0
c-33 -79 -44 -132 -48 -220c-7 1 -41 1 -47 0c20 129 -39 195 -173 195z" />
    <glyph glyph-name="Scommaaccent" unicode="&#x218;" horiz-adv-x="637" 
d="M243 -150c-26 0 -40 15 -38 45c2 28 25 50 57 50c40 0 51 -32 48 -68c-6 -62 -52 -116 -138 -144l-5 19c65 21 114 59 119 123c-8 -16 -24 -25 -43 -25zM358 664c-107 0 -168 -42 -180 -110c-14 -83 37 -118 182 -144c159 -28 233 -107 207 -249
c-19 -107 -102 -180 -261 -180c-81 0 -155 23 -188 43c-29 17 -55 25 -67 -25c-10 1 -41 1 -51 0c29 72 47 147 52 240c6 -1 42 -1 48 0c-20 -143 53 -212 209 -212c118 0 172 47 184 121c13 89 -51 130 -192 155c-148 27 -215 103 -192 230c20 115 118 180 258 176
c74 -2 120 -24 153 -43c23 -13 47 -20 56 23c9 -1 41 -1 50 0c-33 -79 -44 -132 -48 -220c-7 1 -41 1 -47 0c20 129 -39 195 -173 195z" />
    <glyph glyph-name="Tcaron" unicode="&#x164;" horiz-adv-x="716" 
d="M319 904l9 8c34 -24 89 -74 116 -105c35 32 93 83 130 106l7 -9c-31 -48 -90 -110 -129 -141h-42c-28 29 -70 93 -91 141zM592 641h-131c-26 -147 -89 -506 -93 -553c-3 -29 7 -40 50 -40h62l-6 -50s-122 2 -164 2c-59 0 -166 -2 -166 -2l6 50h60c44 0 57 5 65 40
c11 46 71 406 95 553h-129c-56 0 -86 -27 -100 -90l-21 -94c-12 1 -31 1 -46 0c11 59 30 176 35 235c26 -2 79 -5 139 -5h352c77 0 107 4 138 5c-15 -59 -37 -176 -45 -235c-11 1 -33 1 -44 0l12 94c8 58 -13 90 -69 90z" />
    <glyph glyph-name="Tcommaaccent" unicode="&#x162;" horiz-adv-x="716" 
d="M235 -112l-9 18c50 27 70 55 80 94c-60 0 -162 -2 -162 -2l6 50h60c44 0 57 5 65 40c11 46 71 406 95 553h-129c-56 0 -86 -27 -100 -90l-21 -94c-12 1 -31 1 -46 0c11 59 30 176 35 235c26 -2 79 -5 139 -5h352c77 0 107 4 138 5c-15 -59 -37 -176 -45 -235
c-11 1 -33 1 -44 0l12 94c8 58 -13 90 -69 90h-131c-26 -147 -89 -506 -93 -553c-3 -29 7 -40 50 -40h62l-6 -50s-102 2 -151 2c-1 -24 -11 -57 -40 -80c55 9 114 -14 110 -76c-4 -57 -49 -92 -120 -92c-55 0 -85 26 -99 56l19 15c16 -23 39 -37 71 -37c42 0 65 23 67 59
c3 42 -40 64 -96 43z" />
    <glyph glyph-name="uni021A" unicode="&#x21a;" horiz-adv-x="716" 
d="M272 -150c-26 0 -40 15 -38 45c2 28 25 50 57 50c40 0 51 -32 48 -68c-6 -62 -52 -116 -138 -144l-5 19c65 21 114 59 119 123c-8 -16 -24 -25 -43 -25zM592 641h-131c-26 -147 -89 -506 -93 -553c-3 -29 7 -40 50 -40h62l-6 -50s-122 2 -164 2c-59 0 -166 -2 -166 -2
l6 50h60c44 0 57 5 65 40c11 46 71 406 95 553h-129c-56 0 -86 -27 -100 -90l-21 -94c-12 1 -31 1 -46 0c11 59 30 176 35 235c26 -2 79 -5 139 -5h352c77 0 107 4 138 5c-15 -59 -37 -176 -45 -235c-11 1 -33 1 -44 0l12 94c8 58 -13 90 -69 90z" />
    <glyph glyph-name="Tbar" unicode="&#x166;" horiz-adv-x="716" 
d="M592 641h-131c-14 -77 -38 -212 -58 -330l143 7l-7 -49c-26 1 -79 2 -142 6c-16 -92 -28 -167 -29 -187c-3 -29 7 -40 50 -40h62l-6 -50s-122 2 -164 2c-59 0 -166 -2 -166 -2l6 50h60c44 0 57 5 65 40c4 19 18 95 34 187c-63 -4 -116 -6 -140 -6l7 49c24 0 77 -4 139 -7
l55 330h-129c-56 0 -86 -27 -100 -90l-21 -94c-12 1 -31 1 -46 0c11 59 30 176 35 235c26 -2 79 -5 139 -5h352c77 0 107 4 138 5c-15 -59 -37 -176 -45 -235c-11 1 -33 1 -44 0l12 94c8 58 -13 90 -69 90z" />
    <glyph glyph-name="Ubreve" unicode="&#x16c;" horiz-adv-x="848" 
d="M147 283c5 26 46 261 50 303s-5 56 -43 56h-56l7 47s106 -2 158 -2c58 0 143 2 159 2l-6 -47h-56c-38 0 -53 -12 -66 -56c-10 -34 -40 -229 -52 -312c-30 -177 32 -236 157 -236s205 57 237 236c21 115 48 273 52 312c3 39 -11 56 -47 56h-53l6 47s90 -2 142 -2
c53 0 129 2 145 2l-6 -47h-53c-36 0 -54 -18 -61 -57c-9 -39 -51 -303 -51 -303c-33 -196 -140 -302 -326 -302c-192 0 -274 88 -237 303zM526 755c-97 0 -128 65 -110 145l14 2c-4 -69 27 -89 102 -89s112 23 124 89l14 -2c-1 -80 -47 -145 -144 -145z" />
    <glyph glyph-name="Uhungarumlaut" unicode="&#x170;" horiz-adv-x="848" 
d="M147 283c5 26 46 261 50 303s-5 56 -43 56h-56l7 47s106 -2 158 -2c58 0 143 2 159 2l-6 -47h-56c-38 0 -53 -12 -66 -56c-10 -34 -40 -229 -52 -312c-30 -177 32 -236 157 -236s205 57 237 236c21 115 48 273 52 312c3 39 -11 56 -47 56h-53l6 47s90 -2 142 -2
c53 0 129 2 145 2l-6 -47h-53c-36 0 -54 -18 -61 -57c-9 -39 -51 -303 -51 -303c-33 -196 -140 -302 -326 -302c-192 0 -274 88 -237 303zM427 754l-9 8c36 52 78 116 108 148c30 33 73 -7 42 -38c-29 -29 -90 -80 -141 -118zM591 754l-9 8c36 53 78 117 107 148
c31 32 74 -7 42 -38c-28 -29 -89 -80 -140 -118z" />
    <glyph glyph-name="Umacron" unicode="&#x16a;" horiz-adv-x="848" 
d="M147 283c5 26 46 261 50 303s-5 56 -43 56h-56l7 47s106 -2 158 -2c58 0 143 2 159 2l-6 -47h-56c-38 0 -53 -12 -66 -56c-10 -34 -40 -229 -52 -312c-30 -177 32 -236 157 -236s205 57 237 236c21 115 48 273 52 312c3 39 -11 56 -47 56h-53l6 47s90 -2 142 -2
c53 0 129 2 145 2l-6 -47h-53c-36 0 -54 -18 -61 -57c-9 -39 -51 -303 -51 -303c-33 -196 -140 -302 -326 -302c-192 0 -274 88 -237 303zM397 778c4 10 8 42 8 53c61 -2 189 -2 250 0c-4 -11 -9 -42 -8 -53c-61 2 -189 2 -250 0z" />
    <glyph glyph-name="Uogonek" unicode="&#x172;" horiz-adv-x="848" 
d="M147 283c5 26 46 261 50 303s-5 56 -43 56h-56l7 47s106 -2 158 -2c58 0 143 2 159 2l-6 -47h-56c-38 0 -53 -12 -66 -56c-10 -34 -40 -229 -52 -312c-30 -177 32 -236 157 -236s205 57 237 236c21 115 48 273 52 312c3 39 -11 56 -47 56h-53l6 47s90 -2 142 -2
c53 0 129 2 145 2l-6 -47h-53c-36 0 -54 -18 -61 -57c-9 -39 -51 -303 -51 -303c-32 -189 -133 -294 -307 -301c-19 -24 -39 -53 -42 -84c-5 -41 19 -61 54 -61c45 0 76 34 89 81l22 -4c-13 -75 -61 -122 -135 -122c-62 0 -95 37 -88 89c5 41 35 78 77 100
c-189 2 -270 89 -233 303z" />
    <glyph glyph-name="Uring" unicode="&#x16e;" horiz-adv-x="848" 
d="M498 845c-4 -34 14 -54 43 -54c30 0 51 20 55 54c3 34 -16 52 -44 52c-30 0 -51 -18 -54 -52zM466 845c5 49 40 79 88 79c47 0 78 -32 73 -79c-5 -50 -41 -81 -89 -81c-47 0 -78 33 -72 81zM147 283c5 26 46 261 50 303s-5 56 -43 56h-56l7 47s106 -2 158 -2
c58 0 143 2 159 2l-6 -47h-56c-38 0 -53 -12 -66 -56c-10 -34 -40 -229 -52 -312c-30 -177 32 -236 157 -236s205 57 237 236c21 115 48 273 52 312c3 39 -11 56 -47 56h-53l6 47s90 -2 142 -2c53 0 129 2 145 2l-6 -47h-53c-36 0 -54 -18 -61 -57c-9 -39 -51 -303 -51 -303
c-33 -196 -140 -302 -326 -302c-192 0 -274 88 -237 303z" />
    <glyph glyph-name="Utilde" unicode="&#x168;" horiz-adv-x="848" 
d="M147 283c5 26 46 261 50 303s-5 56 -43 56h-56l7 47s106 -2 158 -2c58 0 143 2 159 2l-6 -47h-56c-38 0 -53 -12 -66 -56c-10 -34 -40 -229 -52 -312c-30 -177 32 -236 157 -236s205 57 237 236c21 115 48 273 52 312c3 39 -11 56 -47 56h-53l6 47s90 -2 142 -2
c53 0 129 2 145 2l-6 -47h-53c-36 0 -54 -18 -61 -57c-9 -39 -51 -303 -51 -303c-33 -196 -140 -302 -326 -302c-192 0 -274 88 -237 303zM655 882l19 2c19 -100 -36 -140 -96 -136c-45 3 -65 25 -85 62c-22 43 -32 61 -61 61c-28 0 -51 -27 -44 -100l-18 -2
c-20 100 33 140 95 136c40 -2 60 -19 84 -62c22 -41 34 -61 62 -61c31 0 51 29 44 100z" />
    <glyph glyph-name="Wacute" unicode="&#x1e82;" horiz-adv-x="1101" 
d="M629 756l-7 9c42 48 94 106 128 135c35 26 70 -20 35 -45c-34 -25 -102 -66 -156 -99zM738 -6c-17 1 -65 1 -81 0c-15 127 -48 387 -68 537c-72 -150 -194 -410 -251 -537c-16 1 -65 1 -81 0c-15 139 -54 439 -72 578c-7 52 -18 70 -72 70h-35l6 47s115 -2 155 -2
c55 0 140 2 154 2l-6 -47h-44c-51 0 -64 -16 -59 -70c4 -40 47 -393 58 -485c62 128 174 371 227 486c23 50 7 69 -39 69h-31l6 47s85 -2 136 -2s126 2 140 2l-6 -47h-41c-37 0 -57 -20 -52 -64c12 -116 42 -358 60 -488c59 126 167 357 215 470c25 60 12 82 -43 82h-29
l7 47s99 -2 130 -2c47 0 116 2 130 2l-6 -47h-40c-50 0 -73 -16 -106 -83c-66 -136 -201 -429 -262 -565z" />
    <glyph glyph-name="Wcircumflex" unicode="&#x174;" horiz-adv-x="1101" 
d="M775 765l-9 -8c-34 23 -74 64 -101 99c-34 -32 -107 -77 -145 -100l-7 9c32 47 97 110 136 140h42c29 -29 64 -92 84 -140zM738 -6c-17 1 -65 1 -81 0c-15 127 -48 387 -68 537c-72 -150 -194 -410 -251 -537c-16 1 -65 1 -81 0c-15 139 -54 439 -72 578
c-7 52 -18 70 -72 70h-35l6 47s115 -2 155 -2c55 0 140 2 154 2l-6 -47h-44c-51 0 -64 -16 -59 -70c4 -40 47 -393 58 -485c62 128 174 371 227 486c23 50 7 69 -39 69h-31l6 47s85 -2 136 -2s126 2 140 2l-6 -47h-41c-37 0 -57 -20 -52 -64c12 -116 42 -358 60 -488
c59 126 167 357 215 470c25 60 12 82 -43 82h-29l7 47s99 -2 130 -2c47 0 116 2 130 2l-6 -47h-40c-50 0 -73 -16 -106 -83c-66 -136 -201 -429 -262 -565z" />
    <glyph glyph-name="Wdieresis" unicode="&#x1e84;" horiz-adv-x="1101" 
d="M619 817c-3 -30 -27 -51 -56 -51c-27 0 -48 20 -45 51s27 50 56 50c27 0 48 -19 45 -50zM799 817c-4 -31 -28 -51 -56 -51s-48 20 -45 51c2 31 27 50 55 50c27 0 48 -18 46 -50zM738 -6c-17 1 -65 1 -81 0c-15 127 -48 387 -68 537c-72 -150 -194 -410 -251 -537
c-16 1 -65 1 -81 0c-15 139 -54 439 -72 578c-7 52 -18 70 -72 70h-35l6 47s115 -2 155 -2c55 0 140 2 154 2l-6 -47h-44c-51 0 -64 -16 -59 -70c4 -40 47 -393 58 -485c62 128 174 371 227 486c23 50 7 69 -39 69h-31l6 47s85 -2 136 -2s126 2 140 2l-6 -47h-41
c-37 0 -57 -20 -52 -64c12 -116 42 -358 60 -488c59 126 167 357 215 470c25 60 12 82 -43 82h-29l7 47s99 -2 130 -2c47 0 116 2 130 2l-6 -47h-40c-50 0 -73 -16 -106 -83c-66 -136 -201 -429 -262 -565z" />
    <glyph glyph-name="Wgrave" unicode="&#x1e80;" horiz-adv-x="1101" 
d="M738 -6c-17 1 -65 1 -81 0c-15 127 -48 387 -68 537c-72 -150 -194 -410 -251 -537c-16 1 -65 1 -81 0c-15 139 -54 439 -72 578c-7 52 -18 70 -72 70h-35l6 47s115 -2 155 -2c55 0 140 2 154 2l-6 -47h-44c-51 0 -64 -16 -59 -70c4 -40 47 -393 58 -485
c62 128 174 371 227 486c23 50 7 69 -39 69h-31l6 47s85 -2 136 -2s126 2 140 2l-6 -47h-41c-37 0 -57 -20 -52 -64c12 -116 42 -358 60 -488c59 126 167 357 215 470c25 60 12 82 -43 82h-29l7 47s99 -2 130 -2c47 0 116 2 130 2l-6 -47h-40c-50 0 -73 -16 -106 -83
c-66 -136 -201 -429 -262 -565zM676 762l-7 -9c-54 33 -122 74 -156 99c-35 26 0 72 35 45c35 -28 85 -87 128 -135z" />
    <glyph glyph-name="uni1E8A" unicode="&#x1e8a;" horiz-adv-x="789" 
d="M475 125c-21 42 -53 106 -89 173c-54 -58 -142 -150 -159 -172c-39 -52 -29 -78 15 -78h43l-6 -50s-95 2 -149 2s-148 -2 -148 -2l6 50h24c71 0 106 28 169 91c24 24 136 139 186 195c-47 90 -97 181 -129 238c-27 49 -45 70 -110 70h-42l6 47s115 -2 180 -2
c64 0 175 2 175 2l-6 -47h-40c-53 0 -73 -31 -53 -74c21 -44 54 -107 89 -174c52 53 138 147 159 172c38 46 23 76 -32 76h-30l6 47s92 -2 146 -2c53 0 151 2 151 2l-6 -47h-29c-76 0 -93 -20 -148 -77c-33 -35 -152 -157 -198 -206c47 -90 97 -182 130 -238
c32 -55 56 -73 108 -73h44l-7 -50s-111 2 -175 2s-176 -2 -176 -2l6 50h48c49 0 66 24 41 77zM560 828c0 -28 -22 -50 -49 -50s-50 22 -50 50s23 50 50 50s49 -22 49 -50z" />
    <glyph glyph-name="Ycircumflex" unicode="&#x176;" horiz-adv-x="789" 
d="M659 572c-58 -79 -169 -237 -234 -332l-22 -142c-6 -39 -6 -51 50 -51h70l-7 -49s-110 2 -173 2c-62 0 -174 -2 -174 -2l7 49h67c52 0 60 12 66 51l23 139c-33 97 -91 255 -121 339c-18 51 -45 66 -106 66h-24l6 47s111 -2 174 -2c62 0 173 2 173 2l-6 -47h-48
c-63 0 -77 -20 -63 -68c19 -67 70 -205 99 -278c59 83 148 212 188 278c25 42 31 68 -38 68h-38l6 47s97 -2 152 -2c54 0 150 2 150 2l-6 -47h-28c-78 0 -102 -13 -143 -70zM623 765l-9 -8c-34 23 -74 64 -101 99c-34 -32 -107 -77 -145 -100l-7 9c32 47 97 110 136 140h42
c29 -29 64 -92 84 -140z" />
    <glyph glyph-name="Ygrave" unicode="&#x1ef2;" horiz-adv-x="789" 
d="M659 572c-58 -79 -169 -237 -234 -332l-22 -142c-6 -39 -6 -51 50 -51h70l-7 -49s-110 2 -173 2c-62 0 -174 -2 -174 -2l7 49h67c52 0 60 12 66 51l23 139c-33 97 -91 255 -121 339c-18 51 -45 66 -106 66h-24l6 47s111 -2 174 -2c62 0 173 2 173 2l-6 -47h-48
c-63 0 -77 -20 -63 -68c19 -67 70 -205 99 -278c59 83 148 212 188 278c25 42 31 68 -38 68h-38l6 47s97 -2 152 -2c54 0 150 2 150 2l-6 -47h-28c-78 0 -102 -13 -143 -70zM514 765l-7 -9c-54 33 -122 74 -156 99c-35 26 0 72 35 45c35 -28 85 -87 128 -135z" />
    <glyph glyph-name="Zacute" unicode="&#x179;" horiz-adv-x="668" 
d="M390 756l-7 9c42 48 94 106 128 135c35 26 70 -20 35 -45c-34 -25 -102 -66 -156 -99zM4 0l6 47c135 138 398 435 536 593l-222 -1c-121 0 -147 -13 -173 -131l-11 -51c-10 1 -37 1 -47 0c13 53 35 180 42 233c54 -2 116 -3 181 -3h357l-7 -47
c-135 -140 -393 -432 -533 -592h266c101 0 135 24 154 136l10 59c11 -1 40 -1 51 0c-14 -59 -36 -187 -45 -246c-56 2 -121 3 -172 3h-393z" />
    <glyph glyph-name="Zdotaccent" unicode="&#x17b;" horiz-adv-x="668" 
d="M4 0l6 47c135 138 398 435 536 593l-222 -1c-121 0 -147 -13 -173 -131l-11 -51c-10 1 -37 1 -47 0c13 53 35 180 42 233c54 -2 116 -3 181 -3h357l-7 -47c-135 -140 -393 -432 -533 -592h266c101 0 135 24 154 136l10 59c11 -1 40 -1 51 0c-14 -59 -36 -187 -45 -246
c-56 2 -121 3 -172 3h-393zM458 828c0 -28 -22 -50 -49 -50s-50 22 -50 50s23 50 50 50s49 -22 49 -50z" />
    <glyph glyph-name="uni01B5" unicode="&#x1b5;" horiz-adv-x="668" 
d="M4 0l6 47c60 62 147 156 237 255c-49 -3 -98 -6 -119 -6v47c20 0 90 -4 148 -8c100 112 201 226 270 305l-222 -1c-121 0 -147 -13 -173 -131l-11 -51c-10 1 -37 1 -47 0c13 53 35 180 42 233c54 -2 116 -3 181 -3h357l-7 -47c-71 -73 -175 -188 -278 -303l110 6v-47
c-33 1 -86 5 -139 8c-85 -95 -166 -188 -226 -256h266c101 0 135 24 154 136l10 59c11 -1 40 -1 51 0c-14 -59 -36 -187 -45 -246c-56 2 -121 3 -172 3h-393z" />
    <glyph glyph-name="abreve" unicode="&#x103;" horiz-adv-x="540" 
d="M527 161c-12 -113 -65 -178 -129 -178c-68 0 -96 31 -81 125c-40 -81 -100 -125 -163 -125c-78 0 -130 54 -110 204c24 182 115 282 219 282c67 0 106 -39 112 -106c18 31 42 69 56 97h39c-19 -75 -55 -237 -71 -319c-17 -87 -10 -117 20 -118c40 0 64 60 78 142zM183 23
c68 0 135 82 166 245c20 110 -4 161 -69 161c-66 0 -121 -61 -151 -241c-20 -118 -5 -165 54 -165zM324 535c-97 0 -128 65 -110 145l14 2c-4 -69 27 -89 102 -89s112 23 124 89l14 -2c-1 -80 -47 -145 -144 -145z" />
    <glyph glyph-name="amacron" unicode="&#x101;" horiz-adv-x="540" 
d="M527 161c-12 -113 -65 -178 -129 -178c-68 0 -96 31 -81 125c-40 -81 -100 -125 -163 -125c-78 0 -130 54 -110 204c24 182 115 282 219 282c67 0 106 -39 112 -106c18 31 42 69 56 97h39c-19 -75 -55 -237 -71 -319c-17 -87 -10 -117 20 -118c40 0 64 60 78 142zM183 23
c68 0 135 82 166 245c20 110 -4 161 -69 161c-66 0 -121 -61 -151 -241c-20 -118 -5 -165 54 -165zM180 539c4 10 8 42 8 53c61 -2 189 -2 250 0c-4 -11 -9 -42 -8 -53c-61 2 -189 2 -250 0z" />
    <glyph glyph-name="aogonek" unicode="&#x105;" horiz-adv-x="540" 
d="M561 -84c-13 -75 -61 -122 -135 -122c-62 0 -96 37 -89 89c6 44 34 78 80 103c-7 -2 -14 -3 -19 -3c-68 0 -96 31 -81 125c-40 -81 -100 -125 -163 -125c-78 0 -130 54 -110 204c24 182 115 282 219 282c67 0 106 -39 112 -106c18 31 42 69 56 97h39
c-19 -75 -54 -237 -71 -319c-16 -87 -10 -117 20 -118c40 0 64 60 78 142l30 -4c-9 -76 -30 -118 -67 -155c-35 -36 -60 -68 -64 -106c-5 -42 19 -61 54 -61c45 0 76 34 89 81zM183 23c68 0 135 82 166 245c20 110 -4 161 -69 161c-66 0 -121 -61 -151 -241
c-20 -118 -5 -165 54 -165z" />
    <glyph glyph-name="aringacute" unicode="&#x1fb;" horiz-adv-x="540" 
d="M527 161c-12 -113 -65 -178 -129 -178c-68 0 -96 31 -81 125c-40 -81 -100 -125 -163 -125c-78 0 -130 54 -110 204c24 182 115 282 219 282c67 0 106 -39 112 -106c18 31 42 69 56 97h39c-19 -75 -55 -237 -71 -319c-17 -87 -10 -117 20 -118c40 0 64 60 78 142zM183 23
c68 0 135 82 166 245c20 110 -4 161 -69 161c-66 0 -121 -61 -151 -241c-20 -118 -5 -165 54 -165zM316 731l-7 9c42 48 94 106 128 135c35 26 70 -20 35 -45c-34 -25 -102 -66 -156 -99zM278 605c-4 -34 14 -54 43 -54c30 0 51 20 55 54c3 34 -16 52 -44 52
c-30 0 -51 -18 -54 -52zM246 605c5 49 40 79 88 79c47 0 78 -32 73 -79c-5 -50 -41 -81 -89 -81c-47 0 -78 33 -72 81z" />
    <glyph glyph-name="aeacute" unicode="&#x1fd;" horiz-adv-x="749" 
d="M409 526l-7 9c42 48 94 106 128 135c35 26 70 -20 35 -45c-34 -25 -102 -66 -156 -99zM645 137l31 -9c-32 -92 -80 -145 -179 -145c-112 0 -163 50 -165 151c-40 -97 -107 -151 -176 -151c-78 0 -133 54 -113 204c25 182 116 282 219 282c78 0 118 -51 114 -137
c45 92 118 137 201 137c104 0 128 -61 117 -136c-19 -121 -164 -140 -269 -138c-21 -129 4 -177 78 -177c67 0 115 28 142 119zM183 23c67 0 135 82 165 245c20 110 -3 161 -68 161c-66 0 -121 -61 -152 -241c-19 -118 -4 -165 55 -165zM429 218c125 -2 171 22 190 107
c13 55 4 110 -51 110c-64 0 -105 -45 -139 -217z" />
    <glyph glyph-name="cacute" unicode="&#x107;" horiz-adv-x="450" 
d="M265 526l-7 9c42 48 94 106 128 135c35 26 70 -20 35 -45c-34 -25 -102 -66 -156 -99zM201 -17c-134 0 -181 84 -151 243c31 163 128 243 238 243c85 0 126 -40 123 -103c-1 -49 -27 -73 -63 -73c-30 0 -49 17 -45 50c4 35 41 50 72 40c-5 30 -31 52 -85 52
c-73 0 -119 -44 -151 -208c-33 -166 2 -209 79 -209c64 0 108 38 132 119l34 -9c-32 -92 -92 -145 -183 -145z" />
    <glyph glyph-name="ccaron" unicode="&#x10d;" horiz-adv-x="450" 
d="M189 670l9 8c34 -24 89 -74 116 -105c35 32 93 83 130 106l7 -9c-31 -48 -90 -110 -129 -141h-42c-28 29 -70 93 -91 141zM201 -17c-134 0 -181 84 -151 243c31 163 128 243 238 243c85 0 126 -40 123 -103c-1 -49 -27 -73 -63 -73c-30 0 -49 17 -45 50c4 35 41 50 72 40
c-5 30 -31 52 -85 52c-73 0 -119 -44 -151 -208c-33 -166 2 -209 79 -209c64 0 108 38 132 119l34 -9c-32 -92 -92 -145 -183 -145z" />
    <glyph glyph-name="ccircumflex" unicode="&#x109;" horiz-adv-x="450" 
d="M420 533l-9 -8c-34 23 -74 64 -101 99c-34 -32 -107 -77 -145 -100l-7 9c32 47 97 110 136 140h42c29 -29 64 -92 84 -140zM201 -17c-134 0 -181 84 -151 243c31 163 128 243 238 243c85 0 126 -40 123 -103c-1 -49 -27 -73 -63 -73c-30 0 -49 17 -45 50
c4 35 41 50 72 40c-5 30 -31 52 -85 52c-73 0 -119 -44 -151 -208c-33 -166 2 -209 79 -209c64 0 108 38 132 119l34 -9c-32 -92 -92 -145 -183 -145z" />
    <glyph glyph-name="cdotaccent" unicode="&#x10b;" horiz-adv-x="450" 
d="M201 -17c-134 0 -181 84 -151 243c31 163 128 243 238 243c85 0 126 -40 123 -103c-1 -49 -27 -73 -63 -73c-30 0 -49 17 -45 50c4 35 41 50 72 40c-5 30 -31 52 -85 52c-73 0 -119 -44 -151 -208c-33 -166 2 -209 79 -209c64 0 108 38 132 119l34 -9
c-32 -92 -92 -145 -183 -145zM339 598c0 -28 -22 -50 -49 -50s-50 22 -50 50s23 50 50 50s49 -22 49 -50z" />
    <glyph glyph-name="dcaron" unicode="&#x10f;" horiz-adv-x="664" 
d="M603 595c-26 0 -40 15 -38 45c2 28 25 50 57 50c40 0 51 -32 48 -68c-6 -62 -52 -116 -138 -144l-5 19c65 21 114 59 119 123c-8 -16 -24 -25 -43 -25zM492 594c-24 -107 -72 -337 -89 -444c-15 -93 -16 -127 18 -127c40 0 62 60 75 142l30 -4
c-10 -99 -55 -178 -128 -178c-70 0 -92 38 -80 124c-39 -80 -97 -124 -160 -124c-79 0 -134 54 -114 204c24 182 116 282 219 282c60 0 96 -30 109 -82l41 211c7 33 1 50 -37 50h-42l5 41c37 -2 127 -2 165 0c0 -27 -4 -56 -12 -95zM184 23c67 0 135 82 165 245
c20 110 -3 161 -68 161c-66 0 -122 -61 -152 -241c-20 -118 -4 -165 55 -165z" />
    <glyph glyph-name="dcroat" unicode="&#x111;" horiz-adv-x="545" 
d="M492 594l-8 -33c30 0 58 1 78 2c-3 -11 -6 -32 -6 -43c-21 0 -50 1 -80 1c-25 -117 -59 -285 -73 -371c-15 -93 -16 -127 18 -127c40 0 62 60 75 142l30 -4c-10 -99 -55 -178 -128 -178c-70 0 -92 38 -80 124c-39 -80 -97 -124 -160 -124c-79 0 -134 54 -114 204
c24 182 116 282 219 282c60 0 96 -30 109 -82l26 134c-36 0 -69 0 -92 -1c3 10 6 32 7 43c23 -1 57 -2 93 -2l7 37c7 33 1 50 -37 50h-42l5 41c37 -2 127 -2 165 0c0 -27 -4 -56 -12 -95zM184 23c67 0 135 82 165 245c20 110 -3 161 -68 161c-66 0 -122 -61 -152 -241
c-20 -118 -4 -165 55 -165z" />
    <glyph glyph-name="ebreve" unicode="&#x115;" horiz-adv-x="456" 
d="M352 137l34 -9c-32 -92 -80 -145 -180 -145c-141 0 -186 82 -156 243c31 163 127 243 237 243c104 0 129 -64 117 -139c-21 -123 -167 -138 -271 -135c-21 -128 7 -177 79 -177c68 0 114 28 140 119zM137 218c126 -2 173 17 192 103c12 56 3 114 -51 114
c-64 0 -107 -44 -141 -217zM301 535c-97 0 -128 65 -110 145l14 2c-4 -69 27 -89 102 -89s112 23 124 89l14 -2c-1 -80 -47 -145 -144 -145z" />
    <glyph glyph-name="ecaron" unicode="&#x11b;" horiz-adv-x="456" 
d="M189 670l9 8c34 -24 89 -74 116 -105c35 32 93 83 130 106l7 -9c-31 -48 -90 -110 -129 -141h-42c-28 29 -70 93 -91 141zM352 137l34 -9c-32 -92 -80 -145 -180 -145c-141 0 -186 82 -156 243c31 163 127 243 237 243c104 0 129 -64 117 -139
c-21 -123 -167 -138 -271 -135c-21 -128 7 -177 79 -177c68 0 114 28 140 119zM137 218c126 -2 173 17 192 103c12 56 3 114 -51 114c-64 0 -107 -44 -141 -217z" />
    <glyph glyph-name="edotaccent" unicode="&#x117;" horiz-adv-x="456" 
d="M352 137l34 -9c-32 -92 -80 -145 -180 -145c-141 0 -186 82 -156 243c31 163 127 243 237 243c104 0 129 -64 117 -139c-21 -123 -167 -138 -271 -135c-21 -128 7 -177 79 -177c68 0 114 28 140 119zM137 218c126 -2 173 17 192 103c12 56 3 114 -51 114
c-64 0 -107 -44 -141 -217zM330 598c0 -28 -22 -50 -49 -50s-50 22 -50 50s23 50 50 50s49 -22 49 -50z" />
    <glyph glyph-name="emacron" unicode="&#x113;" horiz-adv-x="456" 
d="M352 137l34 -9c-32 -92 -80 -145 -180 -145c-141 0 -186 82 -156 243c31 163 127 243 237 243c104 0 129 -64 117 -139c-21 -123 -167 -138 -271 -135c-21 -128 7 -177 79 -177c68 0 114 28 140 119zM137 218c126 -2 173 17 192 103c12 56 3 114 -51 114
c-64 0 -107 -44 -141 -217zM169 539c4 10 8 42 8 53c61 -2 189 -2 250 0c-4 -11 -9 -42 -8 -53c-61 2 -189 2 -250 0z" />
    <glyph glyph-name="eogonek" unicode="&#x119;" horiz-adv-x="456" 
d="M392 -84c-12 -75 -60 -122 -134 -122c-63 0 -96 37 -89 89c6 50 43 83 86 105c-14 -3 -31 -5 -49 -5c-141 0 -186 82 -156 243c31 163 127 243 237 243c104 0 129 -64 117 -139c-21 -123 -167 -138 -271 -135c-21 -128 7 -177 79 -177c68 0 114 28 140 119l34 -9
c-20 -59 -43 -90 -87 -124c-40 -31 -67 -62 -72 -104c-5 -41 19 -61 55 -61c45 0 76 34 89 81zM139 227l-2 -9c127 -2 173 17 192 103c12 56 3 114 -51 114c-64 0 -107 -44 -139 -208z" />
    <glyph glyph-name="gbreve" unicode="&#x11f;" horiz-adv-x="496" 
d="M301 33l16 83c-37 -86 -96 -133 -161 -133c-78 0 -133 54 -113 204c25 182 115 282 219 282c65 0 104 -36 112 -98c28 22 63 57 73 124h25c-24 -106 -69 -331 -86 -430c-30 -182 -124 -268 -254 -268c-99 0 -135 56 -117 109c9 28 31 46 62 46s51 -21 45 -52
c-6 -35 -45 -49 -77 -34c7 -24 33 -41 88 -41c102 0 142 76 168 208zM183 23c67 0 135 82 165 245c20 110 -3 161 -68 161c-66 0 -122 -61 -152 -241c-20 -118 -4 -165 55 -165zM301 535c-97 0 -128 65 -110 145l14 2c-4 -69 27 -89 102 -89s112 23 124 89l14 -2
c-1 -80 -47 -145 -144 -145z" />
    <glyph glyph-name="gcircumflex" unicode="&#x11d;" horiz-adv-x="496" 
d="M442 533l-9 -8c-34 23 -74 64 -101 99c-34 -32 -107 -77 -145 -100l-7 9c32 47 97 110 136 140h42c29 -29 64 -92 84 -140zM301 33l16 83c-37 -86 -96 -133 -161 -133c-78 0 -133 54 -113 204c25 182 115 282 219 282c65 0 104 -36 112 -98c28 22 63 57 73 124h25
c-24 -106 -69 -331 -86 -430c-30 -182 -124 -268 -254 -268c-99 0 -135 56 -117 109c9 28 31 46 62 46s51 -21 45 -52c-6 -35 -45 -49 -77 -34c7 -24 33 -41 88 -41c102 0 142 76 168 208zM183 23c67 0 135 82 165 245c20 110 -3 161 -68 161c-66 0 -122 -61 -152 -241
c-20 -118 -4 -165 55 -165z" />
    <glyph glyph-name="gcommaaccent" unicode="&#x123;" horiz-adv-x="496" 
d="M306 617c26 0 40 -15 38 -45c-2 -28 -25 -50 -57 -50c-40 0 -51 32 -48 68c6 62 52 116 138 144l5 -19c-65 -21 -114 -59 -119 -123c8 16 24 25 43 25zM301 33l16 83c-37 -86 -96 -133 -161 -133c-78 0 -133 54 -113 204c25 182 115 282 219 282c65 0 104 -36 112 -98
c28 22 63 57 73 124h25c-24 -106 -69 -331 -86 -430c-30 -182 -124 -268 -254 -268c-99 0 -135 56 -117 109c9 28 31 46 62 46s51 -21 45 -52c-6 -35 -45 -49 -77 -34c7 -24 33 -41 88 -41c102 0 142 76 168 208zM183 23c67 0 135 82 165 245c20 110 -3 161 -68 161
c-66 0 -122 -61 -152 -241c-20 -118 -4 -165 55 -165z" />
    <glyph glyph-name="gdotaccent" unicode="&#x121;" horiz-adv-x="496" 
d="M301 33l16 83c-37 -86 -96 -133 -161 -133c-78 0 -133 54 -113 204c25 182 115 282 219 282c65 0 104 -36 112 -98c28 22 63 57 73 124h25c-24 -106 -69 -331 -86 -430c-30 -182 -124 -268 -254 -268c-99 0 -135 56 -117 109c9 28 31 46 62 46s51 -21 45 -52
c-6 -35 -45 -49 -77 -34c7 -24 33 -41 88 -41c102 0 142 76 168 208zM183 23c67 0 135 82 165 245c20 110 -3 161 -68 161c-66 0 -122 -61 -152 -241c-20 -118 -4 -165 55 -165zM362 598c0 -28 -22 -50 -49 -50s-50 22 -50 50s23 50 50 50s49 -22 49 -50z" />
    <glyph glyph-name="hbar" unicode="&#x127;" horiz-adv-x="544" 
d="M45 520c3 10 6 32 7 43c22 -1 55 -2 89 -2l6 37c6 34 2 50 -37 50h-36l3 41c39 -2 124 -2 163 0c-2 -30 -7 -57 -14 -95l-7 -33c32 0 61 1 82 2c-3 -11 -6 -32 -6 -43c-22 0 -52 1 -84 1l-39 -200c44 106 108 148 177 148c92 0 121 -57 82 -204l-31 -117
c-22 -87 -21 -125 16 -125c39 0 63 57 75 142l31 -4c-9 -83 -47 -178 -133 -178c-78 0 -102 53 -73 161l32 122c32 121 16 163 -31 163c-70 0 -140 -89 -182 -301l-26 -130s-27 2 -41 2c-15 0 -40 -2 -40 -2c27 122 77 364 106 523c-34 0 -67 -1 -89 -1z" />
    <glyph glyph-name="hcircumflex" unicode="&#x125;" horiz-adv-x="544" 
d="M323 731l-9 -8c-34 23 -74 64 -101 99c-34 -32 -107 -77 -145 -100l-7 9c32 47 97 110 136 140h42c29 -29 64 -92 84 -140zM491 164l31 -4c-9 -83 -47 -178 -133 -178c-78 0 -102 53 -73 161l32 122c32 121 16 163 -31 163c-70 0 -140 -89 -182 -301l-26 -130
s-27 2 -41 2c-15 0 -40 -2 -40 -2c32 144 95 455 119 600c6 34 2 50 -37 50h-36l3 41c39 -2 124 -2 163 0c-2 -30 -7 -57 -14 -95l-54 -273c44 106 108 148 177 148c92 0 121 -57 82 -204l-31 -117c-22 -87 -21 -125 16 -125c39 0 63 57 75 142z" />
    <glyph glyph-name="ibreve" unicode="&#x12d;" horiz-adv-x="323" 
d="M220 302l-47 -170c-20 -76 -6 -106 22 -107c43 0 65 58 78 140l30 -4c-8 -80 -45 -178 -132 -178c-77 0 -109 51 -83 145l52 184c24 86 14 117 -13 117c-42 0 -69 -64 -83 -146l-31 3c9 88 52 183 130 183c90 0 105 -66 77 -167zM185 535c-97 0 -128 65 -110 145l14 2
c-4 -69 27 -89 102 -89s112 23 124 89l14 -2c-1 -80 -47 -145 -144 -145z" />
    <glyph glyph-name="idotaccent" horiz-adv-x="323" 
d="M273 628c-2 -33 -29 -59 -64 -59c-33 0 -54 26 -52 59s28 58 64 58c33 0 54 -26 52 -58zM220 302l-47 -170c-22 -75 -13 -106 22 -107c39 0 61 55 75 140l30 -4c-8 -77 -42 -178 -135 -178c-69 0 -103 51 -77 145l52 184c24 86 14 117 -13 117c-42 0 -69 -64 -83 -146
l-31 3c9 88 52 183 130 183c90 0 105 -66 77 -167z" />
    <glyph glyph-name="imacron" unicode="&#x12b;" horiz-adv-x="323" 
d="M220 302l-47 -170c-20 -76 -6 -106 22 -107c43 0 65 58 78 140l30 -4c-8 -80 -45 -178 -132 -178c-77 0 -109 51 -83 145l52 184c24 86 14 117 -13 117c-42 0 -69 -64 -83 -146l-31 3c9 88 52 183 130 183c90 0 105 -66 77 -167zM74 539c4 10 8 42 8 53
c61 -2 189 -2 250 0c-4 -11 -9 -42 -8 -53c-61 2 -189 2 -250 0z" />
    <glyph glyph-name="iogonek" unicode="&#x12f;" horiz-adv-x="323" 
d="M334 -84c-13 -75 -61 -122 -135 -122c-62 0 -96 37 -89 89c6 43 35 79 80 104c-9 -3 -19 -4 -25 -4c-69 0 -103 51 -77 145l52 184c24 86 14 117 -13 117c-42 0 -69 -64 -83 -146l-31 3c9 88 52 183 130 183c90 0 104 -66 77 -167l-47 -170c-22 -75 -13 -106 22 -107
c39 0 61 55 75 140l30 -4c-8 -68 -28 -114 -66 -154c-39 -40 -61 -71 -65 -107c-5 -41 19 -61 54 -61c45 0 76 34 89 81zM273 628c-2 -33 -29 -59 -64 -59c-33 0 -54 26 -52 59s28 58 64 58c33 0 54 -26 52 -58z" />
    <glyph glyph-name="itilde" unicode="&#x129;" horiz-adv-x="323" 
d="M220 302l-47 -170c-20 -76 -6 -106 22 -107c43 0 65 58 78 140l30 -4c-8 -80 -45 -178 -132 -178c-77 0 -109 51 -83 145l52 184c24 86 14 117 -13 117c-42 0 -69 -64 -83 -146l-31 3c9 88 52 183 130 183c90 0 105 -66 77 -167zM335 652l19 2c19 -100 -36 -140 -96 -136
c-45 3 -65 25 -85 62c-22 43 -32 61 -61 61c-28 0 -51 -27 -44 -100l-18 -2c-20 100 33 140 95 136c40 -2 60 -19 84 -62c22 -41 34 -61 62 -61c31 0 51 29 44 100z" />
    <glyph glyph-name="ij" unicode="&#x133;" horiz-adv-x="547" 
d="M298 612c-3 -33 -29 -59 -66 -59c-34 0 -53 26 -51 59c3 33 30 58 66 58c34 0 53 -25 51 -58zM503 612c-3 -33 -30 -59 -66 -59c-34 0 -53 26 -50 59c2 33 29 58 65 58c33 0 54 -25 51 -58zM43 283l-31 3c8 77 45 183 132 183c81 0 104 -55 75 -162l-31 -119
c-32 -123 -15 -165 30 -165c54 0 134 57 178 281l31 157s26 -2 41 -2c14 0 41 2 41 2c-8 -34 -77 -369 -83 -403c-32 -175 -128 -261 -258 -261c-99 0 -135 56 -118 109c9 28 31 46 63 46c31 0 51 -21 45 -52c-6 -35 -45 -50 -78 -34c8 -25 35 -41 89 -41
c101 0 146 76 172 208l18 93c-42 -100 -106 -143 -173 -143c-91 0 -117 54 -80 206l29 117c22 91 18 123 -11 123c-44 0 -68 -64 -81 -146z" />
    <glyph glyph-name="jacute" horiz-adv-x="283" 
d="M215 300l-55 -279c-32 -163 -107 -224 -205 -224c-68 0 -95 35 -91 75c3 36 27 56 57 56c27 0 43 -16 41 -40c-2 -36 -37 -48 -64 -39c7 -15 23 -24 53 -24c69 0 98 50 126 197l56 288c15 76 20 119 -12 119c-41 0 -67 -64 -81 -146l-31 3c12 100 55 183 134 183
c92 0 90 -79 72 -169zM164 526l-7 9c42 48 94 106 128 135c35 26 70 -20 35 -45c-34 -25 -102 -66 -156 -99z" />
    <glyph glyph-name="jcircumflex" unicode="&#x135;" horiz-adv-x="283" 
d="M215 300l-55 -279c-32 -163 -107 -224 -205 -224c-68 0 -95 35 -91 75c3 36 27 56 57 56c27 0 43 -16 41 -40c-2 -36 -37 -48 -64 -39c7 -15 23 -24 53 -24c69 0 98 50 126 197l56 288c15 76 20 119 -12 119c-41 0 -67 -64 -81 -146l-31 3c12 100 55 183 134 183
c92 0 90 -79 72 -169zM302 533l-9 -8c-34 23 -74 64 -101 99c-34 -32 -107 -77 -145 -100l-7 9c32 47 97 110 136 140h42c29 -29 64 -92 84 -140z" />
    <glyph glyph-name="uni0237" unicode="&#x237;" horiz-adv-x="283" 
d="M215 300l-55 -279c-32 -163 -107 -224 -205 -224c-68 0 -95 35 -91 75c3 36 27 56 57 56c27 0 43 -16 41 -40c-2 -36 -37 -48 -64 -39c7 -15 23 -24 53 -24c69 0 98 50 126 197l56 288c15 76 20 119 -12 119c-41 0 -67 -64 -81 -146l-31 3c12 100 55 183 134 183
c92 0 90 -79 72 -169z" />
    <glyph glyph-name="kcommaaccent" unicode="&#x137;" horiz-adv-x="506" 
d="M190 -150c-26 0 -40 15 -38 45c2 28 25 50 57 50c40 0 51 -32 48 -68c-6 -62 -52 -116 -138 -144l-5 19c65 21 114 59 119 123c-8 -16 -24 -25 -43 -25zM453 165l30 -4c-5 -90 -39 -178 -127 -178c-77 0 -99 49 -83 118c18 77 8 114 -121 102c-4 -14 -8 -28 -11 -43
l-32 -161s-27 1 -41 1c-15 0 -40 -1 -40 -1c31 144 95 455 119 599c6 34 2 50 -37 50h-36l3 41c39 -2 124 -2 163 0c-2 -30 -7 -60 -14 -95l-53 -268c44 101 107 143 170 143c78 0 109 -41 92 -118c-13 -58 -82 -108 -153 -129c69 -8 84 -60 73 -129c-8 -45 3 -70 29 -70
c42 0 63 66 69 142zM310 423c-57 0 -108 -43 -153 -201c119 3 182 49 198 120c12 53 -9 81 -45 81z" />
    <glyph glyph-name="kgreenlandic" unicode="&#x138;" horiz-adv-x="546" 
d="M39 283l-31 3c9 81 48 183 131 183c75 0 90 -58 78 -136c44 96 108 136 169 136c77 0 106 -41 89 -118c-13 -58 -82 -108 -153 -129c69 -8 84 -60 73 -129c-8 -45 3 -69 29 -70c42 0 63 66 69 142l30 -4c-5 -90 -39 -178 -127 -178c-77 0 -99 49 -83 118
c18 77 8 114 -122 102l-18 -78l-27 -126s-26 1 -41 1c-14 0 -41 -1 -41 -1c18 71 52 221 66 293c21 101 24 137 -12 137s-65 -61 -79 -146zM353 423c-57 0 -110 -43 -156 -201c119 3 181 49 197 120c12 53 -7 81 -41 81z" />
    <glyph glyph-name="lacute" unicode="&#x13a;" horiz-adv-x="279" 
d="M164 726l-7 9c42 48 94 106 128 135c35 26 70 -20 35 -45c-34 -25 -102 -66 -156 -99zM226 594c-31 -147 -65 -326 -87 -446c-17 -92 -15 -124 21 -125c39 0 63 57 75 142l30 -4c-8 -85 -47 -178 -131 -178c-77 0 -101 53 -75 161c28 122 75 368 88 454c5 33 1 50 -38 50
h-35l5 41c37 -2 121 -2 159 0c0 -27 -4 -56 -12 -95z" />
    <glyph glyph-name="lcaron" unicode="&#x13e;" horiz-adv-x="398" 
d="M337 595c-26 0 -40 15 -38 45c2 28 25 50 57 50c40 0 51 -32 48 -68c-6 -62 -52 -116 -138 -144l-5 19c65 21 114 59 119 123c-8 -16 -24 -25 -43 -25zM226 594c-31 -147 -65 -326 -87 -446c-17 -92 -15 -124 21 -125c39 0 63 57 75 142l30 -4c-8 -85 -47 -178 -131 -178
c-77 0 -101 53 -75 161c28 122 75 368 88 454c5 33 1 50 -38 50h-35l5 41c37 -2 121 -2 159 0c0 -27 -4 -56 -12 -95z" />
    <glyph glyph-name="lcommaaccent" unicode="&#x13c;" horiz-adv-x="279" 
d="M89 -150c-26 0 -40 15 -38 45c2 28 25 50 57 50c40 0 51 -32 48 -68c-6 -62 -52 -116 -138 -144l-5 19c65 21 114 59 119 123c-8 -16 -24 -25 -43 -25zM226 594c-31 -147 -65 -326 -87 -446c-17 -92 -15 -124 21 -125c39 0 63 57 75 142l30 -4c-8 -85 -47 -178 -131 -178
c-77 0 -101 53 -75 161c28 122 75 368 88 454c5 33 1 50 -38 50h-35l5 41c37 -2 121 -2 159 0c0 -27 -4 -56 -12 -95z" />
    <glyph glyph-name="ldot" unicode="&#x140;" horiz-adv-x="394" 
d="M226 594c-31 -147 -65 -326 -87 -446c-17 -92 -15 -124 21 -125c39 0 63 57 75 142l30 -4c-8 -85 -47 -178 -131 -178c-77 0 -101 53 -75 161c28 122 75 368 88 454c5 33 1 50 -38 50h-35l5 41c37 -2 121 -2 159 0c0 -27 -4 -56 -12 -95zM386 315c0 -28 -22 -50 -49 -50
s-50 22 -50 50s23 50 50 50s49 -22 49 -50z" />
    <glyph glyph-name="nacute" unicode="&#x144;" horiz-adv-x="584" 
d="M323 526l-7 9c42 48 94 106 128 135c35 26 70 -20 35 -45c-34 -25 -102 -66 -156 -99zM39 283l-31 3c8 76 45 183 132 183c72 0 89 -54 78 -134c43 96 104 134 170 134c92 0 122 -57 83 -204l-31 -117c-22 -87 -21 -125 16 -125c39 0 63 57 75 142l30 -4
c-8 -83 -46 -178 -132 -178c-78 0 -103 53 -73 161l33 122c33 122 14 163 -33 163c-62 0 -134 -67 -183 -304l-26 -126s-27 1 -42 1c-14 0 -41 -1 -41 -1c13 48 56 245 66 293c22 101 24 137 -12 137c-34 0 -64 -55 -79 -146z" />
    <glyph glyph-name="napostrophe" unicode="&#x149;" horiz-adv-x="584" 
d="M133 615c-26 0 -40 15 -38 45c2 28 25 50 57 50c40 0 51 -32 48 -68c-6 -62 -52 -116 -138 -144l-5 19c65 21 114 59 119 123c-8 -16 -24 -25 -43 -25zM39 283l-31 3c8 76 45 183 132 183c72 0 89 -54 78 -134c43 96 104 134 170 134c92 0 122 -57 83 -204l-31 -117
c-22 -87 -21 -125 16 -125c39 0 63 57 75 142l30 -4c-8 -83 -46 -178 -132 -178c-78 0 -103 53 -73 161l33 122c33 122 14 163 -33 163c-62 0 -134 -67 -183 -304l-26 -126s-27 1 -42 1c-14 0 -41 -1 -41 -1c13 48 56 245 66 293c22 101 24 137 -12 137
c-34 0 -64 -55 -79 -146z" />
    <glyph glyph-name="ncaron" unicode="&#x148;" horiz-adv-x="584" 
d="M233 670l9 8c34 -24 89 -74 116 -105c35 32 93 83 130 106l7 -9c-31 -48 -90 -110 -129 -141h-42c-28 29 -70 93 -91 141zM39 283l-31 3c8 76 45 183 132 183c72 0 89 -54 78 -134c43 96 104 134 170 134c92 0 122 -57 83 -204l-31 -117c-22 -87 -21 -125 16 -125
c39 0 63 57 75 142l30 -4c-8 -83 -46 -178 -132 -178c-78 0 -103 53 -73 161l33 122c33 122 14 163 -33 163c-62 0 -134 -67 -183 -304l-26 -126s-27 1 -42 1c-14 0 -41 -1 -41 -1c13 48 56 245 66 293c22 101 24 137 -12 137c-34 0 -64 -55 -79 -146z" />
    <glyph glyph-name="ncommaaccent" unicode="&#x146;" horiz-adv-x="584" 
d="M228 -150c-26 0 -40 15 -38 45c2 28 25 50 57 50c40 0 51 -32 48 -68c-6 -62 -52 -116 -138 -144l-5 19c65 21 114 59 119 123c-8 -16 -24 -25 -43 -25zM39 283l-31 3c8 76 45 183 132 183c72 0 89 -54 78 -134c43 96 104 134 170 134c92 0 122 -57 83 -204l-31 -117
c-22 -87 -21 -125 16 -125c39 0 63 57 75 142l30 -4c-8 -83 -46 -178 -132 -178c-78 0 -103 53 -73 161l33 122c33 122 14 163 -33 163c-62 0 -134 -67 -183 -304l-26 -126s-27 1 -42 1c-14 0 -41 -1 -41 -1c13 48 56 245 66 293c22 101 24 137 -12 137
c-34 0 -64 -55 -79 -146z" />
    <glyph glyph-name="eng" unicode="&#x14b;" horiz-adv-x="530" 
d="M39 283l-31 3c9 81 48 183 131 183c74 0 90 -55 79 -133c43 95 104 133 170 133c92 0 116 -59 82 -204l-56 -244c-38 -167 -113 -224 -211 -224c-68 0 -95 35 -91 75c3 38 29 56 57 56c27 0 43 -16 41 -40c-3 -36 -37 -47 -65 -38c7 -15 23 -25 54 -25
c69 0 101 58 128 173l60 258c31 134 16 173 -31 173c-62 0 -137 -80 -183 -304l-26 -126s-27 1 -42 1c-14 0 -41 -1 -41 -1c13 48 56 245 66 293c22 101 24 137 -12 137s-65 -61 -79 -146z" />
    <glyph glyph-name="obreve" unicode="&#x14f;" horiz-adv-x="472" 
d="M192 17c75 0 131 101 154 273c15 111 -14 146 -73 146c-75 0 -132 -109 -154 -271c-15 -109 14 -148 73 -148zM190 -17c-106 0 -174 59 -153 212c17 120 91 274 236 274c103 0 170 -55 155 -192c-16 -145 -91 -294 -238 -294zM324 535c-97 0 -128 65 -110 145l14 2
c-4 -69 27 -89 102 -89s112 23 124 89l14 -2c-1 -80 -47 -145 -144 -145z" />
    <glyph glyph-name="ohungarumlaut" unicode="&#x151;" horiz-adv-x="472" 
d="M208 524l-9 8c36 52 78 116 108 148c30 33 73 -7 42 -38c-29 -29 -90 -80 -141 -118zM372 524l-9 8c36 53 78 117 107 148c31 32 74 -7 42 -38c-28 -29 -89 -80 -140 -118zM192 17c75 0 131 101 154 273c15 111 -14 146 -73 146c-75 0 -132 -109 -154 -271
c-15 -109 14 -148 73 -148zM190 -17c-106 0 -174 59 -153 212c17 120 91 274 236 274c103 0 170 -55 155 -192c-16 -145 -91 -294 -238 -294z" />
    <glyph glyph-name="omacron" unicode="&#x14d;" horiz-adv-x="472" 
d="M174 539c4 10 8 42 8 53c61 -2 189 -2 250 0c-4 -11 -9 -42 -8 -53c-61 2 -189 2 -250 0zM192 17c75 0 131 101 154 273c15 111 -14 146 -73 146c-75 0 -132 -109 -154 -271c-15 -109 14 -148 73 -148zM190 -17c-106 0 -174 59 -153 212c17 120 91 274 236 274
c103 0 170 -55 155 -192c-16 -145 -91 -294 -238 -294z" />
    <glyph glyph-name="oslashacute" unicode="&#x1ff;" horiz-adv-x="472" 
d="M190 -17c-27 0 -51 4 -72 12l-44 -68l-12 9l34 69c-48 29 -73 89 -59 190c17 120 91 274 236 274c26 0 50 -4 71 -11l29 43l12 -6l-21 -47c48 -27 74 -81 64 -171c-16 -145 -91 -294 -238 -294zM192 17c75 0 131 101 154 273c7 52 4 87 -7 110l-100 -177l-99 -189
c13 -12 30 -17 52 -17zM124 56l106 187l93 178c-12 11 -30 15 -50 15c-75 0 -132 -109 -154 -271c-7 -50 -5 -86 5 -109zM291 526l-7 9c42 48 94 106 128 135c35 26 70 -20 35 -45c-34 -25 -102 -66 -156 -99z" />
    <glyph glyph-name="racute" unicode="&#x155;" horiz-adv-x="432" 
d="M241 526l-7 9c42 48 94 106 128 135c35 26 70 -20 35 -45c-34 -25 -102 -66 -156 -99zM295 345c6 37 53 50 81 35c-1 36 -20 57 -51 57c-42 0 -91 -31 -115 -144l-63 -294s-27 1 -41 1c-15 0 -41 -1 -41 -1c18 71 50 221 65 293c20 101 25 137 -8 137
c-41 0 -69 -64 -83 -146l-31 3c9 81 48 183 130 183c56 0 79 -32 82 -79c29 57 73 79 113 79c53 0 83 -35 75 -97c-7 -56 -34 -79 -69 -79c-29 0 -50 17 -44 52z" />
    <glyph glyph-name="rcaron" unicode="&#x159;" horiz-adv-x="432" 
d="M142 670l9 8c34 -24 89 -74 116 -105c35 32 93 83 130 106l7 -9c-31 -48 -90 -110 -129 -141h-42c-28 29 -70 93 -91 141zM295 345c6 37 53 50 81 35c-1 36 -20 57 -51 57c-42 0 -91 -31 -115 -144l-63 -294s-27 1 -41 1c-15 0 -41 -1 -41 -1c18 71 50 221 65 293
c20 101 25 137 -8 137c-41 0 -69 -64 -83 -146l-31 3c9 81 48 183 130 183c56 0 79 -32 82 -79c29 57 73 79 113 79c53 0 83 -35 75 -97c-7 -56 -34 -79 -69 -79c-29 0 -50 17 -44 52z" />
    <glyph glyph-name="rcommaaccent" unicode="&#x157;" horiz-adv-x="421" 
d="M69 -150c-26 0 -40 15 -38 45c2 28 25 50 57 50c40 0 51 -32 48 -68c-6 -62 -52 -116 -138 -144l-5 19c65 21 114 59 119 123c-8 -16 -24 -25 -43 -25zM295 345c6 37 53 50 81 35c-1 36 -20 57 -51 57c-42 0 -91 -31 -115 -144l-63 -294s-27 1 -41 1c-15 0 -41 -1 -41 -1
c18 71 50 221 65 293c20 101 25 137 -8 137c-41 0 -69 -64 -83 -146l-31 3c9 81 48 183 130 183c56 0 79 -32 82 -79c29 57 73 79 113 79c53 0 83 -35 75 -97c-7 -56 -34 -79 -69 -79c-29 0 -50 17 -44 52z" />
    <glyph glyph-name="sacute" unicode="&#x15b;" horiz-adv-x="415" 
d="M238 526l-7 9c42 48 94 106 128 135c35 26 70 -20 35 -45c-34 -25 -102 -66 -156 -99zM257 440c-65 0 -108 -27 -120 -62c-17 -51 6 -85 94 -109c120 -33 146 -92 128 -166c-19 -72 -87 -120 -190 -120c-95 0 -167 39 -152 117c5 27 28 47 58 47s46 -21 40 -48
c-6 -30 -38 -41 -64 -32c13 -32 58 -51 119 -51c65 0 116 22 129 66c12 49 -4 83 -105 111c-105 30 -139 82 -119 161c18 69 87 115 184 115c86 0 142 -38 134 -105c-5 -35 -29 -51 -58 -51c-28 0 -44 19 -40 45c4 32 36 42 64 36c-14 29 -51 46 -102 46z" />
    <glyph glyph-name="scedilla" unicode="&#x15f;" horiz-adv-x="415" 
d="M96 -112l-9 18c43 23 63 46 74 77c-91 2 -159 41 -144 117c5 27 28 47 58 47s46 -21 40 -48c-6 -30 -38 -41 -64 -32c13 -32 58 -51 119 -51c65 0 116 22 129 66c12 49 -4 83 -105 111c-105 30 -139 82 -119 161c18 69 87 115 184 115c86 0 142 -38 134 -105
c-5 -35 -29 -51 -58 -51c-28 0 -44 19 -40 45c4 32 36 42 64 36c-14 29 -51 46 -102 46c-65 0 -108 -27 -120 -62c-17 -51 6 -85 94 -109c120 -33 146 -92 128 -166c-18 -69 -81 -115 -177 -119c-4 -22 -15 -46 -38 -64c55 9 114 -14 110 -76c-4 -57 -49 -92 -120 -92
c-55 0 -85 26 -99 56l19 15c16 -23 39 -37 71 -37c42 0 65 23 67 59c3 42 -40 64 -96 43z" />
    <glyph glyph-name="scircumflex" unicode="&#x15d;" horiz-adv-x="415" 
d="M393 533l-9 -8c-34 23 -74 64 -101 99c-34 -32 -107 -77 -145 -100l-7 9c32 47 97 110 136 140h42c29 -29 64 -92 84 -140zM257 440c-65 0 -108 -27 -120 -62c-17 -51 6 -85 94 -109c120 -33 146 -92 128 -166c-19 -72 -87 -120 -190 -120c-95 0 -167 39 -152 117
c5 27 28 47 58 47s46 -21 40 -48c-6 -30 -38 -41 -64 -32c13 -32 58 -51 119 -51c65 0 116 22 129 66c12 49 -4 83 -105 111c-105 30 -139 82 -119 161c18 69 87 115 184 115c86 0 142 -38 134 -105c-5 -35 -29 -51 -58 -51c-28 0 -44 19 -40 45c4 32 36 42 64 36
c-14 29 -51 46 -102 46z" />
    <glyph glyph-name="scommaaccent" unicode="&#x219;" horiz-adv-x="415" 
d="M151 -150c-26 0 -40 15 -38 45c2 28 25 50 57 50c40 0 51 -32 48 -68c-6 -62 -52 -116 -138 -144l-5 19c65 21 114 59 119 123c-8 -16 -24 -25 -43 -25zM257 440c-65 0 -108 -27 -120 -62c-17 -51 6 -85 94 -109c120 -33 146 -92 128 -166c-19 -72 -87 -120 -190 -120
c-95 0 -167 39 -152 117c5 27 28 47 58 47s46 -21 40 -48c-6 -30 -38 -41 -64 -32c13 -32 58 -51 119 -51c65 0 116 22 129 66c12 49 -4 83 -105 111c-105 30 -139 82 -119 161c18 69 87 115 184 115c86 0 142 -38 134 -105c-5 -35 -29 -51 -58 -51c-28 0 -44 19 -40 45
c4 32 36 42 64 36c-14 29 -51 46 -102 46z" />
    <glyph glyph-name="tbar" unicode="&#x167;" horiz-adv-x="320" 
d="M235 165l30 -4c-10 -107 -47 -178 -132 -178c-83 0 -105 57 -86 158c6 32 18 84 30 139c-21 -2 -43 -4 -55 -4l6 39c13 -1 35 -2 55 -4c9 40 18 80 24 111h-65l4 36c109 1 131 51 169 173h28c-13 -51 -36 -129 -45 -174l108 3l-5 -38l-110 1l-22 -112l118 4l-8 -39
c-15 1 -72 3 -116 4l-27 -136c-18 -93 -8 -119 25 -119c38 0 65 49 74 140z" />
    <glyph glyph-name="tcaron" unicode="&#x165;" horiz-adv-x="430" 
d="M370 595c-26 0 -40 15 -38 45c2 28 25 50 57 50c40 0 51 -32 48 -68c-6 -62 -52 -116 -138 -144l-5 19c65 21 114 59 119 123c-8 -16 -24 -25 -43 -25zM235 165l30 -4c-10 -107 -47 -178 -132 -178c-83 0 -105 57 -86 158c12 62 44 200 60 281h-65l4 36
c109 1 131 51 169 173h28c-13 -51 -36 -129 -45 -174l108 3l-5 -38l-110 1l-55 -279c-18 -93 -8 -119 25 -119c38 0 65 49 74 140z" />
    <glyph glyph-name="tcommaaccent" unicode="&#x163;" horiz-adv-x="327" 
d="M55 -112l-9 18c43 23 63 47 74 78c-72 5 -91 61 -73 157c12 62 44 200 60 281h-65l4 36c109 1 131 51 169 173h28c-13 -51 -36 -129 -45 -174l108 3l-5 -38l-110 1l-55 -279c-18 -93 -8 -119 25 -119c38 0 65 49 74 140l30 -4c-10 -104 -45 -173 -124 -178
c-4 -21 -15 -45 -38 -63c55 9 114 -14 110 -76c-4 -57 -49 -92 -120 -92c-55 0 -85 26 -99 56l19 15c16 -23 39 -37 71 -37c42 0 65 23 67 59c3 42 -40 64 -96 43z" />
    <glyph glyph-name="uni021B" unicode="&#x21b;" horiz-adv-x="327" 
d="M89 -150c-26 0 -40 15 -38 45c2 28 25 50 57 50c40 0 51 -32 48 -68c-6 -62 -52 -116 -138 -144l-5 19c65 21 114 59 119 123c-8 -16 -24 -25 -43 -25zM235 165l30 -4c-10 -107 -47 -178 -132 -178c-83 0 -105 57 -86 158c12 62 44 200 60 281h-65l4 36
c109 1 131 51 169 173h28c-13 -51 -36 -129 -45 -174l108 3l-5 -38l-110 1l-55 -279c-18 -93 -8 -119 25 -119c38 0 65 49 74 140z" />
    <glyph glyph-name="ubreve" unicode="&#x16d;" horiz-adv-x="584" 
d="M534 165l31 -4c-9 -80 -49 -178 -129 -178c-77 0 -95 42 -79 137c-43 -96 -105 -137 -170 -137c-92 0 -117 58 -80 206l29 117c23 92 18 123 -10 123c-42 0 -70 -64 -83 -146l-31 3c8 77 44 183 131 183c81 0 101 -69 77 -162l-31 -119c-31 -122 -18 -165 29 -165
c57 0 125 50 176 271l35 166s26 -1 41 -1c14 0 41 1 41 1c-18 -72 -52 -227 -66 -298c-22 -110 -20 -139 12 -139c40 0 64 60 77 142zM334 535c-97 0 -128 65 -110 145l14 2c-4 -69 27 -89 102 -89s112 23 124 89l14 -2c-1 -80 -47 -145 -144 -145z" />
    <glyph glyph-name="uhungarumlaut" unicode="&#x171;" horiz-adv-x="584" 
d="M534 165l31 -4c-9 -80 -49 -178 -129 -178c-77 0 -95 42 -79 137c-43 -96 -105 -137 -170 -137c-92 0 -117 58 -80 206l29 117c23 92 18 123 -10 123c-42 0 -70 -64 -83 -146l-31 3c8 77 44 183 131 183c81 0 101 -69 77 -162l-31 -119c-31 -122 -18 -165 29 -165
c57 0 125 50 176 271l35 166s26 -1 41 -1c14 0 41 1 41 1c-18 -72 -52 -227 -66 -298c-22 -110 -20 -139 12 -139c40 0 64 60 77 142zM247 524l-9 8c36 52 78 116 108 148c30 33 73 -7 42 -38c-29 -29 -90 -80 -141 -118zM411 524l-9 8c36 53 78 117 107 148
c31 32 74 -7 42 -38c-28 -29 -89 -80 -140 -118z" />
    <glyph glyph-name="umacron" unicode="&#x16b;" horiz-adv-x="584" 
d="M534 165l31 -4c-9 -80 -49 -178 -129 -178c-77 0 -95 42 -79 137c-43 -96 -105 -137 -170 -137c-92 0 -117 58 -80 206l29 117c23 92 18 123 -10 123c-42 0 -70 -64 -83 -146l-31 3c8 77 44 183 131 183c81 0 101 -69 77 -162l-31 -119c-31 -122 -18 -165 29 -165
c57 0 125 50 176 271l35 166s26 -1 41 -1c14 0 41 1 41 1c-18 -72 -52 -227 -66 -298c-22 -110 -20 -139 12 -139c40 0 64 60 77 142zM204 539c4 10 8 42 8 53c61 -2 189 -2 250 0c-4 -11 -9 -42 -8 -53c-61 2 -189 2 -250 0z" />
    <glyph glyph-name="uogonek" unicode="&#x173;" horiz-adv-x="584" 
d="M599 -84c-13 -75 -61 -122 -135 -122c-63 0 -96 37 -89 89c6 44 34 78 79 103c-7 -2 -14 -3 -18 -3c-77 0 -95 42 -79 137c-43 -96 -105 -137 -170 -137c-92 0 -117 58 -80 206l29 117c23 92 18 123 -10 123c-42 0 -70 -64 -83 -146l-31 3c8 77 44 183 131 183
c81 0 98 -68 77 -162l-31 -119c-31 -122 -18 -165 29 -165c58 0 127 52 178 281l33 156s26 -1 41 -1c14 0 41 1 41 1c-18 -72 -53 -227 -66 -298c-23 -110 -20 -139 12 -139c40 0 64 60 77 142l31 -4c-10 -76 -31 -118 -67 -155c-36 -36 -60 -68 -65 -106
c-4 -41 19 -61 55 -61c45 0 76 34 89 81z" />
    <glyph glyph-name="uring" unicode="&#x16f;" horiz-adv-x="584" 
d="M293 605c-4 -34 14 -54 43 -54c30 0 51 20 55 54c3 34 -16 52 -44 52c-30 0 -51 -18 -54 -52zM261 605c5 49 40 79 88 79c47 0 78 -32 73 -79c-5 -50 -41 -81 -89 -81c-47 0 -78 33 -72 81zM534 165l31 -4c-9 -80 -49 -178 -129 -178c-77 0 -95 42 -79 137
c-43 -96 -105 -137 -170 -137c-92 0 -117 58 -80 206l29 117c23 92 18 123 -10 123c-42 0 -70 -64 -83 -146l-31 3c8 77 44 183 131 183c81 0 101 -69 77 -162l-31 -119c-31 -122 -18 -165 29 -165c57 0 125 50 176 271l35 166s26 -1 41 -1c14 0 41 1 41 1
c-18 -72 -52 -227 -66 -298c-22 -110 -20 -139 12 -139c40 0 64 60 77 142z" />
    <glyph glyph-name="utilde" unicode="&#x169;" horiz-adv-x="584" 
d="M534 165l31 -4c-9 -80 -49 -178 -129 -178c-77 0 -95 42 -79 137c-43 -96 -105 -137 -170 -137c-92 0 -117 58 -80 206l29 117c23 92 18 123 -10 123c-42 0 -70 -64 -83 -146l-31 3c8 77 44 183 131 183c81 0 101 -69 77 -162l-31 -119c-31 -122 -18 -165 29 -165
c57 0 125 50 176 271l35 166s26 -1 41 -1c14 0 41 1 41 1c-18 -72 -52 -227 -66 -298c-22 -110 -20 -139 12 -139c40 0 64 60 77 142zM455 652l19 2c19 -100 -36 -140 -96 -136c-45 3 -65 25 -85 62c-22 43 -32 61 -61 61c-28 0 -51 -27 -44 -100l-18 -2
c-20 100 33 140 95 136c40 -2 60 -19 84 -62c22 -41 34 -61 62 -61c31 0 51 29 44 100z" />
    <glyph glyph-name="wacute" unicode="&#x1e83;" horiz-adv-x="760" 
d="M462 526l-7 9c42 48 94 106 128 135c35 26 70 -20 35 -45c-34 -25 -102 -66 -156 -99zM182 -17c-92 0 -125 62 -78 206l38 117c29 91 19 123 -10 123c-41 0 -69 -64 -82 -146l-31 3c8 77 44 183 131 183c81 0 101 -71 73 -162l-36 -119c-36 -120 -21 -165 26 -165
c55 0 116 54 154 218l51 220s28 -2 44 -2c15 0 42 2 42 2l-67 -269c-32 -132 -17 -169 37 -169c91 0 163 151 184 264c6 36 10 64 10 93c-6 -3 -13 -4 -21 -4c-28 0 -53 15 -46 52c6 30 29 41 53 41c47 0 62 -38 51 -120c-15 -115 -103 -366 -263 -366
c-70 0 -109 30 -99 129c-40 -90 -98 -129 -161 -129z" />
    <glyph glyph-name="wcircumflex" unicode="&#x175;" horiz-adv-x="760" 
d="M601 533l-9 -8c-34 23 -74 64 -101 99c-34 -32 -107 -77 -145 -100l-7 9c32 47 97 110 136 140h42c29 -29 64 -92 84 -140zM182 -17c-92 0 -125 62 -78 206l38 117c29 91 19 123 -10 123c-41 0 -69 -64 -82 -146l-31 3c8 77 44 183 131 183c81 0 101 -71 73 -162
l-36 -119c-36 -120 -21 -165 26 -165c55 0 116 54 154 218l51 220s28 -2 44 -2c15 0 42 2 42 2l-67 -269c-32 -132 -17 -169 37 -169c91 0 163 151 184 264c6 36 10 64 10 93c-6 -3 -13 -4 -21 -4c-28 0 -53 15 -46 52c6 30 29 41 53 41c47 0 62 -38 51 -120
c-15 -115 -103 -366 -263 -366c-70 0 -109 30 -99 129c-40 -90 -98 -129 -161 -129z" />
    <glyph glyph-name="wdieresis" unicode="&#x1e85;" horiz-adv-x="760" 
d="M441 587c-3 -30 -27 -51 -56 -51c-27 0 -48 20 -45 51s27 50 56 50c27 0 48 -19 45 -50zM621 587c-4 -31 -28 -51 -56 -51s-48 20 -45 51c2 31 27 50 55 50c27 0 48 -18 46 -50zM182 -17c-92 0 -125 62 -78 206l38 117c29 91 19 123 -10 123c-41 0 -69 -64 -82 -146
l-31 3c8 77 44 183 131 183c81 0 101 -71 73 -162l-36 -119c-36 -120 -21 -165 26 -165c55 0 116 54 154 218l51 220s28 -2 44 -2c15 0 42 2 42 2l-67 -269c-32 -132 -17 -169 37 -169c91 0 163 151 184 264c6 36 10 64 10 93c-6 -3 -13 -4 -21 -4c-28 0 -53 15 -46 52
c6 30 29 41 53 41c47 0 62 -38 51 -120c-15 -115 -103 -366 -263 -366c-70 0 -109 30 -99 129c-40 -90 -98 -129 -161 -129z" />
    <glyph glyph-name="wgrave" unicode="&#x1e81;" horiz-adv-x="760" 
d="M182 -17c-92 0 -125 62 -78 206l38 117c29 91 19 123 -10 123c-41 0 -69 -64 -82 -146l-31 3c8 77 44 183 131 183c81 0 101 -71 73 -162l-36 -119c-36 -120 -21 -165 26 -165c55 0 116 54 154 218l51 220s28 -2 44 -2c15 0 42 2 42 2l-67 -269
c-32 -132 -17 -169 37 -169c91 0 163 151 184 264c6 36 10 64 10 93c-6 -3 -13 -4 -21 -4c-28 0 -53 15 -46 52c6 30 29 41 53 41c47 0 62 -38 51 -120c-15 -115 -103 -366 -263 -366c-70 0 -109 30 -99 129c-40 -90 -98 -129 -161 -129zM488 535l-7 -9
c-54 33 -122 74 -156 99c-35 26 0 72 35 45c35 -28 85 -87 128 -135z" />
    <glyph glyph-name="uni1E8B" unicode="&#x1e8b;" horiz-adv-x="554" 
d="M488 163c-2 -96 -42 -180 -152 -180c-77 0 -116 38 -126 100c-23 -57 -66 -100 -126 -100c-70 0 -95 50 -79 108c9 34 33 56 65 56c27 0 44 -17 39 -49c-7 -33 -49 -41 -74 -27c-3 -28 8 -56 53 -56c81 0 113 107 135 195c31 125 41 219 -32 219c-68 0 -92 -71 -80 -147
l-29 4c-17 92 24 183 127 183c77 0 112 -40 121 -99c26 58 68 99 130 99c57 0 86 -35 78 -97c-7 -56 -33 -79 -69 -79c-28 0 -50 17 -43 52c8 40 53 48 81 34c1 37 -19 58 -54 58c-76 0 -109 -79 -137 -194c-32 -128 -28 -220 40 -220c71 0 96 61 103 140h29zM406 598
c0 -28 -22 -50 -49 -50s-50 22 -50 50s23 50 50 50s49 -22 49 -50z" />
    <glyph glyph-name="ycircumflex" unicode="&#x177;" horiz-adv-x="545" 
d="M43 283l-31 3c8 77 45 183 132 183c81 0 104 -55 75 -162l-31 -119c-32 -123 -15 -165 30 -165c54 0 134 57 178 281l31 157s26 -2 41 -2c14 0 41 2 41 2c-8 -34 -77 -369 -83 -403c-32 -175 -128 -261 -258 -261c-99 0 -135 56 -118 109c9 28 31 46 63 46
c31 0 51 -21 45 -52c-6 -35 -45 -50 -78 -34c8 -25 35 -41 89 -41c101 0 146 76 172 208l18 93c-42 -100 -106 -143 -173 -143c-91 0 -117 54 -80 206l29 117c22 91 18 123 -11 123c-44 0 -68 -64 -81 -146zM456 533l-9 -8c-34 23 -74 64 -101 99
c-34 -32 -107 -77 -145 -100l-7 9c32 47 97 110 136 140h42c29 -29 64 -92 84 -140z" />
    <glyph glyph-name="ygrave" unicode="&#x1ef3;" horiz-adv-x="545" 
d="M43 283l-31 3c8 77 45 183 132 183c81 0 104 -55 75 -162l-31 -119c-32 -123 -15 -165 30 -165c54 0 134 57 178 281l31 157s26 -2 41 -2c14 0 41 2 41 2c-8 -34 -77 -369 -83 -403c-32 -175 -128 -261 -258 -261c-99 0 -135 56 -118 109c9 28 31 46 63 46
c31 0 51 -21 45 -52c-6 -35 -45 -50 -78 -34c8 -25 35 -41 89 -41c101 0 146 76 172 208l18 93c-42 -100 -106 -143 -173 -143c-91 0 -117 54 -80 206l29 117c22 91 18 123 -11 123c-44 0 -68 -64 -81 -146zM353 535l-7 -9c-54 33 -122 74 -156 99c-35 26 0 72 35 45
c35 -28 85 -87 128 -135z" />
    <glyph glyph-name="zacute" unicode="&#x17a;" horiz-adv-x="468" 
d="M270 526l-7 9c42 48 94 106 128 135c35 26 70 -20 35 -45c-34 -25 -102 -66 -156 -99zM98 283l-28 3c-9 139 53 194 121 194c42 0 74 -16 110 -57c40 -47 80 -69 108 -43c-17 8 -25 25 -25 45c-1 30 13 44 31 44c20 0 33 -14 32 -43c0 -42 -20 -72 -125 -149
c-39 -28 -147 -97 -217 -159c43 22 88 17 118 -7c44 -34 63 -49 100 -48c55 1 84 31 85 102l27 -4c-4 -125 -52 -177 -126 -178c-55 -1 -88 17 -126 65c-39 50 -86 54 -116 32l-7 -9c15 -10 20 -28 20 -45c0 -27 -12 -42 -32 -42c-17 0 -32 13 -32 43c0 48 34 85 128 158
c56 44 160 108 221 154c-44 -16 -84 -1 -124 32c-33 27 -52 38 -75 38c-50 0 -72 -37 -68 -126z" />
    <glyph glyph-name="zdotaccent" unicode="&#x17c;" horiz-adv-x="468" 
d="M98 283l-28 3c-9 139 53 194 121 194c42 0 74 -16 110 -57c40 -47 80 -69 108 -43c-17 8 -25 25 -25 45c-1 30 13 44 31 44c20 0 33 -14 32 -43c0 -42 -20 -72 -125 -149c-39 -28 -147 -97 -217 -159c43 22 88 17 118 -7c44 -34 63 -49 100 -48c55 1 84 31 85 102l27 -4
c-4 -125 -52 -177 -126 -178c-55 -1 -88 17 -126 65c-39 50 -86 54 -116 32l-7 -9c15 -10 20 -28 20 -45c0 -27 -12 -42 -32 -42c-17 0 -32 13 -32 43c0 48 34 85 128 158c56 44 160 108 221 154c-44 -16 -84 -1 -124 32c-33 27 -52 38 -75 38c-50 0 -72 -37 -68 -126z
M338 598c0 -28 -22 -50 -49 -50s-50 22 -50 50s23 50 50 50s49 -22 49 -50z" />
    <glyph glyph-name="uni01B6" unicode="&#x1b6;" horiz-adv-x="468" 
d="M98 283l-28 3c-9 139 53 194 121 194c42 0 74 -16 110 -57c40 -47 80 -69 108 -43c-17 8 -25 25 -25 45c-1 30 13 44 31 44c20 0 33 -14 32 -43c0 -42 -20 -72 -125 -149c-13 -10 -35 -24 -60 -41c45 12 93 25 116 30l6 -31c-29 -4 -99 -15 -154 -21
c-42 -30 -89 -64 -125 -96c43 22 88 17 118 -7c44 -34 63 -49 100 -48c55 1 84 31 85 102l27 -4c-4 -125 -52 -177 -126 -178c-55 -1 -88 17 -126 65c-39 50 -86 54 -116 32l-7 -9c15 -10 20 -28 20 -45c0 -27 -12 -42 -32 -42c-17 0 -32 13 -32 43c0 48 34 85 128 158
l18 14c-45 -14 -85 -26 -105 -29l-6 30c18 3 82 11 139 19c56 39 128 85 175 120c-44 -16 -84 -1 -124 32c-33 27 -52 38 -75 38c-50 0 -72 -37 -68 -126z" />
    <glyph glyph-name="longs" unicode="&#x17f;" horiz-adv-x="332" 
d="M347 678c-77 0 -125 -87 -153 -319c-56 -455 -147 -562 -269 -562c-75 0 -101 42 -89 88c7 30 30 43 56 43c28 0 45 -19 39 -48s-36 -40 -64 -30c7 -16 23 -25 54 -25c97 0 123 99 153 344c57 460 184 538 278 538c58 0 90 -45 84 -99c-6 -52 -31 -76 -67 -76
c-29 0 -53 16 -47 50c6 35 44 52 79 38c1 35 -15 58 -54 58z" />
    <glyph glyph-name="C.round" horiz-adv-x="733" 
d="M457 709c122 0 187 -48 203 -125c18 37 32 74 42 106c9 -1 38 -1 47 0c-15 -49 -42 -157 -49 -207c-7 1 -23 1 -36 1c-14 0 -25 0 -32 -1c3 114 -57 181 -177 181c-149 0 -255 -95 -292 -318c-42 -253 53 -320 181 -320c170 0 239 98 273 236c5 -1 17 -2 28 -2s23 1 29 2
c-44 -195 -139 -284 -340 -284c-203 0 -316 108 -273 368c42 257 208 363 396 363z" />
    <glyph glyph-name="G.round" horiz-adv-x="807" 
d="M343 26c112 -1 213 66 234 191c10 64 5 88 -47 88h-52l5 46s96 -2 149 -2c54 0 149 2 149 2l-5 -46h-41c-32 0 -45 -15 -53 -53c-11 -54 -30 -169 -34 -252h-53s0 71 -7 125c-43 -78 -138 -147 -255 -147c-202 0 -313 108 -272 368c43 257 208 363 396 363
c120 0 186 -47 203 -123c17 35 31 71 41 104c10 -1 38 -1 48 0c-17 -51 -44 -153 -48 -207c0 0 -19 1 -34 1c-17 0 -35 -1 -35 -1c2 114 -57 181 -177 181c-149 0 -255 -94 -292 -318c-41 -247 47 -319 180 -320z" />
    <glyph glyph-name="S.round" horiz-adv-x="637" 
d="M358 664c-107 0 -166 -43 -180 -108c-19 -85 37 -120 177 -145c159 -28 238 -102 212 -250c-18 -107 -105 -180 -257 -180c-101 0 -186 33 -227 99c-19 -19 -34 -45 -41 -81c-9 1 -37 1 -46 0c20 64 39 167 47 233h42c9 -139 97 -205 228 -205c114 0 167 46 179 118
c16 94 -49 133 -190 158c-147 27 -217 103 -193 230c22 115 119 176 258 176c76 0 142 -28 178 -83c19 17 31 39 39 67c8 -1 34 -1 43 0c-20 -52 -44 -166 -48 -219h-39c-3 127 -59 190 -182 190z" />
    <glyph glyph-name="Cacute.round" horiz-adv-x="733" 
d="M456 756l-7 9c42 48 94 106 128 135c35 26 70 -20 35 -45c-34 -25 -102 -66 -156 -99zM457 709c122 0 187 -48 203 -125c18 37 32 74 42 106c9 -1 38 -1 47 0c-15 -49 -42 -157 -49 -207c-7 1 -23 1 -36 1c-14 0 -25 0 -32 -1c3 114 -57 181 -177 181
c-149 0 -255 -95 -292 -318c-42 -253 53 -320 181 -320c170 0 239 98 273 236c5 -1 17 -2 28 -2s23 1 29 2c-44 -195 -139 -284 -340 -284c-203 0 -316 108 -273 368c42 257 208 363 396 363z" />
    <glyph glyph-name="Ccaron.round" horiz-adv-x="733" 
d="M355 904l9 8c34 -24 89 -74 116 -105c35 32 93 83 130 106l7 -9c-31 -48 -90 -110 -129 -141h-42c-28 29 -70 93 -91 141zM457 709c122 0 187 -48 203 -125c18 37 32 74 42 106c9 -1 38 -1 47 0c-15 -49 -42 -157 -49 -207c-7 1 -23 1 -36 1c-14 0 -25 0 -32 -1
c3 114 -57 181 -177 181c-149 0 -255 -95 -292 -318c-42 -253 53 -320 181 -320c170 0 239 98 273 236c5 -1 17 -2 28 -2s23 1 29 2c-44 -195 -139 -284 -340 -284c-203 0 -316 108 -273 368c42 257 208 363 396 363z" />
    <glyph glyph-name="Ccedilla.round" horiz-adv-x="733" 
d="M457 709c122 0 187 -48 203 -125c18 37 32 74 42 106c9 -1 38 -1 47 0c-15 -49 -42 -157 -49 -207c-7 1 -23 1 -36 1c-14 0 -25 0 -32 -1c3 114 -57 181 -177 181c-149 0 -255 -95 -292 -318c-42 -253 53 -320 181 -320c170 0 239 98 273 236c5 -1 17 -2 28 -2s23 1 29 2
c-44 -195 -139 -283 -339 -284c-5 -20 -16 -41 -37 -58c55 9 114 -14 110 -76c-4 -57 -49 -92 -120 -92c-55 0 -85 26 -99 56l19 15c16 -23 39 -37 71 -37c42 0 65 23 67 59c3 42 -40 64 -96 43l-9 18c41 22 61 44 73 73c-191 7 -294 115 -253 367c43 257 208 363 396 363z
" />
    <glyph glyph-name="Ccircumflex.round" horiz-adv-x="733" 
d="M604 765l-9 -8c-34 23 -74 64 -101 99c-34 -32 -107 -77 -145 -100l-7 9c32 47 97 110 136 140h42c29 -29 64 -92 84 -140zM457 709c122 0 187 -48 203 -125c18 37 32 74 42 106c9 -1 38 -1 47 0c-15 -49 -42 -157 -49 -207c-7 1 -23 1 -36 1c-14 0 -25 0 -32 -1
c3 114 -57 181 -177 181c-149 0 -255 -95 -292 -318c-42 -253 53 -320 181 -320c170 0 239 98 273 236c5 -1 17 -2 28 -2s23 1 29 2c-44 -195 -139 -284 -340 -284c-203 0 -316 108 -273 368c42 257 208 363 396 363z" />
    <glyph glyph-name="Cdotaccent.round" horiz-adv-x="733" 
d="M457 709c122 0 187 -48 203 -125c18 37 32 74 42 106c9 -1 38 -1 47 0c-15 -49 -42 -157 -49 -207c-7 1 -23 1 -36 1c-14 0 -25 0 -32 -1c3 114 -57 181 -177 181c-149 0 -255 -95 -292 -318c-42 -253 53 -320 181 -320c170 0 239 98 273 236c5 -1 17 -2 28 -2s23 1 29 2
c-44 -195 -139 -284 -340 -284c-203 0 -316 108 -273 368c42 257 208 363 396 363zM523 828c0 -28 -22 -50 -49 -50s-50 22 -50 50s23 50 50 50s49 -22 49 -50z" />
    <glyph glyph-name="Gbreve.round" horiz-adv-x="807" 
d="M343 26c112 -1 213 66 234 191c10 64 5 88 -47 88h-52l5 46s96 -2 149 -2c54 0 149 2 149 2l-5 -46h-41c-32 0 -45 -15 -53 -53c-11 -54 -30 -169 -34 -252h-53s0 71 -7 125c-43 -78 -138 -147 -255 -147c-202 0 -313 108 -272 368c43 257 208 363 396 363
c120 0 186 -47 203 -123c17 35 31 71 41 104c10 -1 38 -1 48 0c-17 -51 -44 -153 -48 -207c0 0 -19 1 -34 1c-17 0 -35 -1 -35 -1c2 114 -57 181 -177 181c-149 0 -255 -94 -292 -318c-41 -247 47 -319 180 -320zM478 755c-97 0 -128 65 -110 145l14 2
c-4 -69 27 -89 102 -89s112 23 124 89l14 -2c-1 -80 -47 -145 -144 -145z" />
    <glyph glyph-name="Gcircumflex.round" horiz-adv-x="807" 
d="M603 765l-9 -8c-34 23 -74 64 -101 99c-34 -32 -107 -77 -145 -100l-7 9c32 47 97 110 136 140h42c29 -29 64 -92 84 -140zM343 26c112 -1 213 66 234 191c10 64 5 88 -47 88h-52l5 46s96 -2 149 -2c54 0 149 2 149 2l-5 -46h-41c-32 0 -45 -15 -53 -53
c-11 -54 -30 -169 -34 -252h-53s0 71 -7 125c-43 -78 -138 -147 -255 -147c-202 0 -313 108 -272 368c43 257 208 363 396 363c120 0 186 -47 203 -123c17 35 31 71 41 104c10 -1 38 -1 48 0c-17 -51 -44 -153 -48 -207c0 0 -19 1 -34 1c-17 0 -35 -1 -35 -1
c2 114 -57 181 -177 181c-149 0 -255 -94 -292 -318c-41 -247 47 -319 180 -320z" />
    <glyph glyph-name="Gcommaaccent.round" horiz-adv-x="807" 
d="M351 -150c-26 0 -40 15 -38 45c2 28 25 50 57 50c40 0 51 -32 48 -68c-6 -62 -52 -116 -138 -144l-5 19c65 21 114 59 119 123c-8 -16 -24 -25 -43 -25zM343 26c112 -1 213 66 234 191c10 64 5 88 -47 88h-52l5 46s96 -2 149 -2c54 0 149 2 149 2l-5 -46h-41
c-32 0 -45 -15 -53 -53c-11 -54 -30 -169 -34 -252h-53s0 71 -7 125c-43 -78 -138 -147 -255 -147c-202 0 -313 108 -272 368c43 257 208 363 396 363c120 0 186 -47 203 -123c17 35 31 71 41 104c10 -1 38 -1 48 0c-17 -51 -44 -153 -48 -207c0 0 -19 1 -34 1
c-17 0 -35 -1 -35 -1c2 114 -57 181 -177 181c-149 0 -255 -94 -292 -318c-41 -247 47 -319 180 -320z" />
    <glyph glyph-name="Gdotaccent.round" horiz-adv-x="807" 
d="M343 26c112 -1 213 66 234 191c10 64 5 88 -47 88h-52l5 46s96 -2 149 -2c54 0 149 2 149 2l-5 -46h-41c-32 0 -45 -15 -53 -53c-11 -54 -30 -169 -34 -252h-53s0 71 -7 125c-43 -78 -138 -147 -255 -147c-202 0 -313 108 -272 368c43 257 208 363 396 363
c120 0 186 -47 203 -123c17 35 31 71 41 104c10 -1 38 -1 48 0c-17 -51 -44 -153 -48 -207c0 0 -19 1 -34 1c-17 0 -35 -1 -35 -1c2 114 -57 181 -177 181c-149 0 -255 -94 -292 -318c-41 -247 47 -319 180 -320zM540 829c0 -28 -22 -50 -49 -50s-50 22 -50 50s23 50 50 50
s49 -22 49 -50z" />
    <glyph glyph-name="Sacute.round" horiz-adv-x="637" 
d="M368 756l-7 9c42 48 94 106 128 135c35 26 70 -20 35 -45c-34 -25 -102 -66 -156 -99zM358 664c-107 0 -166 -43 -180 -108c-19 -85 37 -120 177 -145c159 -28 238 -102 212 -250c-18 -107 -105 -180 -257 -180c-101 0 -186 33 -227 99c-19 -19 -34 -45 -41 -81
c-9 1 -37 1 -46 0c20 64 39 167 47 233h42c9 -139 97 -205 228 -205c114 0 167 46 179 118c16 94 -49 133 -190 158c-147 27 -217 103 -193 230c22 115 119 176 258 176c76 0 142 -28 178 -83c19 17 31 39 39 67c8 -1 34 -1 43 0c-20 -52 -44 -166 -48 -219h-39
c-3 127 -59 190 -182 190z" />
    <glyph glyph-name="Scaron.round" horiz-adv-x="637" 
d="M281 904l9 8c34 -24 89 -74 116 -105c35 32 93 83 130 106l7 -9c-31 -48 -90 -110 -129 -141h-42c-28 29 -70 93 -91 141zM358 664c-107 0 -166 -43 -180 -108c-19 -85 37 -120 177 -145c159 -28 238 -102 212 -250c-18 -107 -105 -180 -257 -180c-101 0 -186 33 -227 99
c-19 -19 -34 -45 -41 -81c-9 1 -37 1 -46 0c20 64 39 167 47 233h42c9 -139 97 -205 228 -205c114 0 167 46 179 118c16 94 -49 133 -190 158c-147 27 -217 103 -193 230c22 115 119 176 258 176c76 0 142 -28 178 -83c19 17 31 39 39 67c8 -1 34 -1 43 0
c-20 -52 -44 -166 -48 -219h-39c-3 127 -59 190 -182 190z" />
    <glyph glyph-name="Scedilla.round" horiz-adv-x="637" 
d="M358 664c-107 0 -166 -43 -180 -108c-19 -85 37 -120 177 -145c159 -28 238 -102 212 -250c-18 -107 -98 -180 -262 -180c-5 -20 -16 -44 -38 -61c55 9 114 -14 110 -76c-4 -57 -49 -92 -120 -92c-55 0 -85 26 -99 56l19 15c16 -23 39 -37 71 -37c42 0 65 23 67 59
c3 42 -40 64 -96 43l-9 18c42 23 63 45 74 76c-90 5 -164 37 -201 98c-19 -19 -34 -45 -41 -81c-9 1 -37 1 -46 0c20 64 39 167 47 233h42c9 -139 97 -205 228 -205c114 0 167 46 179 118c16 94 -49 133 -190 158c-147 27 -217 103 -193 230c22 115 119 176 258 176
c76 0 142 -28 178 -83c19 17 31 39 39 67c8 -1 34 -1 43 0c-20 -52 -44 -166 -48 -219h-39c-3 127 -59 190 -182 190z" />
    <glyph glyph-name="Scircumflex.round" horiz-adv-x="637" 
d="M517 765l-9 -8c-34 23 -74 64 -101 99c-34 -32 -107 -77 -145 -100l-7 9c32 47 97 110 136 140h42c29 -29 64 -92 84 -140zM358 664c-107 0 -166 -43 -180 -108c-19 -85 37 -120 177 -145c159 -28 238 -102 212 -250c-18 -107 -105 -180 -257 -180
c-101 0 -186 33 -227 99c-19 -19 -34 -45 -41 -81c-9 1 -37 1 -46 0c20 64 39 167 47 233h42c9 -139 97 -205 228 -205c114 0 167 46 179 118c16 94 -49 133 -190 158c-147 27 -217 103 -193 230c22 115 119 176 258 176c76 0 142 -28 178 -83c19 17 31 39 39 67
c8 -1 34 -1 43 0c-20 -52 -44 -166 -48 -219h-39c-3 127 -59 190 -182 190z" />
    <glyph glyph-name="Scommaaccent.round" horiz-adv-x="637" 
d="M245 -150c-26 0 -40 15 -38 45c2 28 25 50 57 50c40 0 51 -32 48 -68c-6 -62 -52 -116 -138 -144l-5 19c65 21 114 59 119 123c-8 -16 -24 -25 -43 -25zM358 664c-107 0 -166 -43 -180 -108c-19 -85 37 -120 177 -145c159 -28 238 -102 212 -250
c-18 -107 -105 -180 -257 -180c-101 0 -186 33 -227 99c-19 -19 -34 -45 -41 -81c-9 1 -37 1 -46 0c20 64 39 167 47 233h42c9 -139 97 -205 228 -205c114 0 167 46 179 118c16 94 -49 133 -190 158c-147 27 -217 103 -193 230c22 115 119 176 258 176c76 0 142 -28 178 -83
c19 17 31 39 39 67c8 -1 34 -1 43 0c-20 -52 -44 -166 -48 -219h-39c-3 127 -59 190 -182 190z" />
    <glyph glyph-name="f.shy" horiz-adv-x="316" 
d="M46 422l4 38l78 -1c56 205 129 248 190 248c56 0 89 -44 84 -96c-5 -46 -33 -68 -66 -68c-23 0 -39 16 -34 45c4 29 36 43 67 34c1 33 -18 56 -53 56c-61 0 -86 -62 -109 -220l107 2l-4 -38l-108 1l-8 -64c-56 -450 -147 -565 -269 -565c-75 0 -100 42 -88 88
c8 29 34 43 58 43c25 0 42 -19 37 -46c-7 -26 -39 -38 -65 -32c5 -16 22 -26 54 -26c97 0 123 108 153 348c12 102 28 186 44 254z" />
    <glyph glyph-name="j.shy" horiz-adv-x="283" 
d="M273 628c-2 -33 -28 -59 -64 -59c-33 0 -54 26 -52 59c2 32 28 58 64 58c33 0 54 -26 52 -58zM215 300l-57 -293c-28 -143 -90 -210 -190 -210c-64 0 -90 35 -86 75c3 38 28 56 56 56c26 0 42 -16 40 -40c-3 -36 -36 -47 -64 -38c7 -16 24 -25 51 -25c68 0 85 50 110 181
l58 304c15 76 20 119 -12 119c-41 0 -67 -64 -81 -146l-31 3c12 100 55 183 134 183c95 0 89 -81 72 -169z" />
    <glyph glyph-name="jacute.shy" horiz-adv-x="283" 
d="M164 526l-7 9c42 48 94 106 128 135c35 26 70 -20 35 -45c-34 -25 -102 -66 -156 -99zM215 300l-57 -293c-28 -143 -90 -210 -190 -210c-64 0 -90 35 -86 75c3 38 28 56 56 56c26 0 42 -16 40 -40c-3 -36 -36 -47 -64 -38c7 -16 24 -25 51 -25c68 0 85 50 110 181l58 304
c15 76 20 119 -12 119c-41 0 -67 -64 -81 -146l-31 3c12 100 55 183 134 183c95 0 89 -81 72 -169z" />
    <glyph glyph-name="jcircumflex.shy" horiz-adv-x="283" 
d="M302 533l-9 -8c-34 23 -74 64 -101 99c-34 -32 -107 -77 -145 -100l-7 9c32 47 97 110 136 140h42c29 -29 64 -92 84 -140zM215 300l-57 -293c-28 -143 -90 -210 -190 -210c-64 0 -90 35 -86 75c3 38 28 56 56 56c26 0 42 -16 40 -40c-3 -36 -36 -47 -64 -38
c7 -16 24 -25 51 -25c68 0 85 50 110 181l58 304c15 76 20 119 -12 119c-41 0 -67 -64 -81 -146l-31 3c12 100 55 183 134 183c95 0 89 -81 72 -169z" />
    <glyph glyph-name="uni0237.shy" horiz-adv-x="283" 
d="M215 300l-57 -293c-28 -143 -90 -210 -190 -210c-64 0 -90 35 -86 75c3 38 28 56 56 56c26 0 42 -16 40 -40c-3 -36 -36 -47 -64 -38c7 -16 24 -25 51 -25c68 0 85 50 110 181l58 304c15 76 20 119 -12 119c-41 0 -67 -64 -81 -146l-31 3c12 100 55 183 134 183
c95 0 89 -81 72 -169z" />
    <glyph glyph-name="dollar.single" 
d="M263 -99h-44l21 112c-144 3 -217 66 -202 148c8 39 34 54 66 54c33 0 52 -22 46 -53c-5 -28 -27 -44 -60 -44h-9c19 -43 66 -68 166 -69l48 256c-1 0 -1 1 -2 1c-138 26 -202 106 -162 230c26 82 112 136 221 141l16 110h44l-21 -110c116 -7 164 -69 154 -141
c-6 -37 -27 -57 -66 -57c-33 0 -51 22 -47 50c4 32 28 47 60 47c5 0 10 0 15 -1c-16 38 -52 62 -122 66l-44 -239h1c156 -33 210 -98 189 -214c-18 -97 -114 -166 -251 -174zM459 168c9 71 -29 107 -135 131l-38 -249c105 8 165 53 173 118zM195 545
c-17 -67 8 -108 118 -136l34 232c-86 -4 -139 -46 -152 -96z" />
    <glyph glyph-name="uni2116" unicode="&#x2116;" horiz-adv-x="1086" 
d="M948 52c-3 -41 -33 -63 -71 -63c-36 0 -62 21 -58 63c4 40 34 64 70 64c38 0 62 -25 59 -64zM923 267c54 0 96 32 110 130c15 104 -22 132 -73 132c-49 0 -95 -33 -110 -132c-15 -104 19 -130 73 -130zM919 238c-81 0 -125 48 -109 159c16 112 84 160 155 160
c81 0 126 -49 110 -160c-16 -112 -85 -159 -156 -159zM316 689c20 -43 203 -393 278 -538c28 153 70 406 73 441c4 39 -9 50 -45 50h-68l6 47c16 0 96 -2 150 -2c55 0 143 2 148 2l-6 -47h-68c-36 0 -50 -11 -60 -50c-11 -42 -78 -452 -100 -593h-63
c-20 42 -213 412 -300 581c-31 -167 -75 -443 -79 -478c-3 -34 14 -54 60 -54h55l-6 -50s-112 2 -149 2c-38 0 -147 -2 -147 -2l6 50h50c46 0 69 16 78 54c8 34 81 451 82 490c2 39 -10 50 -46 50h-67l6 47c36 -1 176 -1 212 0z" />
    </font>
</defs>
</svg>
